<svg xmlns="http://www.w3.org/2000/svg" width="128" height="128" viewBox="0 0 128 128">
  <g id="Grupo_1109985" data-name="Grupo 1109985" transform="translate(-656.051 -6642)">
    <circle id="Elipse_11525" data-name="Elipse 11525" cx="64" cy="64" r="64" transform="translate(656.051 6642)" fill="#8390aa"/>
    <g id="quimico" transform="translate(671.052 6657.001)">
      <g id="Grupo_1109984" data-name="Grupo 1109984" transform="translate(10.146 10.139)">
        <path id="Trazado_901509" data-name="Trazado 901509" d="M58.059,25.345a5.908,5.908,0,0,1,1.622.226,7.068,7.068,0,0,1,12.294-6.716,9.371,9.371,0,0,1,11.762,3.221A5.905,5.905,0,1,1,83.9,32.319a9.365,9.365,0,0,1-14.882,1.264,5.912,5.912,0,0,1-5.681.321,5.906,5.906,0,1,1-5.277-8.559Z" transform="translate(-46.248 -15.976)" fill="#e4e8eb" fill-rule="evenodd"/>
        <g id="Grupo_1109982" data-name="Grupo 1109982" transform="translate(0 26.462)">
          <path id="Trazado_901510" data-name="Trazado 901510" d="M194.5,220.658,175.776,229.1a.481.481,0,0,0-.289.447v33.629H195.2V221.1a.49.49,0,0,0-.692-.447Z" transform="translate(-149.423 -213.629)" fill="#cad0d7" fill-rule="evenodd"/>
          <path id="Trazado_901511" data-name="Trazado 901511" d="M66.788,177.883h-9.38a.491.491,0,0,0-.49.49v35.459h10.36V178.373A.491.491,0,0,0,66.788,177.883Z" transform="translate(-50.233 -177.883)" fill="#a9b0bb" fill-rule="evenodd"/>
          <path id="Trazado_901512" data-name="Trazado 901512" d="M16.507,387.019H61.79V365.732H16.507a.491.491,0,0,0-.49.49v20.306a.491.491,0,0,0,.49.49Z" transform="translate(-16.017 -335.03)" fill="#cad0d7" fill-rule="evenodd"/>
          <path id="Trazado_901513" data-name="Trazado 901513" d="M231.807,391.4H201.254a.491.491,0,0,0-.49.49v16.6h31.043Z" transform="translate(-170.569 -356.505)" fill="#a9b0bb" fill-rule="evenodd"/>
        </g>
        <g id="Grupo_1109983" data-name="Grupo 1109983" transform="translate(41.829 19.8)">
          <path id="Trazado_901514" data-name="Trazado 901514" d="M297.022,181.72a18.31,18.31,0,1,1-13.524,0V162.556h13.524Z" transform="translate(-271.95 -158.4)" fill="#c7e0ec" fill-rule="evenodd"/>
          <path id="Trazado_901515" data-name="Trazado 901515" d="M328.782,137.125H343.1a2.232,2.232,0,0,1,2.228,2.228v2.241a2.232,2.232,0,0,1-2.228,2.228H328.782a2.232,2.232,0,0,1-2.228-2.228v-2.241A2.232,2.232,0,0,1,328.782,137.125Z" transform="translate(-317.63 -137.125)" fill="#a4d4ff" fill-rule="evenodd"/>
          <path id="Trazado_901516" data-name="Trazado 901516" d="M313.1,321.24c-12.224-2.976-11.841,4.9-26.63.019a16.449,16.449,0,1,0,26.63-.019Z" transform="translate(-281.478 -290.569)" fill="#fdcd56" fill-rule="evenodd"/>
        </g>
      </g>
      <path id="Trazado_901517" data-name="Trazado 901517" d="M71.647,71.487a1.156,1.156,0,1,1-1.155-1.156A1.158,1.158,0,0,1,71.647,71.487ZM61.293,67.426a1.156,1.156,0,1,1,1.158-1.157A1.159,1.159,0,0,1,61.293,67.426ZM77.726,79.741a1.156,1.156,0,1,1-1.158-1.156A1.159,1.159,0,0,1,77.726,79.741ZM63.9,76.356A1.651,1.651,0,1,1,62.246,74.7,1.654,1.654,0,0,1,63.9,76.356Zm16.9-9.019a1.653,1.653,0,1,1-1.652-1.652A1.655,1.655,0,0,1,80.795,67.336Zm-58.84-46.68a4.761,4.761,0,0,1,1.308.182,1.146,1.146,0,0,0,1.383-1.51,5.926,5.926,0,0,1,5.532-8.042A5.948,5.948,0,0,1,34.949,13.7a1.145,1.145,0,0,0,1.412.355,8.224,8.224,0,0,1,10.324,2.828,1.145,1.145,0,0,0,1.534.342,4.761,4.761,0,1,1,.131,8.259,1.145,1.145,0,0,0-1.522.389,8.219,8.219,0,0,1-13.064,1.111,1.146,1.146,0,0,0-1.459-.2,4.787,4.787,0,0,1-4.578.259,1.145,1.145,0,0,0-1.517.517,4.761,4.761,0,1,1-4.254-6.9Zm0,11.811a7.014,7.014,0,0,0,5.761-2.984,7.131,7.131,0,0,0,4.98-.322,10.507,10.507,0,0,0,15.489-1.239,7.049,7.049,0,1,0-.209-13.127,10.519,10.519,0,0,0-11.769-3.157,8.212,8.212,0,0,0-14.159,6.73h-.093a7.049,7.049,0,0,0,0,14.1ZM65.309,17.508c.744-2.4,1.386-4.474.048-6.793a1.144,1.144,0,1,1,1.982-1.144c1.838,3.185.945,6.07.155,8.615-.686,2.214-1.28,4.127-.155,6.073A1.144,1.144,0,0,1,65.356,25.4c-1.623-2.812-.786-5.512-.048-7.894Zm7.727,0c.745-2.4,1.388-4.474.049-6.793a1.144,1.144,0,1,1,1.981-1.144c1.839,3.185.945,6.07.155,8.615-.686,2.214-1.278,4.127-.155,6.073A1.144,1.144,0,1,1,73.085,25.4c-1.625-2.812-.788-5.512-.049-7.894ZM70.284,87.45A17.2,17.2,0,0,0,85.521,62.343c-6.777-2.124-9.863-1.171-13.124-.162a21.269,21.269,0,0,1-6.786,1.241,30.224,30.224,0,0,1-10.02-2.048A17.19,17.19,0,0,0,70.284,87.45Zm-28.8,0H61.138a19.5,19.5,0,0,1-10.165-14.8H41.483v3.606h6.328a1.144,1.144,0,1,1,0,2.288H41.483V87.45Zm-30.2-14.1H32.55a1.144,1.144,0,1,0,0-2.287H11.287V68.451H50.916c-.055.606-.088,1.217-.088,1.831,0,.025,0,.051,0,.075H40.338A1.144,1.144,0,0,0,39.194,71.5V87.45H11.287Zm6.685-35.6h8.072v2.8h-5.36a1.144,1.144,0,1,0,0,2.288h5.36V66.162H17.972ZM37.351,62.514H47.825a1.144,1.144,0,1,0,0-2.288H37.351V56.62H47.825a1.144,1.144,0,1,0,0-2.288H37.351V52.946l17.421-7.853V58.543c-.171.227-.34.457-.5.692a19.318,19.318,0,0,0-3,6.927H37.351Zm26.593-8.186a1.146,1.146,0,0,0,.721-1.064V37.784H75.9v15.48a1.146,1.146,0,0,0,.721,1.064,17.165,17.165,0,0,1,7,5.119,19.556,19.556,0,0,0-11.9.548c-3.5,1.083-6.817,2.109-14.66-.534v-.15a17.178,17.178,0,0,1,6.884-4.983Zm-1.9-19.915V32.171a1.085,1.085,0,0,1,1.084-1.084H77.441a1.086,1.086,0,0,1,1.085,1.084v2.241A1.086,1.086,0,0,1,77.441,35.5H63.125A1.085,1.085,0,0,1,62.041,34.412ZM86.3,59.235A19.441,19.441,0,0,0,78.189,52.5V37.7a3.375,3.375,0,0,0,2.625-3.285V32.171A3.377,3.377,0,0,0,77.441,28.8H63.125a3.375,3.375,0,0,0-3.371,3.372v2.241A3.374,3.374,0,0,0,62.377,37.7V52.5a19.411,19.411,0,0,0-5.316,3.509V43.322a1.143,1.143,0,0,0-1.613-1.043L35.736,51.164a1.143,1.143,0,0,0-.674,1.042V66.162h-6.73V36.6a1.144,1.144,0,0,0-1.144-1.144H16.828A1.143,1.143,0,0,0,15.684,36.6V66.162H10.144A1.144,1.144,0,0,0,9,67.307V88.593a1.144,1.144,0,0,0,1.145,1.145h60.14A19.456,19.456,0,0,0,86.3,59.235Z" fill-rule="evenodd"/>
    </g>
  </g>
</svg>
