<svg xmlns="http://www.w3.org/2000/svg" xmlns:xlink="http://www.w3.org/1999/xlink" width="108" height="108" viewBox="0 0 108 108">
  <defs>
    <filter id="Trazado_896985" x="0" y="0" width="108" height="108" filterUnits="userSpaceOnUse">
      <feOffset dy="3" input="SourceAlpha"/>
      <feGaussianBlur stdDeviation="3" result="blur"/>
      <feFlood flood-opacity="0.161"/>
      <feComposite operator="in" in2="blur"/>
      <feComposite in="SourceGraphic"/>
    </filter>
  </defs>
  <g id="Grupo_1109992" data-name="Grupo 1109992" transform="translate(8.983 5.663)">
    <g id="Grupo_1098742" data-name="Grupo 1098742" transform="translate(0.017 0.337)">
      <g transform="matrix(1, 0, 0, 1, -9, -6)" filter="url(#Trazado_896985)">
        <g id="Trazado_896985-2" data-name="Trazado 896985" transform="translate(9 6)" fill="#8390aa" opacity="0.859">
          <path d="M 44.99993896484375 88.5 C 39.12682723999023 88.5 33.4301872253418 87.35007476806641 28.06826400756836 85.08217620849609 C 22.88850212097168 82.89132690429688 18.23627662658691 79.75461578369141 14.2408390045166 75.75916290283203 C 10.24540138244629 71.76372528076172 7.108676433563232 67.11151123046875 4.917826652526855 61.9317512512207 C 2.649926424026489 56.56982421875 1.500001430511475 50.87317657470703 1.500001430511475 45.00006103515625 C 1.500001430511475 39.12682342529297 2.649926424026489 33.4301872253418 4.917826652526855 28.06826210021973 C 7.108676433563232 22.88850021362305 10.24540138244629 18.23628807067871 14.2408390045166 14.24083709716797 C 18.23628807067871 10.24540042877197 22.88850212097168 7.108675003051758 28.06826400756836 4.917825222015381 C 33.4301872253418 2.649924993515015 39.12682723999023 1.5 44.99993896484375 1.5 C 50.87305068969727 1.5 56.5697021484375 2.649924993515015 61.93162536621094 4.917825222015381 C 67.11138916015625 7.108675003051758 71.76360321044922 10.24540042877197 75.75904083251953 14.24083709716797 C 79.75448608398438 18.23627471923828 82.89120483398438 22.88850021362305 85.08205413818359 28.06826210021973 C 87.34995269775391 33.4301872253418 88.4998779296875 39.12682342529297 88.4998779296875 44.99993896484375 C 88.4998779296875 50.87317657470703 87.34995269775391 56.56982421875 85.08205413818359 61.9317512512207 C 82.89120483398438 67.11151123046875 79.75448608398438 71.76372528076172 75.75904083251953 75.75916290283203 C 71.76360321044922 79.75461578369141 67.11138916015625 82.89132690429688 61.93162536621094 85.08217620849609 C 56.5697021484375 87.35007476806641 50.87305068969727 88.5 44.99993896484375 88.5 Z" stroke="none"/>
          <path d="M 44.99993896484375 3 C 39.32865142822266 3 33.82860946655273 4.110054016113281 28.65258026123047 6.299331665039062 C 23.65162658691406 8.414558410644531 19.15966796875 11.44332885742188 15.30149841308594 15.30149841308594 C 11.44332122802734 19.15966796875 8.41455078125 23.65162658691406 6.299324035644531 28.65258407592773 C 4.110054016113281 33.82861328125 2.999992370605469 39.32865524291992 2.999992370605469 45.00005722045898 C 2.999992370605469 50.67134475708008 4.110054016113281 56.17138671875 6.299324035644531 61.347412109375 C 8.41455078125 66.34837341308594 11.44332122802734 70.84033203125 15.30149841308594 74.69850158691406 C 19.15966796875 78.55667114257812 23.65162658691406 81.58544158935547 28.65258026123047 83.70066833496094 C 33.82860946655273 85.88994598388672 39.32865142822266 87 44.99993896484375 87 C 50.67122650146484 87 56.17126846313477 85.88994598388672 61.34729766845703 83.70066833496094 C 66.34825134277344 81.58544158935547 70.8402099609375 78.55667114257812 74.69837951660156 74.69850158691406 C 78.55654907226562 70.84033203125 81.5853271484375 66.34837341308594 83.70055389404297 61.347412109375 C 85.88982391357422 56.17138671875 86.9998779296875 50.67134475708008 86.9998779296875 44.99994277954102 C 86.9998779296875 39.32865524291992 85.88982391357422 33.82861328125 83.70055389404297 28.65258407592773 C 81.5853271484375 23.65162658691406 78.55654907226562 19.15966796875 74.69837951660156 15.30149841308594 C 70.8402099609375 11.44332885742188 66.34825134277344 8.414558410644531 61.34729766845703 6.299331665039062 C 56.17126846313477 4.110054016113281 50.67122650146484 3 44.99993896484375 3 M 44.99993896484375 0 C 69.85272216796875 0 89.99988555908203 20.14715576171875 89.99988555908203 44.99994277954102 L 89.99988555908203 45.00005722045898 C 89.99988555908203 69.85284423828125 69.85272216796875 90 44.99993896484375 90 C 20.14715576171875 90 -7.62939453125e-06 69.85284423828125 -7.62939453125e-06 45.00005722045898 L -7.62939453125e-06 44.99994277954102 C -7.62939453125e-06 20.14715576171875 20.14715576171875 0 44.99993896484375 0 Z" stroke="none" fill="#fff"/>
        </g>
      </g>
      <g id="Rectángulo_400907" data-name="Rectángulo 400907" transform="translate(0)" fill="none" stroke="#fff" stroke-width="3">
        <rect width="90" height="90" rx="45" stroke="none"/>
        <rect x="1.5" y="1.5" width="87" height="87" rx="43.5" fill="none"/>
      </g>
    </g>
    <g id="impresora_1_" data-name="impresora (1)" transform="translate(22.976 15.331)">
      <g id="Grupo_1109996" data-name="Grupo 1109996" transform="translate(7.447 0.879)">
        <path id="Trazado_901648" data-name="Trazado 901648" d="M48.726,11.288V61.966a3.788,3.788,0,0,1-3.788,3.788H14.068V7.5h30.87A3.788,3.788,0,0,1,48.726,11.288Z" transform="translate(-14.068 -7.5)" fill="#bfbfbf"/>
        <path id="Trazado_901649" data-name="Trazado 901649" d="M159.339,281v21.017h-8.174a2.917,2.917,0,0,1-2.636-1.668L139.367,281Z" transform="translate(-124.681 -248.939)" fill="#acacac"/>
        <path id="Trazado_901650" data-name="Trazado 901650" d="M256.15,7.5h-2.827a3.788,3.788,0,0,1,3.788,3.788V61.966a3.788,3.788,0,0,1-3.788,3.788h2.827a3.788,3.788,0,0,0,3.788-3.788V11.288A3.788,3.788,0,0,0,256.15,7.5Z" transform="translate(-225.28 -7.5)" fill="#acacac"/>
        <path id="Trazado_901651" data-name="Trazado 901651" d="M48.726,106.61,51.614,111l-2.888,8.026H14.068v-7.33a5.085,5.085,0,0,1,5.085-5.085Z" transform="translate(-14.068 -94.993)" fill="#838383"/>
        <path id="Trazado_901652" data-name="Trazado 901652" d="M288.469,106.61h-2.827L288.53,111l-2.888,8.026h2.827L291.356,111Z" transform="translate(-253.811 -94.993)" fill="#666"/>
        <path id="Trazado_901653" data-name="Trazado 901653" d="M82.544,160.107h31.18a8.026,8.026,0,0,0,0-16.051H82.544Z" transform="translate(-74.518 -128.05)" fill="#ccf49f"/>
        <path id="Trazado_901654" data-name="Trazado 901654" d="M327.27,144.056h-2.827a8.026,8.026,0,0,1,0,16.051h2.827a8.026,8.026,0,1,0,0-16.051Z" transform="translate(-288.064 -128.05)" fill="#b3e59f"/>
        <path id="Trazado_901655" data-name="Trazado 901655" d="M121.752,289.025a8.025,8.025,0,0,1-8.025,8.025H82.547V281h31.179a8.09,8.09,0,0,1,1.628.165,8.03,8.03,0,0,1,6.4,7.86Z" transform="translate(-74.521 -248.943)" fill="#ccf49f"/>
        <path id="Trazado_901656" data-name="Trazado 901656" d="M159.339,281v16.051H146.968L139.368,281Z" transform="translate(-124.681 -248.943)" fill="#b3e59f"/>
        <circle id="Elipse_11545" data-name="Elipse 11545" cx="8.026" cy="8.026" r="8.026" transform="translate(0 16.006)" fill="#739ad6"/>
        <path id="Trazado_901657" data-name="Trazado 901657" d="M71.9,144.056a8.069,8.069,0,0,0-1.413.127,8.024,8.024,0,0,1,0,15.8A8.025,8.025,0,1,0,71.9,144.056Z" transform="translate(-63.873 -128.05)" fill="#5a84c8"/>
        <circle id="Elipse_11546" data-name="Elipse 11546" cx="3.009" cy="3.009" r="3.009" transform="translate(5.017 21.022)" fill="#01c0fa"/>
        <path id="Trazado_901658" data-name="Trazado 901658" d="M163.481,281H189.33a6.424,6.424,0,0,1,5.806,3.675L202.58,300.4a1.135,1.135,0,0,1-1.026,1.621H175.278a2.916,2.916,0,0,1-2.636-1.668Z" transform="translate(-145.968 -248.943)" fill="#fcf3e3"/>
        <path id="Trazado_901659" data-name="Trazado 901659" d="M375.973,300.4l-7.444-15.721A6.424,6.424,0,0,0,362.724,281H359.9a6.424,6.424,0,0,1,5.806,3.675l7.444,15.721a1.135,1.135,0,0,1-1.026,1.621h2.826A1.135,1.135,0,0,0,375.973,300.4Z" transform="translate(-319.362 -248.943)" fill="#fee8c7"/>
        <circle id="Elipse_11547" data-name="Elipse 11547" cx="8.026" cy="8.026" r="8.026" transform="translate(0 32.057)" fill="#739ad6"/>
        <path id="Trazado_901660" data-name="Trazado 901660" d="M71.9,281a8.069,8.069,0,0,0-1.413.127,8.024,8.024,0,0,1,0,15.8A8.025,8.025,0,1,0,71.9,281Z" transform="translate(-63.873 -248.943)" fill="#5a84c8"/>
        <circle id="Elipse_11548" data-name="Elipse 11548" cx="3.009" cy="3.009" r="3.009" transform="translate(5.017 37.074)" fill="#01c0fa"/>
        <g id="Grupo_1109995" data-name="Grupo 1109995" transform="translate(6.613 21.022)">
          <path id="Trazado_901661" data-name="Trazado 901661" d="M71.9,323.8a3,3,0,0,0-1.413.352,3.009,3.009,0,0,1,0,5.313A3.009,3.009,0,1,0,71.9,323.8Z" transform="translate(-70.486 -307.748)" fill="#08a9f1"/>
          <path id="Trazado_901662" data-name="Trazado 901662" d="M71.9,186.855a3,3,0,0,0-1.413.352,3.009,3.009,0,0,1,0,5.313,3.009,3.009,0,1,0,1.413-5.666Z" transform="translate(-70.486 -186.855)" fill="#08a9f1"/>
        </g>
      </g>
      <g id="Grupo_1109997" data-name="Grupo 1109997" transform="translate(6.568)">
        <path id="Trazado_901663" data-name="Trazado 901663" d="M7.447,1.758h30.87a2.912,2.912,0,0,1,2.909,2.909v3.71a.879.879,0,1,0,1.758,0V4.667A4.673,4.673,0,0,0,38.317,0H7.447a.879.879,0,1,0,0,1.758Z" transform="translate(-6.568)"/>
        <path id="Trazado_901664" data-name="Trazado 901664" d="M143.678,52.655a.86.86,0,1,0,.86-.86A.86.86,0,0,0,143.678,52.655Z" transform="translate(-127.607 -45.724)"/>
        <path id="Trazado_901665" data-name="Trazado 901665" d="M53.258,179.355a3.888,3.888,0,1,0,3.888,3.888A3.893,3.893,0,0,0,53.258,179.355Zm0,6.018a2.13,2.13,0,1,1,2.13-2.13A2.132,2.132,0,0,1,53.258,185.373Z" transform="translate(-44.353 -158.333)"/>
        <path id="Trazado_901666" data-name="Trazado 901666" d="M53.258,324.076a3.888,3.888,0,1,0-3.888-3.888A3.893,3.893,0,0,0,53.258,324.076Zm0-6.018a2.13,2.13,0,1,1-2.13,2.13A2.132,2.132,0,0,1,53.258,318.058Z" transform="translate(-44.353 -279.226)"/>
        <path id="Trazado_901667" data-name="Trazado 901667" d="M64.853,139.45l-7.444-15.721a7.341,7.341,0,0,0-5.557-4.1,8.9,8.9,0,0,0-5.2-16.127H45.467l-2.627-3.993a.889.889,0,0,0-.734-.4H12.532a5.97,5.97,0,0,0-5.964,5.964.879.879,0,0,0,1.758,0,4.21,4.21,0,0,1,4.205-4.205h29.1l1.731,2.631H15.473a8.9,8.9,0,0,0-3.856,16.931,8.9,8.9,0,0,0,3.856,16.931H32l1.323,2.795a3.812,3.812,0,0,0,3.43,2.171h4.469a3.018,3.018,0,0,1-2.909,3.422H7.447a.879.879,0,0,0,0,1.758h30.87a4.75,4.75,0,0,0,4.667-5.18H63.032a2.046,2.046,0,0,0,1.821-2.876Zm-18.2-34.192a7.147,7.147,0,0,1,0,14.293H20.779a8.9,8.9,0,0,0,0-14.293H46.653ZM8.327,112.4a7.147,7.147,0,1,1,7.146,7.147A7.155,7.155,0,0,1,8.327,112.4Zm0,16.051a7.147,7.147,0,1,1,7.165,7.146h-.024a7.155,7.155,0,0,1-7.141-7.147Zm54.922,11.993a.249.249,0,0,1-.217.119H36.757a2.046,2.046,0,0,1-1.841-1.165l-7.25-15.31a.879.879,0,0,0-1.589.753L31.171,135.6H20.78a8.9,8.9,0,0,0,0-14.293h30.03a5.569,5.569,0,0,1,5.011,3.172L63.264,140.2a.249.249,0,0,1-.015.247Z" transform="translate(-6.568 -87.494)"/>
        <path id="Trazado_901668" data-name="Trazado 901668" d="M179.348,51.633a.879.879,0,0,0,0,1.758H189a.879.879,0,0,0,0-1.758Z" transform="translate(-158.32 -45.581)"/>
        <path id="Trazado_901669" data-name="Trazado 901669" d="M284.364,312.2h4.4a.879.879,0,0,0,0-1.758h-4.4a.879.879,0,0,0,0,1.758Z" transform="translate(-251.027 -274.055)"/>
        <path id="Trazado_901670" data-name="Trazado 901670" d="M259.088,346.626a.879.879,0,0,0-.879-.879H239.864a.879.879,0,1,0,0,1.758h18.345A.879.879,0,0,0,259.088,346.626Z" transform="translate(-211.743 -305.222)"/>
        <path id="Trazado_901671" data-name="Trazado 901671" d="M275.958,380.273a.879.879,0,0,0-.879-.879H256.734a.879.879,0,0,0,0,1.758h18.345A.879.879,0,0,0,275.958,380.273Z" transform="translate(-226.636 -334.925)"/>
        <path id="Trazado_901672" data-name="Trazado 901672" d="M414.338,413.04h-2.095a.879.879,0,1,0,0,1.758h2.095a.879.879,0,1,0,0-1.758Z" transform="translate(-363.917 -364.627)"/>
        <path id="Trazado_901673" data-name="Trazado 901673" d="M285.674,413.04H273.6a.879.879,0,1,0,0,1.758h12.07a.879.879,0,0,0,0-1.758Z" transform="translate(-241.528 -364.627)"/>
      </g>
    </g>
  </g>
</svg>
