<svg xmlns="http://www.w3.org/2000/svg" xmlns:xlink="http://www.w3.org/1999/xlink" width="108.914" height="108.914" viewBox="0 0 108.914 108.914">
  <defs>
    <filter id="Trazado_874925" x="0" y="0" width="108.914" height="108.914" filterUnits="userSpaceOnUse">
      <feOffset dy="3" input="SourceAlpha"/>
      <feGaussianBlur stdDeviation="3" result="blur"/>
      <feFlood flood-opacity="0.161"/>
      <feComposite operator="in" in2="blur"/>
      <feComposite in="SourceGraphic"/>
    </filter>
  </defs>
  <g id="Grupo_1109837" data-name="Grupo 1109837" transform="translate(-815.427 -2496.484)">
    <g transform="matrix(1, 0, 0, 1, 815.43, 2496.48)" filter="url(#Trazado_874925)">
      <g id="Trazado_874925-2" data-name="Trazado 874925" transform="translate(9 6)" fill="#fec8b0" opacity="0.859">
        <path d="M 45.45676803588867 89.41407012939453 C 39.52198028564453 89.41407012939453 33.76551818847656 88.25206756591797 28.34726715087891 85.96034240722656 C 23.11311721801758 83.74648284912109 18.41204261779785 80.57682800292969 14.37464332580566 76.5394287109375 C 10.33724308013916 72.50202941894531 7.167593002319336 67.80095672607422 4.953730583190918 62.56679534912109 C 2.662005424499512 57.14855575561523 1.500005483627319 51.39208221435547 1.500005483627319 45.45729446411133 C 1.500005483627319 39.52198028564453 2.662005424499512 33.76551818847656 4.953730583190918 28.34726905822754 C 7.167593002319336 23.11310577392578 10.33724308013916 18.41203117370605 14.37464332580566 14.37464332580566 C 18.41204261779785 10.33724403381348 23.11311721801758 7.167593955993652 28.34726715087891 4.953731060028076 C 33.76551818847656 2.662006139755249 39.52198028564453 1.500006198883057 45.45676803588867 1.500006198883057 C 51.39155578613281 1.500006198883057 57.14802932739258 2.662006139755249 62.56626892089844 4.953731060028076 C 67.80043029785156 7.167593955993652 72.50150299072266 10.33724403381348 76.53890228271484 14.37464332580566 C 80.57630920410156 18.41203117370605 83.74595642089844 23.11310577392578 85.95981597900391 28.34726905822754 C 88.25154113769531 33.76551818847656 89.41354370117188 39.52198028564453 89.41354370117188 45.45676803588867 C 89.41354370117188 51.39208221435547 88.25154113769531 57.14855575561523 85.95981597900391 62.56679534912109 C 83.74595642089844 67.80095672607422 80.57630920410156 72.50202941894531 76.53890228271484 76.5394287109375 C 72.50150299072266 80.57682800292969 67.80043029785156 83.74648284912109 62.56626892089844 85.96034240722656 C 57.14802932739258 88.25206756591797 51.39155578613281 89.41407012939453 45.45676803588867 89.41407012939453 Z" stroke="none"/>
        <path d="M 45.45676803588867 3 C 39.72381210327148 3 34.1639404296875 4.12213134765625 28.93159484863281 6.335227966308594 C 23.87622833251953 8.473472595214844 19.33542633056641 11.53517150878906 15.43529510498047 15.435302734375 C 11.53517150878906 19.33543395996094 8.473464965820312 23.87622833251953 6.335227966308594 28.93160247802734 C 4.122123718261719 34.16394424438477 3 39.72381591796875 3 45.4572868347168 C 3 51.19024658203125 4.122123718261719 56.75011825561523 6.335227966308594 61.98246002197266 C 8.473464965820312 67.03782653808594 11.53517150878906 71.57862854003906 15.43529510498047 75.478759765625 C 19.33542633056641 79.37889099121094 23.87622833251953 82.44058990478516 28.93159484863281 84.57883453369141 C 34.1639404296875 86.79193115234375 39.72381210327148 87.9140625 45.45676803588867 87.9140625 C 51.18972396850586 87.9140625 56.74959564208984 86.79193115234375 61.98194122314453 84.57883453369141 C 67.03730773925781 82.44058990478516 71.57810974121094 79.37889099121094 75.47824096679688 75.478759765625 C 79.37837219238281 71.57862854003906 82.44007110595703 67.03782653808594 84.57830810546875 61.98246002197266 C 86.79141235351562 56.75011825561523 87.91353607177734 51.19024658203125 87.91353607177734 45.4567756652832 C 87.91353607177734 39.72381591796875 86.79141235351562 34.16394424438477 84.57830810546875 28.93160247802734 C 82.44007110595703 23.87622833251953 79.37837219238281 19.33543395996094 75.47824096679688 15.435302734375 C 71.57810974121094 11.53517150878906 67.03730773925781 8.473472595214844 61.98194122314453 6.335227966308594 C 56.74959564208984 4.12213134765625 51.18972396850586 3 45.45676803588867 3 M 45.45676803588867 0 C 70.56185150146484 0 90.91353607177734 20.35169219970703 90.91353607177734 45.4567756652832 L 90.91353607177734 45.4572868347168 C 90.91353607177734 70.5623779296875 70.56185150146484 90.9140625 45.45676803588867 90.9140625 C 20.3516845703125 90.9140625 0 70.5623779296875 0 45.4572868347168 L 0 45.4567756652832 C 0 20.35169219970703 20.3516845703125 0 45.45676803588867 0 Z" stroke="none" fill="#fff"/>
      </g>
    </g>
    <g id="mineral_2_" data-name="mineral (2)" transform="translate(843.546 2522.787)">
      <g id="Grupo_1109920" data-name="Grupo 1109920" transform="translate(2.127 0.734)">
        <path id="Trazado_901255" data-name="Trazado 901255" d="M62.444,363.944c-2.317,2.365-4.023,4.782-4.571,7.3a2.238,2.238,0,0,0,1.621,2.629,2.245,2.245,0,0,1,1.6,1.634l.006.026a2.245,2.245,0,0,0,3.8,1.016l.375-.392a2.244,2.244,0,0,1,1.445-.687l8.656-.688Z" transform="translate(-53.052 -329.186)" fill="#ffab56"/>
        <path id="Trazado_901256" data-name="Trazado 901256" d="M77.192,363.944a22.971,22.971,0,0,0-3.028,3.717,7.729,7.729,0,0,0,1.826,1.157l3.977,1.8a4.187,4.187,0,0,1,2.027,1.965L83.2,375.04c.047.095.1.188.146.28l6.785-.539Z" transform="translate(-67.8 -329.186)" fill="#ff982a"/>
        <path id="Trazado_901257" data-name="Trazado 901257" d="M59.992,49.1l-3.156-6.636a3.005,3.005,0,0,1-.268-1.668l.231-1.831a3.006,3.006,0,0,1,2.5-2.591l.613-.1a3.007,3.007,0,0,0,1.88-1.105,3.006,3.006,0,0,1,3.724-.817l.893.455a3,3,0,0,0,1.091.315l9.115.831L65.292,52.9Z" transform="translate(-51.899 -31.441)" fill="#ffab56"/>
        <path id="Trazado_901258" data-name="Trazado 901258" d="M69.858,55.891l2.149,4.519,5.3,3.793,11.328-16.94-7.753-.707q-.206.262-.39.542l-2.478,3.786a4.182,4.182,0,0,1-1.621,1.446L71.478,54.8A7.665,7.665,0,0,0,69.858,55.891Z" transform="translate(-63.914 -42.747)" fill="#ff982a"/>
        <path id="Trazado_901259" data-name="Trazado 901259" d="M311.443,12.215l2.287-2.991a3.88,3.88,0,0,1,2.883-1.518l4-.205a1.631,1.631,0,0,1,1.456.748l.818,1.275a1.631,1.631,0,0,0,.807.649l1.294.479a1.631,1.631,0,0,1,.949,2.132l-1.82,4.576-10.964-1.091Z" transform="translate(-281.941 -7.499)" fill="#ffab56"/>
        <path id="Trazado_901260" data-name="Trazado 901260" d="M325.942,31.976a1.653,1.653,0,0,0,.061-.191,7.686,7.686,0,0,0-3.408-.877l-3.779-.082a4.154,4.154,0,0,1-1.638-.373l-3.715-1.688-2.021,2.643,1.715,4.053,10.964,1.091Z" transform="translate(-281.941 -26.691)" fill="#ff982a"/>
        <path id="Trazado_901261" data-name="Trazado 901261" d="M92.093,56.4l.841,4.862a5.932,5.932,0,0,1-2.79,6.1L88.216,68.52A5.932,5.932,0,0,0,85.5,72.235l-.318,1.339A5.932,5.932,0,0,1,77.763,77.9l-2.926-.846a5.933,5.933,0,0,0-3.548.079l-1.848.625a5.932,5.932,0,0,1-7.226-3.006L61.009,72.3a5.932,5.932,0,0,0-2.879-2.791l-3.977-1.8a5.932,5.932,0,0,1-3.309-3.966l-1.5-6.012a5.933,5.933,0,0,1-.111-2.318l1.155-7.7a5.932,5.932,0,0,1,3.2-4.421l4.916-2.468a5.932,5.932,0,0,0,2.3-2.053l2.478-3.786a5.932,5.932,0,0,1,4.592-2.672l3.694-.232a5.933,5.933,0,0,1,2.826.52l5.352,2.432a5.932,5.932,0,0,0,2.326.53l3.779.082a5.932,5.932,0,0,1,5.393,3.761l1.773,4.513a5.932,5.932,0,0,1,.325,3.174l-1.254,7.294a5.933,5.933,0,0,0,0,2.016Z" transform="translate(-45.239 -29.674)" fill="#6c5e69"/>
        <path id="Trazado_901262" data-name="Trazado 901262" d="M234.475,47.095a5.932,5.932,0,0,0-.325-3.174l-1.773-4.513a5.932,5.932,0,0,0-5.393-3.761l-3.779-.082a5.932,5.932,0,0,1-2.326-.53L215.527,32.6a5.932,5.932,0,0,0-2.826-.52l-3.694.232a5.931,5.931,0,0,0-3.464,1.4l2.932-.184a5.932,5.932,0,0,1,2.826.52l5.352,2.432a5.932,5.932,0,0,0,2.326.53l3.779.082a5.932,5.932,0,0,1,5.393,3.761l1.773,4.513a5.932,5.932,0,0,1,.325,3.174L229,55.832a5.93,5.93,0,0,0,0,2.016l.841,4.862a5.932,5.932,0,0,1-2.79,6.1l-1.928,1.159a5.932,5.932,0,0,0-2.716,3.714l-.318,1.339a5.9,5.9,0,0,1-1.883,3.11,5.934,5.934,0,0,0,6.109-4.554l.318-1.339a5.932,5.932,0,0,1,2.716-3.714l1.928-1.159a5.932,5.932,0,0,0,2.79-6.1l-.841-4.862a5.932,5.932,0,0,1,0-2.016Z" transform="translate(-186.368 -29.674)" fill="#574d56"/>
        <g id="Grupo_1109919" data-name="Grupo 1109919" transform="translate(0 11.805)">
          <path id="Trazado_901263" data-name="Trazado 901263" d="M385.79,350.9l-1.464,2.744a3.121,3.121,0,0,1-1.333,1.31l-.024.012a3.121,3.121,0,0,1-4.278-1.525,3.121,3.121,0,0,0-2.03-1.755l-.013,0a3.121,3.121,0,0,1-2.232-3.622l.226-1.129a3.121,3.121,0,0,1,3.47-2.481l1.239.164a3.12,3.12,0,0,0,1.039-.037l1.418-.292a3.121,3.121,0,0,1,3.63,2.2l.6,2.088A3.122,3.122,0,0,1,385.79,350.9Z" transform="translate(-338.718 -323.192)" fill="#ffab56"/>
          <path id="Trazado_901264" data-name="Trazado 901264" d="M14.767,244.889l-3.864-.012a2.01,2.01,0,0,1-1.234-3.591l.677-.531a2.01,2.01,0,0,0,.769-1.569l0-.684a2.01,2.01,0,0,1,1.573-1.949l3.142-.7a2.01,2.01,0,0,1,2.415,1.605l.145.807a2.009,2.009,0,0,0,.368.847l.539.721a2.01,2.01,0,0,1-.536,2.9l-2.917,1.843A2.009,2.009,0,0,1,14.767,244.889Z" transform="translate(-8.899 -225.347)" fill="#ffab56"/>
          <path id="Trazado_901265" data-name="Trazado 901265" d="M176.175,214.936l-.614,3.815a2.01,2.01,0,0,1-3.739.661l-.419-.751a2.01,2.01,0,0,0-1.43-1l-.675-.11a2.01,2.01,0,0,1-1.681-1.857l-.2-3.213a2.01,2.01,0,0,1,1.962-2.136l.82-.018a2.009,2.009,0,0,0,.894-.232l.8-.42a2.01,2.01,0,0,1,2.783.981l1.367,3.168A2.009,2.009,0,0,1,176.175,214.936Z" transform="translate(-151.955 -201.551)" fill="#ffab56"/>
          <path id="Trazado_901266" data-name="Trazado 901266" d="M347.6,133.411l-1.036,1.629a2.429,2.429,0,0,1-1.093.929l-.654.28a2.43,2.43,0,0,1-2.942-.83l-.681-.962a2.43,2.43,0,0,0-.845-.744l-.856-.454A2.43,2.43,0,0,1,340.9,128.7l1.648.183a2.428,2.428,0,0,0,.682-.021l1.524-.264a2.43,2.43,0,0,1,2.714,1.609l.381,1.116A2.43,2.43,0,0,1,347.6,133.411Z" transform="translate(-306.088 -128.56)" fill="#ffab56"/>
        </g>
      </g>
      <g id="Grupo_1109921" data-name="Grupo 1109921" transform="translate(1.395 0.003)">
        <path id="Trazado_901267" data-name="Trazado 901267" d="M50.955,18.278a6.664,6.664,0,0,0-.365-3.566l-.322-.82a.731.731,0,1,0-1.361.535l.322.82a5.2,5.2,0,0,1,.285,2.783L48.26,25.324a6.647,6.647,0,0,0,0,2.265l.841,4.861a5.207,5.207,0,0,1-.064,2.083,3.874,3.874,0,0,0-3.968-1.617l-1.418.292a2.376,2.376,0,0,1-.8.028l-1.239-.164a3.862,3.862,0,0,0-4.283,3.063l-.226,1.129a3.865,3.865,0,0,0,2.753,4.47l.015,0a2.38,2.38,0,0,1,1.554,1.343q.079.18.174.349l-.245,1.033a5.2,5.2,0,0,1-6.5,3.795l-2.926-.846a6.631,6.631,0,0,0-3.986.089l-1.848.625a5.214,5.214,0,0,1-6.335-2.635l-1.206-2.458A6.679,6.679,0,0,0,15.32,39.9l-3.977-1.8a5.172,5.172,0,0,1-2.9-3.477L7.99,32.812H8a2.737,2.737,0,0,0,1.464-.424l2.917-1.843a2.741,2.741,0,0,0,.731-3.958l-.539-.721a1.285,1.285,0,0,1-.234-.539l-.145-.807A2.741,2.741,0,0,0,8.9,22.331l-1.471.328L8,18.883a5.207,5.207,0,0,1,2.81-3.876l4.916-2.468a6.669,6.669,0,0,0,2.586-2.307l2.478-3.786A5.224,5.224,0,0,1,24.813,4.1l3.694-.232a5.219,5.219,0,0,1,2.477.456L36.336,6.76a6.627,6.627,0,0,0,2.613.6l3.779.082a5.188,5.188,0,0,1,4.728,3.3l.405,1.032a.731.731,0,0,0,1.361-.535L48.817,10.2a6.654,6.654,0,0,0-2.365-3.015l.356-.9A2.362,2.362,0,0,0,45.433,3.2l-1.294-.479a.9.9,0,0,1-.445-.358l-.818-1.274A2.37,2.37,0,0,0,40.767.006l-4,.205a4.6,4.6,0,0,0-3.427,1.8L32.328,3.332,31.589,3a6.686,6.686,0,0,0-3.174-.584l-3.694.232A6.687,6.687,0,0,0,21.1,4c-.082-.02-.008-.009-3.3-.309a2.268,2.268,0,0,1-.826-.238L16.08,3a3.748,3.748,0,0,0-4.63,1.015,2.269,2.269,0,0,1-1.423.837l-.613.1a3.745,3.745,0,0,0-1.705.747.731.731,0,1,0,.9,1.152,2.278,2.278,0,0,1,1.037-.455l.613-.1A3.728,3.728,0,0,0,12.6,4.918,2.281,2.281,0,0,1,15.417,4.3l.893.455a3.721,3.721,0,0,0,1.357.392l2.109.192q-.111.15-.213.306L17.085,9.432a5.206,5.206,0,0,1-2.018,1.8L10.151,13.7a6.644,6.644,0,0,0-1.044.652L7.725,11.445a2.27,2.27,0,0,1-.2-1.262l.149-1.178A.731.731,0,0,0,6.22,8.822L6.071,10A3.73,3.73,0,0,0,6.4,12.074L8,15.421A6.666,6.666,0,0,0,6.55,18.666L5.9,23l-.141.031A2.728,2.728,0,0,0,3.614,25.69l0,.684a1.272,1.272,0,0,1-.489,1l-.677.531a2.741,2.741,0,0,0,1.684,4.9l2.353.008.542,2.171a6.647,6.647,0,0,0,1.52,2.857,12.787,12.787,0,0,0-2.309,4.8,2.962,2.962,0,0,0,2.148,3.491,1.513,1.513,0,0,1,1.081,1.1l.006.026a2.937,2.937,0,0,0,2.122,2.166,3.044,3.044,0,0,0,.786.1,2.935,2.935,0,0,0,2.133-.923l.251-.263A.731.731,0,0,0,13.7,47.328l-.251.263a1.513,1.513,0,0,1-2.564-.685l-.006-.026a2.974,2.974,0,0,0-2.126-2.167,1.5,1.5,0,0,1-1.095-1.766,11.244,11.244,0,0,1,1.981-4.139,6.743,6.743,0,0,0,1.1.625l3.977,1.8A5.214,5.214,0,0,1,17.24,43.68l1.176,2.4-1.552.123a.731.731,0,0,0,.057,1.46l.059,0,2.334-.186a6.686,6.686,0,0,0,7.249,2.042l1.848-.625a5.176,5.176,0,0,1,3.111-.07l2.926.846a6.705,6.705,0,0,0,1.865.266A6.675,6.675,0,0,0,42.782,44.8l.018-.074a3.916,3.916,0,0,0,2.162.661,3.834,3.834,0,0,0,1.749-.425l.024-.012a3.833,3.833,0,0,0,1.645-1.616l1.465-2.744a3.834,3.834,0,0,0,.3-2.875l-.334-1.166a6.684,6.684,0,0,0,.728-4.349L49.7,27.34a5.187,5.187,0,0,1,0-1.768ZM34.5,2.9a3.144,3.144,0,0,1,2.34-1.232l4-.205a.9.9,0,0,1,.8.413l.818,1.274a2.376,2.376,0,0,0,1.168.94l1.294.479a.9.9,0,0,1,.524,1.176l-.289.726a6.674,6.674,0,0,0-2.4-.5l-3.778-.082a5.172,5.172,0,0,1-2.04-.465L33.695,3.952ZM3.427,31.122a1.278,1.278,0,0,1-.079-2.069l.677-.531a2.727,2.727,0,0,0,1.049-2.14l0-.684a1.272,1.272,0,0,1,1-1.24l3.142-.7a1.293,1.293,0,0,1,.281-.031,1.28,1.28,0,0,1,1.255,1.052l.145.807a2.757,2.757,0,0,0,.5,1.155l.539.721a1.278,1.278,0,0,1-.341,1.846L8.684,31.152a1.321,1.321,0,0,1-.687.2l-3.864-.012a1.274,1.274,0,0,1-.706-.215ZM48.554,39.9,47.09,42.647a2.379,2.379,0,0,1-1.021,1l-.024.012a2.39,2.39,0,0,1-3.276-1.167,3.836,3.836,0,0,0-2.5-2.165l-.015,0a2.4,2.4,0,0,1-1.709-2.773l.226-1.129a2.389,2.389,0,0,1,2.657-1.9l1.239.164a3.844,3.844,0,0,0,1.283-.046l1.418-.292a2.4,2.4,0,0,1,2.779,1.682l.6,2.088a2.377,2.377,0,0,1-.189,1.784Z" transform="translate(-1.395 -0.003)"/>
        <path id="Trazado_901268" data-name="Trazado 901268" d="M338.317,130.147l.654-.28a3.148,3.148,0,0,0,1.422-1.209l1.036-1.629a3.146,3.146,0,0,0,.324-2.719l-.381-1.116a3.148,3.148,0,0,0-3.53-2.093l-1.525.264a1.687,1.687,0,0,1-.477.014l-1.648-.183a3.162,3.162,0,0,0-1.83,5.935l.856.454a1.707,1.707,0,0,1,.591.52l.681.962a3.178,3.178,0,0,0,2.592,1.333A3.13,3.13,0,0,0,338.317,130.147Zm-2.633-1.925L335,127.26a3.176,3.176,0,0,0-1.1-.967l-.856-.454a1.7,1.7,0,0,1,.8-3.2c.145,0,.095,0,1.834.193a3.162,3.162,0,0,0,.888-.027l1.524-.263a1.69,1.69,0,0,1,1.9,1.125l.381,1.116a1.69,1.69,0,0,1-.174,1.461h0l-1.036,1.629a1.693,1.693,0,0,1-.764.65l-.654.28A1.707,1.707,0,0,1,335.684,128.222Z" transform="translate(-298.57 -109.249)"/>
        <path id="Trazado_901269" data-name="Trazado 901269" d="M170.129,208.294a2.737,2.737,0,0,0-.189-1.521l-1.367-3.168a2.741,2.741,0,0,0-3.8-1.339l-.8.42a1.285,1.285,0,0,1-.568.147l-.82.018a2.741,2.741,0,0,0-2.675,2.913l.2,3.213a2.728,2.728,0,0,0,2.293,2.533l.675.111a1.272,1.272,0,0,1,.91.638l.419.751a2.741,2.741,0,0,0,5.1-.9Zm-1.444-.232-.614,3.815a1.278,1.278,0,0,1-2.379.42l-.419-.751a2.727,2.727,0,0,0-1.95-1.369l-.675-.111a1.272,1.272,0,0,1-1.069-1.181l-.2-3.213a1.278,1.278,0,0,1,1.248-1.358l.82-.018a2.754,2.754,0,0,0,1.219-.316l.8-.42a1.279,1.279,0,0,1,1.771.624l1.367,3.168A1.278,1.278,0,0,1,168.685,208.062Z" transform="translate(-144.454 -182.258)"/>
        <path id="Trazado_901270" data-name="Trazado 901270" d="M118.491,67.085v-.644a.731.731,0,1,0-1.463,0v.644a.731.731,0,0,0,1.463,0Z" transform="translate(-105.752 -59.303)"/>
        <path id="Trazado_901271" data-name="Trazado 901271" d="M63.821,272.958v-.644a.731.731,0,0,0-1.463,0v.644a.731.731,0,1,0,1.463,0Z" transform="translate(-56.413 -245.101)"/>
        <path id="Trazado_901272" data-name="Trazado 901272" d="M437.906,383.215a.731.731,0,0,0-.731.731v.644a.731.731,0,1,0,1.463,0v-.644A.731.731,0,0,0,437.906,383.215Z" transform="translate(-394.681 -345.847)"/>
        <path id="Trazado_901273" data-name="Trazado 901273" d="M89.758,89.583l.687.258a.731.731,0,0,0,.514-1.37l-.687-.258a.731.731,0,0,0-.514,1.37Z" transform="translate(-80.713 -79.569)"/>
        <path id="Trazado_901274" data-name="Trazado 901274" d="M114.492,439.186a.731.731,0,0,0-.513,1.37l.687.258a.731.731,0,1,0,.513-1.37Z" transform="translate(-102.572 -396.318)"/>
        <path id="Trazado_901275" data-name="Trazado 901275" d="M251.207,90.056a.731.731,0,0,0,.515-1.251L250.2,87.294l.739-1.059a.731.731,0,0,0-1.2-.837l-1.092,1.564a.731.731,0,0,0,.085.938l1.963,1.944A.728.728,0,0,0,251.207,90.056Z" transform="translate(-224.416 -76.789)"/>
        <path id="Trazado_901276" data-name="Trazado 901276" d="M361.047,253.027l-1.546,1.245a.731.731,0,0,0-.273.57v1.846a.731.731,0,1,0,1.463,0v-1.5l1.273-1.026a.731.731,0,0,0-.918-1.139Z" transform="translate(-324.336 -228.208)"/>
        <path id="Trazado_901277" data-name="Trazado 901277" d="M228.283,394.307a.731.731,0,0,0-.731-.731h-2.344a.731.731,0,0,0,0,1.463h2.344A.731.731,0,0,0,228.283,394.307Z" transform="translate(-202.724 -355.198)"/>
        <path id="Trazado_901278" data-name="Trazado 901278" d="M325.172,420.271a.731.731,0,0,0,.731-.731v-1.245a.731.731,0,0,0-1.463,0v1.245A.731.731,0,0,0,325.172,420.271Z" transform="translate(-292.94 -376.846)"/>
        <path id="Trazado_901279" data-name="Trazado 901279" d="M136.466,328.137l-.429.877a.731.731,0,1,0,1.314.643l.429-.877a.731.731,0,0,0-1.314-.643Z" transform="translate(-122.84 -295.77)"/>
        <path id="Trazado_901280" data-name="Trazado 901280" d="M162.087,158.77a.731.731,0,1,0,0-1.463h-1.444a.731.731,0,0,0,0,1.463Z" transform="translate(-144.455 -141.968)"/>
        <path id="Trazado_901281" data-name="Trazado 901281" d="M434.957,226.631a.731.731,0,1,0,1.125-.935l-.258-.31a.731.731,0,1,0-1.125.935Z" transform="translate(-392.294 -203.17)"/>
        <path id="Trazado_901282" data-name="Trazado 901282" d="M290.823,184.674a.732.732,0,0,0,.715-.583l.258-1.245a.731.731,0,1,0-1.432-.3l-.258,1.245a.731.731,0,0,0,.568.864A.741.741,0,0,0,290.823,184.674Z" transform="translate(-261.94 -164.222)"/>
        <path id="Trazado_901283" data-name="Trazado 901283" d="M120.551,186.221v.9a.731.731,0,0,0,1.463,0v-.9a.731.731,0,0,0-1.463,0Z" transform="translate(-108.932 -167.403)"/>
        <path id="Trazado_901284" data-name="Trazado 901284" d="M292.987,296.024a.732.732,0,0,0,1.032-.074l1.093-1.263a.731.731,0,0,0,.169-.593l-.363-2.3a.731.731,0,1,0-1.445.228l.31,1.966-.871,1.006A.732.732,0,0,0,292.987,296.024Z" transform="translate(-264.325 -262.783)"/>
        <path id="Trazado_901285" data-name="Trazado 901285" d="M244.743,432.726a.731.731,0,0,0,.956-.394l.411-.988a.731.731,0,1,0-1.35-.562l-.411.988A.731.731,0,0,0,244.743,432.726Z" transform="translate(-220.607 -388.369)"/>
        <path id="Trazado_901286" data-name="Trazado 901286" d="M416.148,281.4a.731.731,0,0,0,1.132-.926l-.387-.472a.731.731,0,1,0-1.132.926Z" transform="translate(-375.207 -252.452)"/>
        <path id="Trazado_901287" data-name="Trazado 901287" d="M315.473,74.163a.731.731,0,0,0,.367-1.364l-.667-.387a.731.731,0,1,0-.733,1.266l.667.387A.727.727,0,0,0,315.473,74.163Z" transform="translate(-283.585 -65.262)"/>
      </g>
    </g>
  </g>
</svg>
