<svg xmlns="http://www.w3.org/2000/svg" width="190" height="108" viewBox="0 0 190 108">
  <g id="Grupo_1109924" data-name="Grupo 1109924" transform="translate(-1020.051 -2873)">
    <rect id="Rectángulo_402367" data-name="Rectángulo 402367" width="190" height="87" rx="11" transform="translate(1020.051 2884)" fill="#fec8b0"/>
    <g id="cobre" transform="translate(1044.293 2873)">
      <g id="Grupo_1109923" data-name="Grupo 1109923" transform="translate(23.34 1.582)">
        <path id="Trazado_901338" data-name="Trazado 901338" d="M204.819,14.5H134.328a1.678,1.678,0,0,1-1.678-1.678V9.178A1.678,1.678,0,0,1,134.328,7.5h70.491A1.678,1.678,0,0,1,206.5,9.178v3.645A1.678,1.678,0,0,1,204.819,14.5Z" transform="translate(-110.841 -7.5)" fill="#6c5e69"/>
        <path id="Trazado_901339" data-name="Trazado 901339" d="M454.855,7.5h-5.328A1.678,1.678,0,0,1,451.2,9.178v3.645a1.678,1.678,0,0,1-1.678,1.678h5.328a1.678,1.678,0,0,0,1.678-1.678V9.178A1.678,1.678,0,0,0,454.855,7.5Z" transform="translate(-360.877 -7.5)" fill="#574d56"/>
        <path id="Trazado_901340" data-name="Trazado 901340" d="M204.819,478.313H134.328a1.678,1.678,0,0,1-1.678-1.678v-3.645a1.678,1.678,0,0,1,1.678-1.678h70.491a1.678,1.678,0,0,1,1.678,1.678v3.645A1.678,1.678,0,0,1,204.819,478.313Z" transform="translate(-110.841 -373.478)" fill="#6c5e69"/>
        <path id="Trazado_901341" data-name="Trazado 901341" d="M454.855,471.313h-5.328a1.678,1.678,0,0,1,1.678,1.678v3.645a1.678,1.678,0,0,1-1.678,1.678h5.328a1.678,1.678,0,0,0,1.678-1.678v-3.645A1.678,1.678,0,0,0,454.855,471.313Z" transform="translate(-360.877 -373.478)" fill="#574d56"/>
        <path id="Trazado_901342" data-name="Trazado 901342" d="M178.556,40.687h54.48v90.834h-54.48Z" transform="translate(-147.064 -33.687)" fill="#ffd3a3"/>
        <path id="Trazado_901343" data-name="Trazado 901343" d="M178.556,63.145h54.48V144.5h-54.48Z" transform="translate(-147.064 -51.407)" fill="#ffe6c2"/>
        <path id="Trazado_901344" data-name="Trazado 901344" d="M213.205,95.684H152.151a2.893,2.893,0,1,1,0-5.787h61.054a2.893,2.893,0,1,1,0,5.787Z" transform="translate(-123.946 -72.517)" fill="#d07d62"/>
        <path id="Trazado_901345" data-name="Trazado 901345" d="M213.205,123.117H152.151a2.893,2.893,0,0,1,0-5.787h61.054a2.893,2.893,0,1,1,0,5.787Z" transform="translate(-123.946 -94.163)" fill="#be6a4f"/>
        <path id="Trazado_901346" data-name="Trazado 901346" d="M213.205,150.551H152.151a2.893,2.893,0,1,1,0-5.787h61.054a2.893,2.893,0,1,1,0,5.787Z" transform="translate(-123.946 -115.81)" fill="#d07d62"/>
        <path id="Trazado_901347" data-name="Trazado 901347" d="M213.205,177.984H152.151a2.893,2.893,0,1,1,0-5.787h61.054a2.893,2.893,0,1,1,0,5.787Z" transform="translate(-123.946 -137.456)" fill="#be6a4f"/>
        <path id="Trazado_901348" data-name="Trazado 901348" d="M213.205,205.417H152.151a2.893,2.893,0,1,1,0-5.787h61.054a2.893,2.893,0,1,1,0,5.787Z" transform="translate(-123.946 -159.103)" fill="#d07d62"/>
        <path id="Trazado_901349" data-name="Trazado 901349" d="M213.205,232.851H152.151a2.893,2.893,0,0,1,0-5.787h61.054a2.893,2.893,0,1,1,0,5.787Z" transform="translate(-123.946 -180.75)" fill="#be6a4f"/>
        <path id="Trazado_901350" data-name="Trazado 901350" d="M213.205,260.284H152.151a2.893,2.893,0,1,1,0-5.787h61.054a2.893,2.893,0,1,1,0,5.787Z" transform="translate(-123.946 -202.396)" fill="#d07d62"/>
        <path id="Trazado_901351" data-name="Trazado 901351" d="M213.205,287.717H152.151a2.893,2.893,0,0,1,0-5.787h61.054a2.893,2.893,0,1,1,0,5.787Z" transform="translate(-123.946 -224.043)" fill="#be6a4f"/>
        <path id="Trazado_901352" data-name="Trazado 901352" d="M213.205,315.151H152.151a2.893,2.893,0,0,1,0-5.787h61.054a2.893,2.893,0,1,1,0,5.787Z" transform="translate(-123.946 -245.69)" fill="#d07d62"/>
        <path id="Trazado_901353" data-name="Trazado 901353" d="M213.205,342.584H152.151a2.893,2.893,0,1,1,0-5.787h61.054a2.893,2.893,0,1,1,0,5.787Z" transform="translate(-123.946 -267.336)" fill="#be6a4f"/>
        <path id="Trazado_901354" data-name="Trazado 901354" d="M213.205,370.017H152.151a2.893,2.893,0,1,1,0-5.787h61.054a2.893,2.893,0,1,1,0,5.787Z" transform="translate(-123.946 -288.983)" fill="#d07d62"/>
        <path id="Trazado_901355" data-name="Trazado 901355" d="M118.517,397.451H32.151a2.893,2.893,0,1,1,0-5.787h86.366a2.893,2.893,0,1,1,0,5.787Z" transform="translate(-29.258 -310.63)" fill="#be6a4f"/>
      </g>
      <path id="Trazado_901356" data-name="Trazado 901356" d="M117.318,10.164a3.264,3.264,0,0,0,3.26-3.26V3.26A3.264,3.264,0,0,0,117.318,0H58.847a1.582,1.582,0,0,0,0,3.164h58.471a.1.1,0,0,1,.1.1V6.9a.1.1,0,0,1-.1.1H46.827a.1.1,0,0,1-.1-.1V3.26a.1.1,0,0,1,.1-.1h5.9A1.582,1.582,0,1,0,52.73,0h-5.9a3.264,3.264,0,0,0-3.26,3.26V6.9a3.264,3.264,0,0,0,3.26,3.26H53.25V17.38h-1.7a4.473,4.473,0,0,0-3.412,7.369,4.468,4.468,0,0,0,0,5.787,4.467,4.467,0,0,0,0,5.787,4.468,4.468,0,0,0,0,5.787,4.468,4.468,0,0,0,0,5.787,4.468,4.468,0,0,0,0,5.787,4.467,4.467,0,0,0,0,5.787,4.468,4.468,0,0,0,0,5.787,4.468,4.468,0,0,0,0,5.787,4.468,4.468,0,0,0,0,5.787,4.472,4.472,0,0,0-.868,4.2H26.233a4.475,4.475,0,0,0,0,8.951H53.25v7.85H46.827a3.264,3.264,0,0,0-3.26,3.26v3.645a3.264,3.264,0,0,0,3.26,3.26h8.127a1.582,1.582,0,0,0,0-3.164H46.827a.1.1,0,0,1-.1-.1V101.1a.1.1,0,0,1,.1-.1h70.491a.1.1,0,0,1,.1.1v3.645a.1.1,0,0,1-.1.1H61.071a1.582,1.582,0,0,0,0,3.164h56.247a3.264,3.264,0,0,0,3.26-3.26V101.1a3.264,3.264,0,0,0-3.26-3.26h-6.423v-7.85h1.7a4.473,4.473,0,0,0,3.412-7.369,4.467,4.467,0,0,0,0-5.787,4.467,4.467,0,0,0,0-5.787,4.467,4.467,0,0,0,0-5.787,4.467,4.467,0,0,0,0-5.787,4.467,4.467,0,0,0,0-5.787,4.467,4.467,0,0,0,0-5.787,4.467,4.467,0,0,0,0-5.787,4.467,4.467,0,0,0,0-5.787,4.467,4.467,0,0,0,0-5.787,4.467,4.467,0,0,0,0-5.787A4.473,4.473,0,0,0,112.6,17.38h-1.7V10.164Zm-3.407,17.478a1.313,1.313,0,0,1-1.311,1.311H51.545a1.311,1.311,0,0,1,0-2.623H112.6A1.313,1.313,0,0,1,113.911,27.643Zm0,5.787A1.313,1.313,0,0,1,112.6,34.74H51.545a1.311,1.311,0,0,1,0-2.623H112.6A1.313,1.313,0,0,1,113.911,33.429Zm0,5.787a1.313,1.313,0,0,1-1.311,1.311H51.545a1.311,1.311,0,0,1,0-2.623H112.6A1.313,1.313,0,0,1,113.911,39.216Zm0,5.787a1.313,1.313,0,0,1-1.311,1.311H51.545a1.311,1.311,0,0,1,0-2.623H112.6A1.313,1.313,0,0,1,113.911,45Zm0,5.787A1.313,1.313,0,0,1,112.6,52.1H51.545a1.311,1.311,0,0,1,0-2.623H112.6A1.313,1.313,0,0,1,113.911,50.789Zm0,5.787a1.313,1.313,0,0,1-1.311,1.311H51.545a1.311,1.311,0,0,1,0-2.623H112.6A1.313,1.313,0,0,1,113.911,56.576Zm0,5.786a1.313,1.313,0,0,1-1.311,1.311H51.545a1.311,1.311,0,0,1,0-2.623H112.6A1.313,1.313,0,0,1,113.911,62.363Zm0,5.787a1.313,1.313,0,0,1-1.311,1.311H51.545a1.311,1.311,0,0,1,0-2.623H112.6A1.313,1.313,0,0,1,113.911,68.149Zm0,5.787a1.313,1.313,0,0,1-1.311,1.311H51.545a1.311,1.311,0,0,1,0-2.623H112.6A1.313,1.313,0,0,1,113.911,73.936ZM50.234,79.723a1.313,1.313,0,0,1,1.311-1.311H112.6a1.311,1.311,0,1,1,0,2.623H51.545A1.313,1.313,0,0,1,50.234,79.723Zm62.365,7.1H101a1.582,1.582,0,1,0,0,3.164h6.726v7.85H56.414v-7.85H94.887a1.582,1.582,0,0,0,0-3.164H26.233a1.311,1.311,0,0,1,0-2.623H112.6a1.311,1.311,0,0,1,0,2.623Zm1.311-64.965a1.313,1.313,0,0,1-1.311,1.311H51.545a1.311,1.311,0,0,1,0-2.623H112.6A1.313,1.313,0,0,1,113.911,21.856Zm-6.18-4.475H56.414V10.164h51.316Z"/>
    </g>
  </g>
</svg>
