<svg xmlns="http://www.w3.org/2000/svg" width="178" height="161" viewBox="0 0 178 161">
  <g id="Grupo_1109941" data-name="Grupo 1109941" transform="translate(-213.051 -4725)">
    <rect id="Rectángulo_402377" data-name="Rectángulo 402377" width="178" height="161" rx="6" transform="translate(213.051 4725)" fill="#fff"/>
    <g id="magnesio" transform="translate(236.051 4739)">
      <g id="Grupo_1109931" data-name="Grupo 1109931" transform="translate(1.938 1.938)">
        <g id="Grupo_1109927" data-name="Grupo 1109927">
          <path id="Trazado_901357" data-name="Trazado 901357" d="M121.686,135.894H21.709A14.209,14.209,0,0,1,7.5,121.686V21.709A14.209,14.209,0,0,1,21.709,7.5h99.977a14.209,14.209,0,0,1,14.209,14.209v99.977A14.209,14.209,0,0,1,121.686,135.894Z" transform="translate(-7.5 -7.5)" fill="#ffc344"/>
        </g>
        <g id="Grupo_1109928" data-name="Grupo 1109928" transform="translate(0.092 0.092)">
          <path id="Trazado_901358" data-name="Trazado 901358" d="M123.548,7.856V30.6A92.944,92.944,0,0,1,30.6,123.549H7.855a14.209,14.209,0,0,0,14.117,12.61h99.977a14.209,14.209,0,0,0,14.209-14.209V21.973A14.209,14.209,0,0,0,123.548,7.856Z" transform="translate(-7.855 -7.856)" fill="#f6ab31"/>
        </g>
        <g id="Grupo_1109929" data-name="Grupo 1109929" transform="translate(12.61 12.61)">
          <path id="Trazado_901359" data-name="Trazado 901359" d="M158.453,155.611l-2.842,2.842-89.069,1.033H60.186a3.875,3.875,0,0,1-3.875-3.875V60.186a3.875,3.875,0,0,1,3.875-3.875h95.425a3.875,3.875,0,0,1,3.875,3.875v6.356Z" transform="translate(-56.311 -56.311)" fill="#fff0ad"/>
        </g>
        <g id="Grupo_1109930" data-name="Grupo 1109930" transform="translate(22.841 22.841)">
          <path id="Trazado_901360" data-name="Trazado 901360" d="M95.913,188.857h89.069a3.875,3.875,0,0,0,3.875-3.875V95.913A92.944,92.944,0,0,1,95.913,188.857Z" transform="translate(-95.913 -95.913)" fill="#ffe177"/>
        </g>
      </g>
      <g id="Grupo_1109940" data-name="Grupo 1109940">
        <g id="Grupo_1109932" data-name="Grupo 1109932">
          <path id="Trazado_901361" data-name="Trazado 901361" d="M116.123,132.27H16.146A16.165,16.165,0,0,1,0,116.123V62.74a1.938,1.938,0,0,1,3.875,0v53.383a12.285,12.285,0,0,0,12.271,12.271h99.977a12.285,12.285,0,0,0,12.271-12.271V16.146A12.285,12.285,0,0,0,116.123,3.875H16.146A12.285,12.285,0,0,0,3.875,16.146V54.99A1.938,1.938,0,0,1,0,54.99V16.146A16.165,16.165,0,0,1,16.146,0h99.977A16.165,16.165,0,0,1,132.27,16.146v99.977A16.165,16.165,0,0,1,116.123,132.27Z"/>
        </g>
        <g id="Grupo_1109933" data-name="Grupo 1109933" transform="translate(12.61 12.61)">
          <path id="Trazado_901362" data-name="Trazado 901362" d="M150.048,155.861H54.624a5.819,5.819,0,0,1-5.813-5.813V54.624a5.819,5.819,0,0,1,5.813-5.813h95.425a5.819,5.819,0,0,1,5.813,5.813V127a1.938,1.938,0,0,1-3.875,0V54.624a1.94,1.94,0,0,0-1.938-1.938H54.624a1.94,1.94,0,0,0-1.938,1.938v95.425a1.94,1.94,0,0,0,1.938,1.938h95.425a1.94,1.94,0,0,0,1.938-1.938V134.755a1.938,1.938,0,1,1,3.875,0v15.294A5.819,5.819,0,0,1,150.048,155.861Z" transform="translate(-48.811 -48.811)"/>
        </g>
        <path id="Trazado_901363" data-name="Trazado 901363" d="M164.4,206.265a2.7,2.7,0,0,0-5.209-.294c-.007.022-.014.044-.02.067L151,234.7l-8.463-28.687c-.007-.023-.014-.046-.021-.068a2.7,2.7,0,0,0-5.21.371l-5.914,32.766a1.938,1.938,0,0,0,3.814.688l5.03-27.868,8.207,27.817c.007.023.014.046.021.068a2.693,2.693,0,0,0,2.557,1.839h.014a2.693,2.693,0,0,0,2.552-1.865c.007-.022.014-.044.02-.067l7.926-27.8,5.332,27.9a1.937,1.937,0,1,0,3.806-.727Z" transform="translate(-97.423 -151.378)"/>
        <g id="Grupo_1109934" data-name="Grupo 1109934" transform="translate(76.262 68.324)">
          <path id="Trazado_901364" data-name="Trazado 901364" d="M317.27,287.659V266.411a1.938,1.938,0,0,0-3.875,0v.709a11.036,11.036,0,1,0,0,16.779s0,3.073,0,3.865a10.136,10.136,0,0,1-.657,3.6,5.017,5.017,0,0,1-4.863,3.41c-4.368.181-6.361-1.422-6.735-1.764a1.943,1.943,0,0,0-3.436,1.644,2.847,2.847,0,0,0,.8,1.2,9.624,9.624,0,0,0,2.185,1.453,14.966,14.966,0,0,0,6.527,1.36c.269,0,.541-.006.815-.017a8.885,8.885,0,0,0,8.306-5.854A14.108,14.108,0,0,0,317.27,287.659Zm-11.034-4.989a7.161,7.161,0,1,1,7.159-7.256A7.332,7.332,0,0,1,306.236,282.67Z" transform="translate(-295.2 -264.473)"/>
        </g>
        <g id="Grupo_1109935" data-name="Grupo 1109935" transform="translate(28.547 28.147)">
          <path id="Trazado_901365" data-name="Trazado 901365" d="M129.325,112.829H112.44a1.938,1.938,0,1,1,0-3.875h16.885a1.938,1.938,0,1,1,0,3.875Z" transform="translate(-110.502 -108.954)"/>
        </g>
        <g id="Grupo_1109936" data-name="Grupo 1109936" transform="translate(28.547 100.247)">
          <path id="Trazado_901366" data-name="Trazado 901366" d="M117.608,391.921H112.44a1.938,1.938,0,1,1,0-3.875h5.168a1.938,1.938,0,1,1,0,3.875Z" transform="translate(-110.502 -388.046)"/>
        </g>
        <g id="Grupo_1109937" data-name="Grupo 1109937" transform="translate(28.547 37.539)">
          <path id="Trazado_901367" data-name="Trazado 901367" d="M117.608,149.185H112.44a1.938,1.938,0,1,1,0-3.875h5.168a1.938,1.938,0,1,1,0,3.875Z" transform="translate(-110.502 -145.31)"/>
        </g>
        <g id="Grupo_1109938" data-name="Grupo 1109938" transform="translate(80.524 25.129)">
          <path id="Trazado_901368" data-name="Trazado 901368" d="M317.058,117.151a1.938,1.938,0,0,1-1.938-1.938V101.148h-1.483a1.938,1.938,0,1,1,0-3.875h3.421A1.938,1.938,0,0,1,319,99.211v16A1.938,1.938,0,0,1,317.058,117.151Z" transform="translate(-311.7 -97.273)"/>
        </g>
        <g id="Grupo_1109939" data-name="Grupo 1109939" transform="translate(92.334 24.973)">
          <path id="Trazado_901369" data-name="Trazado 901369" d="M362.972,116.862c-3.1,0-3.334-.079-3.594-.166a2.01,2.01,0,0,1-1.306-1.324c-.328-1.066.173-1.722,1.171-3.029.812-1.063,2.324-3.043,4.857-6.662a8.772,8.772,0,0,0,1.381-2.715l.047-.371a2.158,2.158,0,0,0-4.272-.316,1.938,1.938,0,1,1-3.8-.747A6.033,6.033,0,0,1,369.4,102.7a1.906,1.906,0,0,1-.016.245l-.079.619q-.012.1-.034.192a12.276,12.276,0,0,1-2,4.147c-1.585,2.265-2.779,3.9-3.657,5.079,1.369,0,2.981-.017,4.5-.036a1.938,1.938,0,0,1,.049,3.875C365.87,116.85,364.2,116.862,362.972,116.862Z" transform="translate(-357.416 -96.666)"/>
        </g>
      </g>
    </g>
  </g>
</svg>
