<svg xmlns="http://www.w3.org/2000/svg" xmlns:xlink="http://www.w3.org/1999/xlink" width="1600" height="220" viewBox="0 0 1600 220">
  <defs>
    <clipPath id="clip-path">
      <path id="Recurso_1" data-name="Recurso 1" d="M0,0H1600V220H0Z" transform="translate(-10898 -13009)" fill="#fff" opacity="0.41"/>
    </clipPath>
    <linearGradient id="linear-gradient" x1="0.736" y1="-0.123" x2="0.5" y2="1" gradientUnits="objectBoundingBox">
      <stop offset="0" stop-color="#132648"/>
      <stop offset="1" stop-color="#1e3257"/>
    </linearGradient>
    <clipPath id="clip-path-2">
      <rect id="Rectángulo_402298" data-name="Rectángulo 402298" width="136.144" height="136.179" fill="#ff9503"/>
    </clipPath>
    <clipPath id="clip-path-3">
      <rect id="Rectángulo_402299" data-name="Rectángulo 402299" width="107.219" height="563.464" fill="none" stroke="#707070" stroke-width="2"/>
    </clipPath>
    <clipPath id="clip-path-4">
      <rect id="Rectángulo_402300" data-name="Rectángulo 402300" width="107.219" height="563.465" transform="translate(-0.681 -8.982)" fill="none" stroke="#707070" stroke-width="2"/>
    </clipPath>
    <clipPath id="clip-path-5">
      <rect id="Rectángulo_402301" data-name="Rectángulo 402301" width="164.994" height="165.037" fill="#ff9503" stroke="#ff9503" stroke-width="2"/>
    </clipPath>
    <clipPath id="clip-path-6">
      <rect id="Rectángulo_402302" data-name="Rectángulo 402302" width="133.916" height="270.416" fill="none"/>
    </clipPath>
  </defs>
  <g id="Enmascarar_grupo_1098713" data-name="Enmascarar grupo 1098713" transform="translate(10898 13009)" clip-path="url(#clip-path)">
    <path id="Layer_0" data-name="Layer 0" d="M24.071,0H1648.227c13.294,0,24.071,8.507,24.071,19V488c0,10.493-10.777,19-24.071,19H24.071C10.777,507,0,498.493,0,488V19C0,8.507,10.777,0,24.071,0Z" transform="translate(-10953.203 -13009)" fill="url(#linear-gradient)"/>
    <path id="Trazado_900727" data-name="Trazado 900727" d="M142.958,0c78.954,0,142.213,64.19,142.213,142.627C285.171,222.555,221.912,286,142.958,286A142.691,142.691,0,0,1,0,142.627C0,64.19,64,0,142.958,0Z" transform="translate(-11046.586 -13160)" fill="#111d57" fill-rule="evenodd"/>
    <path id="Trazado_900728" data-name="Trazado 900728" d="M142.958,0c78.954,0,142.213,64.19,142.213,142.627C285.171,222.555,221.912,286,142.958,286A142.691,142.691,0,0,1,0,142.627C0,64.19,64,0,142.958,0Z" transform="translate(-10550.955 -13161.026)" fill="#13236e" fill-rule="evenodd"/>
    <path id="Trazado_900729" data-name="Trazado 900729" d="M142.958,0c78.954,0,142.213,64.19,142.213,142.627C285.171,222.555,221.912,286,142.958,286A142.691,142.691,0,0,1,0,142.627C0,64.19,64,0,142.958,0Z" transform="translate(-9762.955 -13095.026)" fill="#13236e" fill-rule="evenodd"/>
    <path id="Trazado_900730" data-name="Trazado 900730" d="M142.958,0c78.954,0,142.213,64.19,142.213,142.627C285.171,222.555,221.912,286,142.958,286A142.691,142.691,0,0,1,0,142.627C0,64.19,64,0,142.958,0Z" transform="translate(-9739.727 -12644)" fill="#13236e" fill-rule="evenodd"/>
    <g id="Grupo_1109720" data-name="Grupo 1109720" transform="translate(-10627.027 -12575.032)">
      <g id="Grupo_1109719" data-name="Grupo 1109719" transform="translate(0 0)" clip-path="url(#clip-path-2)">
        <path id="Trazado_900731" data-name="Trazado 900731" d="M134.967,73.3h-.654V63.2L116.386,59.06l-.08-.42A48.256,48.256,0,0,0,108.767,40.4l-.241-.353,9.76-15.558-6.8-6.8L95.931,27.416l-.351-.235A49.809,49.809,0,0,0,77.3,19.639l-.419-.082-4.1-17.926H63.162L59.025,19.557l-.416.082a49.652,49.652,0,0,0-18.241,7.54l-.352.238L24.458,17.694l-6.8,6.8,9.76,15.558-.241.353A48.276,48.276,0,0,0,19.639,58.64l-.078.42L1.631,63.2v9.586l17.93,4.137.078.42a48.265,48.265,0,0,0,7.539,18.233l.241.353-9.76,15.6,6.8,6.8,15.557-9.76.353.238a49.632,49.632,0,0,0,18.241,7.542l.416.081,4.137,17.927h9.621l4.1-17.927.419-.081A49.832,49.832,0,0,0,95.58,108.8l.352-.237,15.556,9.759,6.8-6.8-9.76-15.6.241-.353a48.244,48.244,0,0,0,7.539-18.233l.08-.42,18.435-4.254.146.637h0l.148.637L117.1,78.1l-.148-.637.642.122a49.525,49.525,0,0,1-7.743,18.726l-.54-.368.555-.347,10.086,16.116-8.272,8.272L95.6,109.9l.348-.553.365.543a51.155,51.155,0,0,1-18.756,7.741l-.126-.642.638.145-4.239,18.529H62.121L57.846,117.13l.637-.146-.126.642a50.953,50.953,0,0,1-18.722-7.742l.366-.542.348.553-16.08,10.087L16,111.711,26.084,95.6l.555.347-.54.368a49.546,49.546,0,0,1-7.743-18.726L19,77.462l-.146.637L.323,73.824V62.156L18.85,57.882l.146.637-.642-.122A49.558,49.558,0,0,1,26.1,39.668l.54.369-.553.348L16,24.3l8.272-8.272,16.079,10.05L40,26.638l-.366-.543a50.973,50.973,0,0,1,18.722-7.741l.126.642-.637-.148L62.121.323H73.826L78.065,18.85,77.427,19l.126-.642A51.132,51.132,0,0,1,96.309,26.1l-.365.543-.347-.555,16.079-10.05,8.272,8.272-10.086,16.08-.555-.348.54-.369A49.537,49.537,0,0,1,117.591,58.4l-.642.122.148-.637,18.525,4.274V73.824l-.506.116ZM67.973,105.717v.654a38.363,38.363,0,1,1,38.363-38.363,38.363,38.363,0,0,1-38.363,38.363v-1.308A37.055,37.055,0,1,0,30.918,68.008a37.1,37.1,0,0,0,37.055,37.055Z" transform="translate(0.099 0.099)" fill="#ff9503"/>
      </g>
    </g>
    <path id="Trazado_900732" data-name="Trazado 900732" d="M97.3,0c53.737,0,96.791,43.689,96.791,97.074,0,54.4-43.055,97.581-96.791,97.581A97.117,97.117,0,0,1,0,97.074C0,43.689,43.562,0,97.3,0Z" transform="translate(-9655.043 -13105.327)" fill="#62c5df" fill-rule="evenodd"/>
    <path id="Trazado_900733" data-name="Trazado 900733" d="M.789,114.474a1.253,1.253,0,0,0,1.761.124L115.857,3.046a1.252,1.252,0,0,0-.1-1.763A1.253,1.253,0,0,0,114,1.16L.692,112.711A1.253,1.253,0,0,0,.789,114.474Zm9.606-18.326,78.752-77.53a1.334,1.334,0,0,0-1.857-1.887L8.537,94.261a1.252,1.252,0,0,0,.1,1.763A1.252,1.252,0,0,0,10.395,96.148ZM105.4,21.7,30.151,95.787a1.334,1.334,0,0,0,1.857,1.886l75.254-74.087A1.334,1.334,0,0,0,105.4,21.7Z" transform="translate(-9655.418 -13018.88)" fill="#e2d6c6" fill-rule="evenodd"/>
    <path id="Trazado_900734" data-name="Trazado 900734" d="M.789,114.474a1.253,1.253,0,0,0,1.761.124L115.857,3.046a1.252,1.252,0,0,0-.1-1.763A1.253,1.253,0,0,0,114,1.16L.692,112.711A1.253,1.253,0,0,0,.789,114.474Zm9.606-18.326,78.752-77.53a1.334,1.334,0,0,0-1.857-1.887L8.537,94.261a1.252,1.252,0,0,0,.1,1.763A1.252,1.252,0,0,0,10.395,96.148ZM105.4,21.7,30.151,95.787a1.334,1.334,0,0,0,1.857,1.886l75.254-74.087A1.334,1.334,0,0,0,105.4,21.7Z" transform="translate(-10944.371 -12553.88)" fill="#e2d6c6" fill-rule="evenodd" opacity="0.49"/>
    <g id="Grupo_1109722" data-name="Grupo 1109722" transform="matrix(0.035, 0.999, -0.999, 0.035, -9057.249, -12898)">
      <g id="Grupo_1109721" data-name="Grupo 1109721" clip-path="url(#clip-path-3)">
        <path id="Trazado_900735" data-name="Trazado 900735" d="M106.733,563.393c-.364-41.12-12.238-81.379-26.946-119.532C64.8,404.988,45.7,367.86,30.316,329.146,15.718,292.413,3.737,254.019.854,214.4a215.078,215.078,0,0,1,19.1-106.68c15.818-34.274,38.8-64.445,60.854-94.84Q85.41,6.532,89.951.145" transform="translate(0.118 0.069)" fill="none" stroke="#f08920" stroke-miterlimit="10" stroke-width="2"/>
      </g>
    </g>
    <g id="Grupo_1109723" data-name="Grupo 1109723" transform="matrix(0.035, -0.999, 0.999, 0.035, -10840.043, -12959.025)" clip-path="url(#clip-path-4)">
      <path id="Trazado_900736" data-name="Trazado 900736" d="M106.482,0c-.364,41.12-12.238,81.379-26.946,119.532-14.984,38.873-34.087,76-49.47,114.715C15.468,270.98,3.487,309.374.6,349a215.079,215.079,0,0,0,19.1,106.68c15.818,34.274,38.8,64.445,60.854,94.84q4.6,6.345,9.144,12.732" transform="translate(0.368 0.003)" fill="none" stroke="#f08920" stroke-miterlimit="10" stroke-width="2"/>
    </g>
    <circle id="Elipse_11514" data-name="Elipse 11514" cx="14" cy="14" r="14" transform="translate(-10868 -12574)" fill="#f6a230" opacity="0.72"/>
    <g id="Grupo_1109725" data-name="Grupo 1109725" transform="translate(-9409.531 -13089.052)">
      <g id="Grupo_1109724" data-name="Grupo 1109724" transform="translate(0 0)" clip-path="url(#clip-path-5)">
        <path id="Trazado_900737" data-name="Trazado 900737" d="M163.5,88.769h-.793V76.521l-21.726-5.014-.1-.509a58.481,58.481,0,0,0-9.137-22.1l-.292-.428,11.828-18.855-8.24-8.24L116.191,33.158l-.425-.285a60.364,60.364,0,0,0-22.151-9.14l-.507-.1L88.138,1.908H76.478L71.464,23.633l-.5.1a60.173,60.173,0,0,0-22.106,9.138l-.426.288L29.572,21.375l-8.24,8.24L33.161,48.47l-.292.428A58.507,58.507,0,0,0,23.732,71l-.1.509L1.908,76.521V88.138l21.729,5.014.1.509a58.492,58.492,0,0,0,9.137,22.1l.292.428-11.828,18.9,8.24,8.24L48.426,131.5l.428.288a60.15,60.15,0,0,0,22.106,9.14l.5.1,5.014,21.726h11.66l4.969-21.726.507-.1a60.391,60.391,0,0,0,22.151-9.14l.426-.287,18.852,11.827,8.24-8.24-11.828-18.9.292-.428a58.467,58.467,0,0,0,9.137-22.1l.1-.509L163.322,88l.178.772h0l.179.772L141.841,94.58l-.179-.772.778.147a60.02,60.02,0,0,1-9.384,22.694l-.655-.445.672-.42L145.3,135.315,135.272,145.34l-19.488-12.225.422-.671.442.658a62,62,0,0,1-22.731,9.381l-.152-.778.774.176L89.4,164.336H75.216l-5.18-22.454.772-.178-.152.778a61.75,61.75,0,0,1-22.69-9.382l.444-.656.422.671L29.344,145.34,19.319,135.315l12.223-19.531.672.42-.655.445a60.046,60.046,0,0,1-9.384-22.694l.778-.147-.178.772L.323,89.4V75.259l22.454-5.18.178.772-.778-.147a60.06,60.06,0,0,1,9.384-22.7l.655.447-.671.422L19.319,29.387,29.344,19.362,48.83,31.542l-.42.672-.444-.658a61.774,61.774,0,0,1,22.69-9.381l.152.778-.772-.179L75.216.323H89.4l5.137,22.454-.774.178.152-.778a61.968,61.968,0,0,1,22.731,9.381l-.442.658-.42-.672,19.486-12.18L145.3,29.387,133.074,48.874l-.672-.422.655-.447a60.035,60.035,0,0,1,9.384,22.7l-.778.147.179-.772,22.45,5.18V89.4l-.613.141ZM82.308,128.051v.793A46.492,46.492,0,1,1,128.8,82.351a46.492,46.492,0,0,1-46.492,46.492v-1.585A44.907,44.907,0,1,0,37.4,82.351a44.963,44.963,0,0,0,44.907,44.907Z" transform="translate(0.189 0.189)" fill="#ff9503" stroke="#ff9503" stroke-width="2"/>
      </g>
    </g>
    <path id="Trazado_900738" data-name="Trazado 900738" d="M117.918,0c65.124,0,117.3,52.947,117.3,117.644,0,65.928-52.178,118.259-117.3,118.259A117.7,117.7,0,0,1,0,117.644C0,52.947,52.794,0,117.918,0Z" transform="translate(-9415.609 -12867.903)" fill="#62c5df" fill-rule="evenodd"/>
    <g id="Grupo_1109727" data-name="Grupo 1109727" transform="matrix(0.017, 1, -1, 0.017, -10783.621, -13071.71)">
      <g id="Grupo_1109726" data-name="Grupo 1109726" clip-path="url(#clip-path-6)">
        <path id="Trazado_900739" data-name="Trazado 900739" d="M99.577,78.6,0,208.894v42.188L118.628,95.861A49.91,49.91,0,0,1,99.577,78.6" transform="translate(0 19.334)" fill="#eef8fb"/>
        <path id="Trazado_900740" data-name="Trazado 900740" d="M111.514,29.953A49.54,49.54,0,0,1,108.224,0H0V228.622L99.577,98.331l34.339-44.942a49.543,49.543,0,0,1-22.4-23.437" fill="#b0c0d2"/>
      </g>
    </g>
    <path id="Trazado_900741" data-name="Trazado 900741" d="M17,0A17,17,0,1,1,0,17,17,17,0,0,1,17,0Z" transform="translate(-10798.283 -12909.026)" fill="#62c5df"/>
    <g id="Grupo_1109729" data-name="Grupo 1109729" transform="translate(-10980.277 -12924.721)">
      <g id="Grupo_1109728" data-name="Grupo 1109728" transform="translate(0 0)" clip-path="url(#clip-path-5)">
        <path id="Trazado_900742" data-name="Trazado 900742" d="M163.5,88.769h-.793V76.521l-21.726-5.014-.1-.509a58.481,58.481,0,0,0-9.137-22.1l-.292-.428,11.828-18.855-8.24-8.24L116.191,33.158l-.425-.285a60.364,60.364,0,0,0-22.151-9.14l-.507-.1L88.138,1.908H76.478L71.464,23.633l-.5.1a60.173,60.173,0,0,0-22.106,9.138l-.426.288L29.572,21.375l-8.24,8.24L33.161,48.47l-.292.428A58.507,58.507,0,0,0,23.732,71l-.1.509L1.908,76.521V88.138l21.729,5.014.1.509a58.492,58.492,0,0,0,9.137,22.1l.292.428-11.828,18.9,8.24,8.24L48.426,131.5l.428.288a60.15,60.15,0,0,0,22.106,9.14l.5.1,5.014,21.726h11.66l4.969-21.726.507-.1a60.391,60.391,0,0,0,22.151-9.14l.426-.287,18.852,11.827,8.24-8.24-11.828-18.9.292-.428a58.467,58.467,0,0,0,9.137-22.1l.1-.509L163.322,88l.178.772h0l.179.772L141.841,94.58l-.179-.772.778.147a60.02,60.02,0,0,1-9.384,22.694l-.655-.445.672-.42L145.3,135.315,135.272,145.34l-19.488-12.225.422-.671.442.658a62,62,0,0,1-22.731,9.381l-.152-.778.774.176L89.4,164.336H75.216l-5.18-22.454.772-.178-.152.778a61.75,61.75,0,0,1-22.69-9.382l.444-.656.422.671L29.344,145.34,19.319,135.315l12.223-19.531.672.42-.655.445a60.046,60.046,0,0,1-9.384-22.694l.778-.147-.178.772L.323,89.4V75.259l22.454-5.18.178.772-.778-.147a60.06,60.06,0,0,1,9.384-22.7l.655.447-.671.422L19.319,29.387,29.344,19.362,48.83,31.542l-.42.672-.444-.658a61.774,61.774,0,0,1,22.69-9.381l.152.778-.772-.179L75.216.323H89.4l5.137,22.454-.774.178.152-.778a61.968,61.968,0,0,1,22.731,9.381l-.442.658-.42-.672,19.486-12.18L145.3,29.387,133.074,48.874l-.672-.422.655-.447a60.035,60.035,0,0,1,9.384,22.7l-.778.147.179-.772,22.45,5.18V89.4l-.613.141ZM82.308,128.051v.793A46.492,46.492,0,1,1,128.8,82.351a46.492,46.492,0,0,1-46.492,46.492v-1.585A44.907,44.907,0,1,0,37.4,82.351a44.963,44.963,0,0,0,44.907,44.907Z" transform="translate(0.189 0.189)" fill="#ff9503" stroke="#ff9503" stroke-width="2"/>
      </g>
    </g>
    <path id="Trazado_900743" data-name="Trazado 900743" d="M15.063,33.976A18.438,18.438,0,0,1,1.932,28.5a5.277,5.277,0,0,1,0-7.422,5.179,5.179,0,0,1,7.365,0,8.122,8.122,0,0,0,11.534,0,8.276,8.276,0,0,0,0-11.627,5.277,5.277,0,0,1,0-7.422,5.179,5.179,0,0,1,7.365,0,18.845,18.845,0,0,1,0,26.472A18.439,18.439,0,0,1,15.063,33.976Z" transform="translate(-9707.016 -12994.978)" fill="#8390aa" fill-rule="evenodd"/>
  </g>
</svg>
