<svg xmlns="http://www.w3.org/2000/svg" xmlns:xlink="http://www.w3.org/1999/xlink" width="1320" height="507" viewBox="0 0 1320 507">
  <defs>
    <linearGradient id="linear-gradient" x1="0.5" y1="1.14" x2="0.5" y2="1.273" gradientUnits="objectBoundingBox">
      <stop offset="0" stop-color="#061a25"/>
      <stop offset="1" stop-color="#58666d"/>
    </linearGradient>
    <linearGradient id="linear-gradient-2" x1="0.736" y1="-0.123" x2="0.5" y2="1" gradientUnits="objectBoundingBox">
      <stop offset="0" stop-color="#132648"/>
      <stop offset="1" stop-color="#1e3257"/>
    </linearGradient>
    <clipPath id="clip-path">
      <path id="Layer_0" data-name="Layer 0" d="M19,0H1301a19,19,0,0,1,19,19V488a19,19,0,0,1-19,19H19A19,19,0,0,1,0,488V19A19,19,0,0,1,19,0Z" transform="translate(-12551 -12830)" opacity="0.66" fill="url(#linear-gradient)"/>
    </clipPath>
    <clipPath id="clip-path-2">
      <rect id="Rectángulo_402181" data-name="Rectángulo 402181" width="136.144" height="136.179" fill="#ff9503" stroke="#ff9503" stroke-width="2"/>
    </clipPath>
    <clipPath id="clip-path-3">
      <rect id="Rectángulo_402185" data-name="Rectángulo 402185" width="107.48" height="217.034" fill="none"/>
    </clipPath>
    <clipPath id="clip-path-4">
      <rect id="Rectángulo_402243" data-name="Rectángulo 402243" width="107.219" height="563.464" fill="none" stroke="#707070" stroke-width="2"/>
    </clipPath>
    <clipPath id="clip-path-5">
      <rect id="Rectángulo_402244" data-name="Rectángulo 402244" width="107.219" height="563.465" transform="translate(-0.681 -8.982)" fill="none" stroke="#707070" stroke-width="2"/>
    </clipPath>
    <clipPath id="clip-path-6">
      <rect id="Rectángulo_402185-2" data-name="Rectángulo 402185" width="107.48" height="217.034" fill="#b0c0d2"/>
    </clipPath>
  </defs>
  <g id="Grupo_1109609" data-name="Grupo 1109609" transform="translate(-144.333 -70)">
    <path id="Layer_0-2" data-name="Layer 0" d="M19,0H1301a19,19,0,0,1,19,19V488a19,19,0,0,1-19,19H19A19,19,0,0,1,0,488V19A19,19,0,0,1,19,0Z" transform="translate(144.333 70)" fill="url(#linear-gradient-2)"/>
    <g id="Grupo_1098697" data-name="Grupo 1098697" transform="translate(12695.333 12900)" clip-path="url(#clip-path)">
      <path id="Trazado_900446" data-name="Trazado 900446" d="M142.958,0c78.954,0,142.213,64.19,142.213,142.627C285.171,222.555,221.912,286,142.958,286A142.691,142.691,0,0,1,0,142.627C0,64.19,64,0,142.958,0Z" transform="translate(-12617 -12942)" fill="#09275e" fill-rule="evenodd"/>
      <path id="Trazado_900469" data-name="Trazado 900469" d="M142.958,0c78.954,0,142.213,64.19,142.213,142.627C285.171,222.555,221.912,286,142.958,286A142.691,142.691,0,0,1,0,142.627C0,64.19,64,0,142.958,0Z" transform="translate(-12223.956 -12983.026)" fill="#09275e" fill-rule="evenodd"/>
      <path id="Trazado_900471" data-name="Trazado 900471" d="M142.958,0c78.954,0,142.213,64.19,142.213,142.627C285.171,222.555,221.912,286,142.958,286A142.691,142.691,0,0,1,0,142.627C0,64.19,64,0,142.958,0Z" transform="translate(-11435.956 -12917.026)" fill="#0a2048" fill-rule="evenodd"/>
      <path id="Trazado_900472" data-name="Trazado 900472" d="M142.958,0c78.954,0,142.213,64.19,142.213,142.627C285.171,222.555,221.912,286,142.958,286A142.691,142.691,0,0,1,0,142.627C0,64.19,64,0,142.958,0Z" transform="translate(-11412.729 -12466)" fill="#0a2048" fill-rule="evenodd"/>
      <path id="Trazado_900465" data-name="Trazado 900465" d="M461.406,0c254.827,0,459,160.671,459,357,0,200.064-204.171,358.868-459,358.868S0,557.065,0,357C0,160.671,206.579,0,461.406,0Z" transform="translate(-13179.788 -12525.435)" fill="#09275e" fill-rule="evenodd"/>
      <g id="Grupo_1109560" data-name="Grupo 1109560" transform="translate(-12300.028 -12397.032)">
        <g id="Grupo_1109559" data-name="Grupo 1109559" transform="translate(0 0)" clip-path="url(#clip-path-2)">
          <path id="Trazado_900450" data-name="Trazado 900450" d="M134.967,73.3h-.654V63.2L116.386,59.06l-.08-.42A48.256,48.256,0,0,0,108.767,40.4l-.241-.353,9.76-15.558-6.8-6.8L95.931,27.416l-.351-.235A49.809,49.809,0,0,0,77.3,19.639l-.419-.082-4.1-17.926H63.162L59.025,19.557l-.416.082a49.652,49.652,0,0,0-18.241,7.54l-.352.238L24.458,17.694l-6.8,6.8,9.76,15.558-.241.353A48.276,48.276,0,0,0,19.639,58.64l-.078.42L1.631,63.2v9.586l17.93,4.137.078.42a48.265,48.265,0,0,0,7.539,18.233l.241.353-9.76,15.6,6.8,6.8,15.557-9.76.353.238a49.632,49.632,0,0,0,18.241,7.542l.416.081,4.137,17.927h9.621l4.1-17.927.419-.081A49.832,49.832,0,0,0,95.58,108.8l.352-.237,15.556,9.759,6.8-6.8-9.76-15.6.241-.353a48.244,48.244,0,0,0,7.539-18.233l.08-.42,18.435-4.254.146.637h0l.148.637L117.1,78.1l-.148-.637.642.122a49.525,49.525,0,0,1-7.743,18.726l-.54-.368.555-.347,10.086,16.116-8.272,8.272L95.6,109.9l.348-.553.365.543a51.155,51.155,0,0,1-18.756,7.741l-.126-.642.638.145-4.239,18.529H62.121L57.846,117.13l.637-.146-.126.642a50.953,50.953,0,0,1-18.722-7.742l.366-.542.348.553-16.08,10.087L16,111.711,26.084,95.6l.555.347-.54.368a49.546,49.546,0,0,1-7.743-18.726L19,77.462l-.146.637L.323,73.824V62.156L18.85,57.882l.146.637-.642-.122A49.558,49.558,0,0,1,26.1,39.668l.54.369-.553.348L16,24.3l8.272-8.272,16.079,10.05L40,26.638l-.366-.543a50.973,50.973,0,0,1,18.722-7.741l.126.642-.637-.148L62.121.323H73.826L78.065,18.85,77.427,19l.126-.642A51.132,51.132,0,0,1,96.309,26.1l-.365.543-.347-.555,16.079-10.05,8.272,8.272-10.086,16.08-.555-.348.54-.369A49.537,49.537,0,0,1,117.591,58.4l-.642.122.148-.637,18.525,4.274V73.824l-.506.116ZM67.973,105.717v.654a38.363,38.363,0,1,1,38.363-38.363,38.363,38.363,0,0,1-38.363,38.363v-1.308A37.055,37.055,0,1,0,30.918,68.008a37.1,37.1,0,0,0,37.055,37.055Z" transform="translate(0.099 0.099)" fill="#ff9503" stroke="#ff9503" stroke-width="2"/>
        </g>
      </g>
      <path id="Trazado_900451" data-name="Trazado 900451" d="M97.3,0c53.737,0,96.791,43.689,96.791,97.074,0,54.4-43.055,97.581-96.791,97.581A97.117,97.117,0,0,1,0,97.074C0,43.689,43.562,0,97.3,0Z" transform="translate(-11328.045 -12927.327)" fill="#f6a230" fill-rule="evenodd"/>
      <path id="Trazado_900726" data-name="Trazado 900726" d="M97.3,0c53.737,0,96.791,43.689,96.791,97.074,0,54.4-43.055,97.581-96.791,97.581A97.117,97.117,0,0,1,0,97.074C0,43.689,43.562,0,97.3,0Z" transform="translate(-12695.333 -12656)" fill="#62c5df" fill-rule="evenodd"/>
      <g id="Grupo_1109572" data-name="Grupo 1109572" transform="translate(-12588.74 -12851)">
        <g id="Grupo_1109572-2" data-name="Grupo 1109572" clip-path="url(#clip-path-3)">
          <path id="Trazado_900463" data-name="Trazado 900463" d="M79.92,78.6,0,183.174v33.86L95.21,92.454A40.057,40.057,0,0,1,79.92,78.6" fill="#dee4f0"/>
          <path id="Trazado_900464" data-name="Trazado 900464" d="M89.5,24.04A39.761,39.761,0,0,1,86.86,0H0V183.49L79.92,78.92l27.56-36.07A39.763,39.763,0,0,1,89.5,24.04" fill="#b0c0d2"/>
        </g>
      </g>
      <path id="Trazado_900467" data-name="Trazado 900467" d="M.789,114.474a1.253,1.253,0,0,0,1.761.124L115.857,3.046a1.252,1.252,0,0,0-.1-1.763A1.253,1.253,0,0,0,114,1.16L.692,112.711A1.253,1.253,0,0,0,.789,114.474Zm9.606-18.326,78.752-77.53a1.334,1.334,0,0,0-1.857-1.887L8.537,94.261a1.252,1.252,0,0,0,.1,1.763A1.252,1.252,0,0,0,10.395,96.148ZM105.4,21.7,30.151,95.787a1.334,1.334,0,0,0,1.857,1.886l75.254-74.087A1.334,1.334,0,0,0,105.4,21.7Z" transform="translate(-11328.418 -12840.88)" fill="#e2d6c6" fill-rule="evenodd"/>
      <path id="Trazado_900468" data-name="Trazado 900468" d="M.789,114.474a1.253,1.253,0,0,0,1.761.124L115.857,3.046a1.252,1.252,0,0,0-.1-1.763A1.253,1.253,0,0,0,114,1.16L.692,112.711A1.253,1.253,0,0,0,.789,114.474Zm9.606-18.326,78.752-77.53a1.334,1.334,0,0,0-1.857-1.887L8.537,94.261a1.252,1.252,0,0,0,.1,1.763A1.252,1.252,0,0,0,10.395,96.148ZM105.4,21.7,30.151,95.787a1.334,1.334,0,0,0,1.857,1.886l75.254-74.087A1.334,1.334,0,0,0,105.4,21.7Z" transform="translate(-12617.373 -12375.88)" fill="#e2d6c6" fill-rule="evenodd" opacity="0.49"/>
      <g id="Grupo_1109603" data-name="Grupo 1109603" transform="matrix(0.035, 0.999, -0.999, 0.035, -11579.922, -12373.179)">
        <g id="Grupo_1109603-2" data-name="Grupo 1109603" clip-path="url(#clip-path-4)">
          <path id="Trazado_900579" data-name="Trazado 900579" d="M106.733,563.393c-.364-41.12-12.238-81.379-26.946-119.532C64.8,404.988,45.7,367.86,30.316,329.146,15.718,292.413,3.737,254.019.854,214.4a215.078,215.078,0,0,1,19.1-106.68c15.818-34.274,38.8-64.445,60.854-94.84Q85.41,6.532,89.951.145" transform="translate(0.118 0.069)" fill="none" stroke="#f08920" stroke-miterlimit="10" stroke-width="2"/>
        </g>
      </g>
      <g id="Grupo_1109604" data-name="Grupo 1109604" transform="matrix(0.035, -0.999, 0.999, 0.035, -12513.043, -12781.025)" clip-path="url(#clip-path-5)">
        <path id="Trazado_900580" data-name="Trazado 900580" d="M106.482,0c-.364,41.12-12.238,81.379-26.946,119.532-14.984,38.873-34.087,76-49.47,114.715C15.468,270.98,3.487,309.374.6,349a215.079,215.079,0,0,0,19.1,106.68c15.818,34.274,38.8,64.445,60.854,94.84q4.6,6.345,9.144,12.732" transform="translate(0.368 0.003)" fill="none" stroke="#f08920" stroke-miterlimit="10" stroke-width="2"/>
      </g>
      <circle id="Elipse_11504" data-name="Elipse 11504" cx="14" cy="14" r="14" transform="translate(-12541 -12396)" fill="#62c5df" opacity="0.72"/>
      <g id="Grupo_1109573" data-name="Grupo 1109573" transform="translate(-11338.48 -12540.034)">
        <g id="Grupo_1109572-3" data-name="Grupo 1109572" clip-path="url(#clip-path-6)">
          <path id="Trazado_900463-2" data-name="Trazado 900463" d="M15.29,217.034l79.92-104.57V78.6L0,203.184a40.057,40.057,0,0,1,15.29,13.85" transform="translate(12.27 -78.604)" fill="#dee4f0"/>
          <path id="Trazado_900464-2" data-name="Trazado 900464" d="M17.98,159.45a39.761,39.761,0,0,1,2.64,24.04h86.86V0L27.56,104.57,0,140.64a39.763,39.763,0,0,1,17.98,18.81" transform="translate(0 33.544)" fill="#b0c0d2"/>
        </g>
      </g>
    </g>
    <path id="Trazado_900724" data-name="Trazado 900724" d="M22.437,172.215,18.66,176l-6.953-6.965L4.754,176,.976,172.215l6.953-6.965L.976,158.285,4.754,154.5l6.953,6.965L18.66,154.5l3.778,3.784-6.953,6.965ZM18.66,137.374l-6.953-6.965-6.953,6.965L.976,133.589l6.953-6.965L.976,119.66l3.778-3.784,6.953,6.965,6.953-6.965,3.778,3.784-6.953,6.965,6.953,6.965Zm0-38.625-6.953-6.965L4.754,98.748.976,94.964,7.929,88,.976,81.035,4.754,77.25l6.953,6.965L18.66,77.25l3.778,3.784L15.484,88l6.953,6.965Zm0-38.625-6.953-6.965L4.754,60.123.976,56.339l6.953-6.965L.976,42.409l3.778-3.784,6.953,6.965,6.953-6.965,3.778,3.784-6.953,6.965,6.953,6.965Z" transform="translate(1413.407 177.688)" fill="#62c5df" fill-rule="evenodd"/>
  </g>
</svg>
