<svg xmlns="http://www.w3.org/2000/svg" xmlns:xlink="http://www.w3.org/1999/xlink" width="108.914" height="108.914" viewBox="0 0 108.914 108.914">
  <defs>
    <filter id="Trazado_874925" x="0" y="0" width="108.914" height="108.914" filterUnits="userSpaceOnUse">
      <feOffset dy="3" input="SourceAlpha"/>
      <feGaussianBlur stdDeviation="3" result="blur"/>
      <feFlood flood-opacity="0.161"/>
      <feComposite operator="in" in2="blur"/>
      <feComposite in="SourceGraphic"/>
    </filter>
  </defs>
  <g id="Grupo_1109836" data-name="Grupo 1109836" transform="translate(-815.051 -2496)">
    <g id="Grupo_1109918" data-name="Grupo 1109918">
      <g transform="matrix(1, 0, 0, 1, 815.05, 2496)" filter="url(#Trazado_874925)">
        <g id="Trazado_874925-2" data-name="Trazado 874925" transform="translate(9 6)" fill="#fec8b0" opacity="0.859">
          <path d="M 45.45676803588867 89.41407012939453 C 39.52198028564453 89.41407012939453 33.76551818847656 88.25206756591797 28.34726715087891 85.96034240722656 C 23.11311721801758 83.74648284912109 18.41204261779785 80.57682800292969 14.37464332580566 76.5394287109375 C 10.33724308013916 72.50202941894531 7.167593002319336 67.80095672607422 4.953730583190918 62.56679534912109 C 2.662005424499512 57.14855575561523 1.500005483627319 51.39208221435547 1.500005483627319 45.45729446411133 C 1.500005483627319 39.52198028564453 2.662005424499512 33.76551818847656 4.953730583190918 28.34726905822754 C 7.167593002319336 23.11310577392578 10.33724308013916 18.41203117370605 14.37464332580566 14.37464332580566 C 18.41204261779785 10.33724403381348 23.11311721801758 7.167593955993652 28.34726715087891 4.953731060028076 C 33.76551818847656 2.662006139755249 39.52198028564453 1.500006198883057 45.45676803588867 1.500006198883057 C 51.39155578613281 1.500006198883057 57.14802932739258 2.662006139755249 62.56626892089844 4.953731060028076 C 67.80043029785156 7.167593955993652 72.50150299072266 10.33724403381348 76.53890228271484 14.37464332580566 C 80.57630920410156 18.41203117370605 83.74595642089844 23.11310577392578 85.95981597900391 28.34726905822754 C 88.25154113769531 33.76551818847656 89.41354370117188 39.52198028564453 89.41354370117188 45.45676803588867 C 89.41354370117188 51.39208221435547 88.25154113769531 57.14855575561523 85.95981597900391 62.56679534912109 C 83.74595642089844 67.80095672607422 80.57630920410156 72.50202941894531 76.53890228271484 76.5394287109375 C 72.50150299072266 80.57682800292969 67.80043029785156 83.74648284912109 62.56626892089844 85.96034240722656 C 57.14802932739258 88.25206756591797 51.39155578613281 89.41407012939453 45.45676803588867 89.41407012939453 Z" stroke="none"/>
          <path d="M 45.45676803588867 3 C 39.72381210327148 3 34.1639404296875 4.12213134765625 28.93159484863281 6.335227966308594 C 23.87622833251953 8.473472595214844 19.33542633056641 11.53517150878906 15.43529510498047 15.435302734375 C 11.53517150878906 19.33543395996094 8.473464965820312 23.87622833251953 6.335227966308594 28.93160247802734 C 4.122123718261719 34.16394424438477 3 39.72381591796875 3 45.4572868347168 C 3 51.19024658203125 4.122123718261719 56.75011825561523 6.335227966308594 61.98246002197266 C 8.473464965820312 67.03782653808594 11.53517150878906 71.57862854003906 15.43529510498047 75.478759765625 C 19.33542633056641 79.37889099121094 23.87622833251953 82.44058990478516 28.93159484863281 84.57883453369141 C 34.1639404296875 86.79193115234375 39.72381210327148 87.9140625 45.45676803588867 87.9140625 C 51.18972396850586 87.9140625 56.74959564208984 86.79193115234375 61.98194122314453 84.57883453369141 C 67.03730773925781 82.44058990478516 71.57810974121094 79.37889099121094 75.47824096679688 75.478759765625 C 79.37837219238281 71.57862854003906 82.44007110595703 67.03782653808594 84.57830810546875 61.98246002197266 C 86.79141235351562 56.75011825561523 87.91353607177734 51.19024658203125 87.91353607177734 45.4567756652832 C 87.91353607177734 39.72381591796875 86.79141235351562 34.16394424438477 84.57830810546875 28.93160247802734 C 82.44007110595703 23.87622833251953 79.37837219238281 19.33543395996094 75.47824096679688 15.435302734375 C 71.57810974121094 11.53517150878906 67.03730773925781 8.473472595214844 61.98194122314453 6.335227966308594 C 56.74959564208984 4.12213134765625 51.18972396850586 3 45.45676803588867 3 M 45.45676803588867 0 C 70.56185150146484 0 90.91353607177734 20.35169219970703 90.91353607177734 45.4567756652832 L 90.91353607177734 45.4572868347168 C 90.91353607177734 70.5623779296875 70.56185150146484 90.9140625 45.45676803588867 90.9140625 C 20.3516845703125 90.9140625 0 70.5623779296875 0 45.4572868347168 L 0 45.4567756652832 C 0 20.35169219970703 20.3516845703125 0 45.45676803588867 0 Z" stroke="none" fill="#fff"/>
        </g>
      </g>
      <g id="Page-1" transform="translate(844.067 2522)">
        <g id="_009---Molten-Metal-Mould" data-name="009---Molten-Metal-Mould" transform="translate(-0.016)">
          <path id="Shape" d="M41.65,51.551v6.034H2V51.551l19.135-2.62,1.336-.181Z" transform="translate(-1.124 -6.73)" fill="#37474f"/>
          <path id="Shape-2" data-name="Shape" d="M39.064,51.58v6.034H2V51.58l19.135-2.62Z" transform="translate(-1.124 -6.759)" fill="#607d8b"/>
          <path id="Shape-3" data-name="Shape" d="M43.58,32.864c-.629.483-2.97.675-3.62.675a.42.42,0,0,1-.1-.009,1.7,1.7,0,0,1-1.431-1.181l3.1-1.318Z" transform="translate(-6.153 -4.284)" fill="#2c2f38"/>
          <path id="Shape-4" data-name="Shape" d="M53.535,7.768l-3.017-.247L48.76,5.337a1.7,1.7,0,0,1,1.767-.043.074.074,0,0,1,.052.026C50.975,5.6,53.363,7.184,53.535,7.768Z" transform="translate(-7.58 -0.7)" fill="#2c2f38"/>
          <path id="Shape-5" data-name="Shape" d="M24.773,7.577a.03.03,0,0,0-.009.017c-.75,1.327,1.154.845.7,2.457-.034.121-2.594,2.2-2.619,2.319L2,3.75V1H8.861Z" transform="translate(-1.124 -0.138)" fill="#7f8e94"/>
          <path id="Shape-6" data-name="Shape" d="M41.078,2.16l5.551,2.775,1.474.733,1.181.595h.009c.4,1.276,2.095,2.991,2.017,3.9A32.512,32.512,0,0,1,48.757,19.8a27.151,27.151,0,0,1-4.491,7.68c-.336.379-2.508.827-3.017,1.215h-.009l-1.707-.164-1.81-.172-4.4-.431Z" transform="translate(-5.448 -0.298)" fill="#7f8e94"/>
          <path id="Shape-7" data-name="Shape" d="M57.542,21.228c-1.457,5.137-4.991,8.775-8.421,9.033h-.043l-1.448-.147c.009,0,.009,0,.017-.009h.009a1.058,1.058,0,0,0,.474-.819c.069-.638-.224-1.362.147-1.87a28.468,28.468,0,0,0,3.62-6.87,27.656,27.656,0,0,0,1.879-7.887c.043-.621.965-1.491,1.388-2.353a1.452,1.452,0,0,0,.172-1.017C57.965,11.41,58.956,16.237,57.542,21.228Z" transform="translate(-7.424 -1.283)" fill="#545c60"/>
          <path id="Shape-8" data-name="Shape" d="M55.891,20.529c-1.353,4.775-4.5,8.249-7.689,8.921.069-.638-.224-1.362.147-1.87a28.467,28.467,0,0,0,3.62-6.87,27.656,27.656,0,0,0,1.879-7.887c.043-.621.965-1.491,1.388-2.353C56.641,12.961,56.977,16.693,55.891,20.529Z" transform="translate(-7.496 -1.445)" fill="#7f8e94"/>
          <path id="Shape-9" data-name="Shape" d="M40.09,33.93a.42.42,0,0,0,.1.009h-.1Z" transform="translate(-6.383 -4.684)" fill="#5e5f62"/>
          <path id="Shape-10" data-name="Shape" d="M41.65,50.205H2l8.964-10.593A1.724,1.724,0,0,1,12.283,39H31.367a1.724,1.724,0,0,1,1.319.612Z" transform="translate(-1.124 -5.384)" fill="#545c60"/>
          <path id="Shape-11" data-name="Shape" d="M39.064,50.205H2l8.964-10.593A1.724,1.724,0,0,1,12.283,39h16.5a1.724,1.724,0,0,1,1.319.612Z" transform="translate(-1.124 -5.384)" fill="#7f8e94"/>
          <path id="Shape-12" data-name="Shape" d="M22.258,43.056c-3.017.181-5.258.862-5.258,1.672s2.2,1.474,5.172,1.664c.552.043,1.129.06,1.724.06.293,0,.578-.009.862-.017,3.4-.1,6.034-.827,6.034-1.707,0-.845-2.431-1.543-5.637-1.7" transform="translate(-3.195 -5.94)" fill="#ff5722"/>
          <circle id="Oval" cx="1.724" cy="1.724" r="1.724" transform="translate(12.081 23.273)" fill="#f3d55b"/>
          <path id="Shape-13" data-name="Shape" d="M43.842,13.976c0,.009,0,.009-.009.017a19.549,19.549,0,0,1-.595,2.87,19.817,19.817,0,0,1-2.594,5.654c0,.009-.009.009-.009.017a14.58,14.58,0,0,1-3.137,3.4,7.9,7.9,0,0,1-5.275,1.853H32.2a4.668,4.668,0,0,1-.974-.147l-4.939-4.861a17.359,17.359,0,0,1-.215-10.4c.026-.121.06-.233.095-.353a20.17,20.17,0,0,1,1.827-4.422A.03.03,0,0,1,28,7.589C30.62,2.944,34.757.28,38.421,1.314A5.991,5.991,0,0,1,39.955,2c.009.009.017.017.026.017,2.086,1.319,3.448,3.93,3.887,7.137v.009A18.43,18.43,0,0,1,43.842,13.976Z" transform="translate(-4.351 -0.151)" fill="#cfd8dc"/>
          <path id="Shape-14" data-name="Shape" d="M41,16.328a16.446,16.446,0,0,1-1.086,2.827c-.8-.31-1.543-.578-2.224-.793s-1.3-.405-1.87-.543A11.429,11.429,0,0,0,31.04,17.4a2.185,2.185,0,0,0-1.2.491,8.687,8.687,0,0,0-.9,1.181,12.609,12.609,0,0,1-.086-1.733,16.377,16.377,0,0,1,.638-4.275c1.181-4.155,3.689-7.283,6.223-8.128a3.917,3.917,0,0,1,2.327-.095,3.662,3.662,0,0,1,1.439.8C41.582,7.476,42.289,11.795,41,16.328Z" transform="translate(-4.832 -0.65)" fill="#fdd834"/>
          <path id="Shape-15" data-name="Shape" d="M38.419,16.365a15.343,15.343,0,0,1-.724,2.034c-.112.267-.233.534-.362.793a33.989,33.989,0,0,0-4.094-1.336,18.9,18.9,0,0,0-2.2-.422,9.178,9.178,0,0,0-2.181-.06A16.377,16.377,0,0,1,29.5,13.1c1.181-4.155,3.689-7.283,6.223-8.128a3.534,3.534,0,0,1,1.181.707C39,7.513,39.7,11.831,38.419,16.365Z" transform="translate(-4.832 -0.686)" fill="#ffeb3a"/>
          <path id="Shape-16" data-name="Shape" d="M39.11,21.172a11.606,11.606,0,0,1-3.655,4.542,15.146,15.146,0,0,0-2.439,2c-.181.19-.362.379-.543.578V28.3c-.517.569-1.052,1.189-1.577,1.853-2.7,3.4-5.31,8-5.31,13.024H23c0-.586.009-1.164.026-1.724A46.292,46.292,0,0,1,25.956,25.3v-.009a23.061,23.061,0,0,1,2.181-4.206,8.687,8.687,0,0,1,.9-1.181s1.155-1.284,5.982-.069c.569.138,1.2.319,1.879.543S38.308,20.862,39.11,21.172Z" transform="translate(-4.023 -2.666)" fill="#f57c00"/>
          <path id="Shape-17" data-name="Shape" d="M36.9,20.379a10.88,10.88,0,0,1-3.163,3.612,15.146,15.146,0,0,0-2.439,2c-.181.19-.362.379-.543.578v.009c-.517.569-1.052,1.189-1.577,1.853-2.7,3.4-5.31,8-5.31,13.024H23.03A46.292,46.292,0,0,1,25.961,25.3v-.009a23.061,23.061,0,0,1,2.181-4.206,8.687,8.687,0,0,1,.9-1.181s1.155-1.284,5.982-.069C35.589,19.974,36.218,20.155,36.9,20.379Z" transform="translate(-4.028 -2.666)" fill="#ff9801"/>
          <path id="Shape-18" data-name="Shape" d="M54.475,12.118A27.656,27.656,0,0,1,52.6,20a28.468,28.468,0,0,1-3.62,6.87,11.477,11.477,0,0,1-2.344,2.689h-.009c-.009.009-.009.009-.017.009a2.377,2.377,0,0,1-1.4.474l-1.526-.017-3.465-.034a3.522,3.522,0,0,0,1.982-.853H42.2a9.38,9.38,0,0,0,1.293-1.215,27.151,27.151,0,0,0,4.491-7.68A32.512,32.512,0,0,0,50.536,10.6a11.451,11.451,0,0,0-.293-3.9h-.009c-.026-.086-.052-.164-.078-.241a2.227,2.227,0,0,0-.759-1.1L52.95,6.937A2.444,2.444,0,0,1,54.3,8.747h.009A11.16,11.16,0,0,1,54.475,12.118Z" transform="translate(-6.399 -0.74)" fill="#37474f"/>
          <path id="Shape-19" data-name="Shape" d="M52.751,12.294a27.655,27.655,0,0,1-1.879,7.887,28.468,28.468,0,0,1-3.62,6.87,11.477,11.477,0,0,1-2.344,2.689H44.9c-.009.009-.009.009-.017.009a2.366,2.366,0,0,1-1.207.457l-3.465-.034a3.522,3.522,0,0,0,1.982-.853H42.2A9.38,9.38,0,0,0,43.494,28.1a27.151,27.151,0,0,0,4.491-7.68,32.512,32.512,0,0,0,2.551-9.645,11.451,11.451,0,0,0-.293-3.9h-.009c-.026-.086-.052-.164-.078-.241l1.069.474a2.444,2.444,0,0,1,1.353,1.81h.009A11.159,11.159,0,0,1,52.751,12.294Z" transform="translate(-6.399 -0.917)" fill="#545c60"/>
          <path id="Shape-20" data-name="Shape" d="M41.511,50.929H1.862A.862.862,0,0,1,1.2,49.51l8.964-10.6A2.586,2.586,0,0,1,12.143,38h8.182a.862.862,0,0,1,0,1.724H12.143a.862.862,0,0,0-.659.305L3.72,49.205H39.653l-7.764-9.176a.862.862,0,0,0-.659-.305H24.1A.862.862,0,0,1,24.1,38h7.13a2.586,2.586,0,0,1,1.974.915l8.964,10.6a.862.862,0,0,1-.657,1.419Z" transform="translate(-0.986 -5.246)"/>
          <path id="Shape-21" data-name="Shape" d="M23.758,47.176c-.663,0-1.248-.021-1.79-.063C19.746,46.971,16,46.454,16,44.59c0-1.887,3.8-2.4,6.068-2.532a.863.863,0,1,1,.1,1.724,12.154,12.154,0,0,0-4.2.809,11.939,11.939,0,0,0,4.121.8,24.143,24.143,0,0,0,2.5.041,13.725,13.725,0,0,0,4.958-.844,12.88,12.88,0,0,0-4.577-.839.862.862,0,0,1-.819-.9.886.886,0,0,1,.9-.819c2.413.117,6.457.6,6.457,2.559,0,2.13-4.8,2.506-6.87,2.568C24.352,47.167,24.06,47.176,23.758,47.176Z" transform="translate(-3.057 -5.802)"/>
          <path id="Shape-22" data-name="Shape" d="M32.487,28.521c-.153,0-.3-.005-.456-.015a5.438,5.438,0,0,1-1.17-.172.862.862,0,1,1,.45-1.664,3.806,3.806,0,0,0,.795.118c4.077.259,8.426-4.166,10.167-10.3,1.92-6.783.025-13.281-4.224-14.481-1.993-.564-4.236.129-6.325,1.954a17,17,0,0,0-4.867,8.165,16.722,16.722,0,0,0,.1,10.205.864.864,0,1,1-1.638.549,18.494,18.494,0,0,1-.121-11.227,18.726,18.726,0,0,1,5.395-9C33.131.443,35.947-.382,38.518.347c5.164,1.465,7.592,8.915,5.413,16.614C42,23.751,37.24,28.521,32.487,28.521Z" transform="translate(-4.214 -0.012)"/>
          <path id="Shape-23" data-name="Shape" d="M49.172,30.985a.862.862,0,0,1,0-1.724c3.1-.233,6.321-3.769,7.635-8.407,1.282-4.527.505-9.044-1.888-11.007a.862.862,0,0,1,.5-1.558h.009a.862.862,0,0,1,.541.191c2.986,2.408,3.988,7.57,2.494,12.843-1.529,5.393-5.305,9.365-9.185,9.654A.663.663,0,0,1,49.172,30.985Z" transform="translate(-7.517 -1.144)"/>
          <path id="Shape-24" data-name="Shape" d="M50.394,6.985A.867.867,0,0,1,50.01,6.9L41.8,2.8a.785.785,0,0,1-.086-.053.874.874,0,0,1-.259-1.207.85.85,0,0,1,1.162-.265l8.17,4.08A.862.862,0,0,1,50.4,6.985Z" transform="translate(-6.551 -0.158)"/>
          <path id="Shape-25" data-name="Shape" d="M48.984,34.319h-.043a.846.846,0,0,1-.094-.005l-1.43-.155a.862.862,0,1,1,.187-1.714l1.418.154a.878.878,0,0,1,.8.858.844.844,0,0,1-.84.862Z" transform="translate(-7.286 -4.478)"/>
          <path id="Shape-26" data-name="Shape" d="M41.111,33.552h-.086l-7.93-.768a.871.871,0,0,1-.79-.9.85.85,0,0,1,.847-.82h.009a.8.8,0,0,1,.1,0l7.93.767a.863.863,0,1,1-.08,1.724Z" transform="translate(-5.308 -4.288)"/>
          <path id="Shape-27" data-name="Shape" d="M22.862,43.9A.862.862,0,0,1,22,43.039a49.184,49.184,0,0,1,3.017-18.2,23.821,23.821,0,0,1,2.266-4.375,9.435,9.435,0,0,1,1-1.3c.339-.377,2.575-2.226,11.007,1.067a.862.862,0,1,1-.627,1.606c-7.266-2.837-9.118-1.488-9.166-1.451a9.078,9.078,0,0,0-.776,1.034,22.128,22.128,0,0,0-2.1,4.062,47.534,47.534,0,0,0-2.892,17.557A.862.862,0,0,1,22.862,43.9Z" transform="translate(-3.885 -2.527)"/>
          <path id="Shape-28" data-name="Shape" d="M25.862,41.885A.862.862,0,0,1,25,41.023c0-4.4,1.85-8.957,5.5-13.559.667-.84,1.4-1.682,2.172-2.5a15.591,15.591,0,0,1,2.575-2.111,10.871,10.871,0,0,0,3.368-4.211,15.54,15.54,0,0,0,1.034-2.686c1.386-4.891.3-9.666-2.363-10.43-2.666-.746-6.1,2.743-7.488,7.633a14.685,14.685,0,0,0-.525,5.67.862.862,0,1,1-1.712.205,16.417,16.417,0,0,1,.578-6.346c1.7-5.985,5.92-9.86,9.613-8.815S43,10.44,41.3,16.427A17.319,17.319,0,0,1,40.159,19.4a12.59,12.59,0,0,1-3.94,4.873,14.015,14.015,0,0,0-2.3,1.874c-.74.783-1.437,1.587-2.074,2.388-2.337,2.946-5.123,7.508-5.123,12.485A.862.862,0,0,1,25.862,41.885Z" transform="translate(-4.299 -0.511)"/>
          <path id="Shape-29" data-name="Shape" d="M41.511,58.758H1.862A.862.862,0,0,1,1,57.9V51.862A.862.862,0,0,1,1.862,51h39.65a.862.862,0,0,1,.862.862V57.9A.862.862,0,0,1,41.511,58.758ZM2.724,57.034H40.65v-4.31H2.724Z" transform="translate(-0.986 -7.041)"/>
          <path id="Shape-30" data-name="Shape" d="M25.736,8.3a.87.87,0,0,1-.329-.066L9.495,1.659A.862.862,0,0,1,10.153.066l15.91,6.577A.862.862,0,0,1,25.736,8.3Z" transform="translate(-2.087 -0.001)"/>
          <path id="Shape-31" data-name="Shape" d="M22.7,13.532a.853.853,0,0,1-.329-.066L1.53,4.847a.862.862,0,1,1,.659-1.593l20.842,8.619a.862.862,0,0,1-.329,1.658Z" transform="translate(-0.984 -0.439)"/>
          <path id="Shape-32" data-name="Shape" d="M1.862,4.474A.862.862,0,0,1,1,3.612V.862A.862.862,0,0,1,1.862,0H8.723a.862.862,0,1,1,0,1.724h-6V3.612A.862.862,0,0,1,1.862,4.474Z" transform="translate(-0.986)"/>
          <path id="Shape-33" data-name="Shape" d="M39.823,30.677a2.364,2.364,0,0,1-.365-.028A2.564,2.564,0,0,1,37.5,28.977a.862.862,0,1,1,1.574-.7c.274.615.551.659.642.672.6.094,1.732-.634,2.744-1.773a25.93,25.93,0,0,0,4.341-7.434,31.4,31.4,0,0,0,2.483-9.387c.154-1.827-.094-4-.776-4.474-.073-.051-.3-.209-.944.1a.862.862,0,1,1-.742-1.557,2.53,2.53,0,0,1,2.667.04c1.776,1.23,1.61,4.933,1.516,6.038A33.019,33.019,0,0,1,48.4,20.4a28.412,28.412,0,0,1-4.642,7.919C43.1,29.056,41.466,30.677,39.823,30.677Z" transform="translate(-6.015 -0.56)"/>
          <path id="Shape-34" data-name="Shape" d="M45.093,31.021h-.067l-5.079-.051a.862.862,0,1,1,.009-1.724h.009l5.091.051h.025c1.025,0,2.057-1.445,2.744-2.406.109-.151.21-.294.3-.421a27.238,27.238,0,0,0,3.508-6.654,26.813,26.813,0,0,0,1.828-7.638c.066-.948.259-3.824-.989-4.324a.862.862,0,1,1,.64-1.6c2.413.966,2.164,4.655,2.069,6.042a28.549,28.549,0,0,1-1.936,8.131A29,29,0,0,1,49.513,27.5l-.288.4C48.333,29.143,46.99,31.021,45.093,31.021Z" transform="translate(-6.245 -0.853)"/>
          <path id="Shape-35" data-name="Shape" d="M54.271,7.656a.853.853,0,0,1-.345-.074l-3.611-1.6a.862.862,0,1,1,.7-1.575l3.609,1.6a.862.862,0,0,1-.351,1.65Z" transform="translate(-7.722 -0.597)"/>
          <path id="Shape-36" data-name="Shape" d="M16.586,31.172a2.586,2.586,0,1,1,2.586-2.586A2.586,2.586,0,0,1,16.586,31.172Zm0-3.448a.862.862,0,1,0,.862.862A.862.862,0,0,0,16.586,27.724Z" transform="translate(-2.781 -3.589)"/>
          <circle id="Oval-2" data-name="Oval" cx="0.862" cy="0.862" r="0.862" transform="translate(7.771 19.825)"/>
          <circle id="Oval-3" data-name="Oval" cx="0.862" cy="0.862" r="0.862" transform="translate(10.357 15.515)"/>
        </g>
      </g>
    </g>
  </g>
</svg>
