<svg xmlns="http://www.w3.org/2000/svg" xmlns:xlink="http://www.w3.org/1999/xlink" width="108" height="108" viewBox="0 0 108 108">
  <defs>
    <filter id="Trazado_896985" x="0" y="0" width="108" height="108" filterUnits="userSpaceOnUse">
      <feOffset dy="3" input="SourceAlpha"/>
      <feGaussianBlur stdDeviation="3" result="blur"/>
      <feFlood flood-opacity="0.161"/>
      <feComposite operator="in" in2="blur"/>
      <feComposite in="SourceGraphic"/>
    </filter>
  </defs>
  <g id="Grupo_1109889" data-name="Grupo 1109889" transform="translate(8.983 5.663)">
    <g id="Grupo_1098742" data-name="Grupo 1098742" transform="translate(0.017 0.337)">
      <g transform="matrix(1, 0, 0, 1, -9, -6)" filter="url(#Trazado_896985)">
        <g id="Trazado_896985-2" data-name="Trazado 896985" transform="translate(9 6)" fill="#8390aa" opacity="0.859">
          <path d="M 44.99993896484375 88.5 C 39.12682723999023 88.5 33.4301872253418 87.35007476806641 28.06826400756836 85.08217620849609 C 22.88850212097168 82.89132690429688 18.23627662658691 79.75461578369141 14.2408390045166 75.75916290283203 C 10.24540138244629 71.76372528076172 7.108676433563232 67.11151123046875 4.917826652526855 61.9317512512207 C 2.649926424026489 56.56982421875 1.500001430511475 50.87317657470703 1.500001430511475 45.00006103515625 C 1.500001430511475 39.12682342529297 2.649926424026489 33.4301872253418 4.917826652526855 28.06826210021973 C 7.108676433563232 22.88850021362305 10.24540138244629 18.23628807067871 14.2408390045166 14.24083709716797 C 18.23628807067871 10.24540042877197 22.88850212097168 7.108675003051758 28.06826400756836 4.917825222015381 C 33.4301872253418 2.649924993515015 39.12682723999023 1.5 44.99993896484375 1.5 C 50.87305068969727 1.5 56.5697021484375 2.649924993515015 61.93162536621094 4.917825222015381 C 67.11138916015625 7.108675003051758 71.76360321044922 10.24540042877197 75.75904083251953 14.24083709716797 C 79.75448608398438 18.23627471923828 82.89120483398438 22.88850021362305 85.08205413818359 28.06826210021973 C 87.34995269775391 33.4301872253418 88.4998779296875 39.12682342529297 88.4998779296875 44.99993896484375 C 88.4998779296875 50.87317657470703 87.34995269775391 56.56982421875 85.08205413818359 61.9317512512207 C 82.89120483398438 67.11151123046875 79.75448608398438 71.76372528076172 75.75904083251953 75.75916290283203 C 71.76360321044922 79.75461578369141 67.11138916015625 82.89132690429688 61.93162536621094 85.08217620849609 C 56.5697021484375 87.35007476806641 50.87305068969727 88.5 44.99993896484375 88.5 Z" stroke="none"/>
          <path d="M 44.99993896484375 3 C 39.32865142822266 3 33.82860946655273 4.110054016113281 28.65258026123047 6.299331665039062 C 23.65162658691406 8.414558410644531 19.15966796875 11.44332885742188 15.30149841308594 15.30149841308594 C 11.44332122802734 19.15966796875 8.41455078125 23.65162658691406 6.299324035644531 28.65258407592773 C 4.110054016113281 33.82861328125 2.999992370605469 39.32865524291992 2.999992370605469 45.00005722045898 C 2.999992370605469 50.67134475708008 4.110054016113281 56.17138671875 6.299324035644531 61.347412109375 C 8.41455078125 66.34837341308594 11.44332122802734 70.84033203125 15.30149841308594 74.69850158691406 C 19.15966796875 78.55667114257812 23.65162658691406 81.58544158935547 28.65258026123047 83.70066833496094 C 33.82860946655273 85.88994598388672 39.32865142822266 87 44.99993896484375 87 C 50.67122650146484 87 56.17126846313477 85.88994598388672 61.34729766845703 83.70066833496094 C 66.34825134277344 81.58544158935547 70.8402099609375 78.55667114257812 74.69837951660156 74.69850158691406 C 78.55654907226562 70.84033203125 81.5853271484375 66.34837341308594 83.70055389404297 61.347412109375 C 85.88982391357422 56.17138671875 86.9998779296875 50.67134475708008 86.9998779296875 44.99994277954102 C 86.9998779296875 39.32865524291992 85.88982391357422 33.82861328125 83.70055389404297 28.65258407592773 C 81.5853271484375 23.65162658691406 78.55654907226562 19.15966796875 74.69837951660156 15.30149841308594 C 70.8402099609375 11.44332885742188 66.34825134277344 8.414558410644531 61.34729766845703 6.299331665039062 C 56.17126846313477 4.110054016113281 50.67122650146484 3 44.99993896484375 3 M 44.99993896484375 0 C 69.85272216796875 0 89.99988555908203 20.14715576171875 89.99988555908203 44.99994277954102 L 89.99988555908203 45.00005722045898 C 89.99988555908203 69.85284423828125 69.85272216796875 90 44.99993896484375 90 C 20.14715576171875 90 -7.62939453125e-06 69.85284423828125 -7.62939453125e-06 45.00005722045898 L -7.62939453125e-06 44.99994277954102 C -7.62939453125e-06 20.14715576171875 20.14715576171875 0 44.99993896484375 0 Z" stroke="none" fill="#fff"/>
        </g>
      </g>
      <g id="Rectángulo_400907" data-name="Rectángulo 400907" transform="translate(0)" fill="none" stroke="#fff" stroke-width="3">
        <rect width="90" height="90" rx="45" stroke="none"/>
        <rect x="1.5" y="1.5" width="87" height="87" rx="43.5" fill="none"/>
      </g>
    </g>
    <g id="moneda" transform="translate(18.017 15.337)">
      <path id="Trazado_901582" data-name="Trazado 901582" d="M53.632,249.224a26.3,26.3,0,0,1-8.379,6.331,26.168,26.168,0,0,1-22.383,0,26.441,26.441,0,0,1-8.379-6.331A25.992,25.992,0,0,1,7.992,232v5.586a25.973,25.973,0,0,0,6.5,17.215v.009a26.294,26.294,0,0,0,8.379,6.322v.009a26.168,26.168,0,0,0,22.383,0,26.3,26.3,0,0,0,8.379-6.331V254.8a25.921,25.921,0,0,0,6.5-17.215V232A26,26,0,0,1,53.632,249.224Zm0,0" transform="translate(-7.062 -205)" fill="#f6bb42"/>
      <path id="Trazado_901583" data-name="Trazado 901583" d="M60.131,34.069a26,26,0,0,1-6.5,17.224,26.3,26.3,0,0,1-8.379,6.331,26.168,26.168,0,0,1-22.383,0,26.441,26.441,0,0,1-8.379-6.331,26.07,26.07,0,1,1,45.64-17.224Zm-5.586,0A20.483,20.483,0,1,0,34.061,54.552,20.484,20.484,0,0,0,54.545,34.069Zm0,0" transform="translate(-7.062 -7.069)" fill="#ffce54"/>
      <path id="Trazado_901584" data-name="Trazado 901584" d="M76.475,56A20.483,20.483,0,1,1,55.992,76.483,20.484,20.484,0,0,1,76.475,56ZM81.15,83.615a9.306,9.306,0,1,0-9.32,0h.01v3.11h9.31Zm0,0" transform="translate(-49.476 -49.483)" fill="#f6bb42"/>
      <path id="Trazado_901585" data-name="Trazado 901585" d="M186.022,208a1.862,1.862,0,1,1-1.862,1.862A1.867,1.867,0,0,1,186.022,208Zm0,0" transform="translate(-162.728 -183.793)" fill="#edab37"/>
      <path id="Trazado_901586" data-name="Trazado 901586" d="M250.022,208a1.862,1.862,0,1,1-1.862,1.862A1.867,1.867,0,0,1,250.022,208Zm0,0" transform="translate(-219.279 -183.793)" fill="#edab37"/>
      <path id="Trazado_901587" data-name="Trazado 901587" d="M166.126,161.373v3.11h-9.31v-3.11h-.01a9.315,9.315,0,1,1,9.32,0Zm.931-8.063a1.862,1.862,0,1,0-1.862,1.862A1.867,1.867,0,0,0,167.057,153.31Zm-7.448,0a1.862,1.862,0,1,0-1.862,1.862A1.867,1.867,0,0,0,159.608,153.31Zm0,0" transform="translate(-134.452 -127.241)" fill="#ffce54"/>
      <path id="Trazado_901588" data-name="Trazado 901588" d="M27,54A27,27,0,1,1,54,27,27.031,27.031,0,0,1,27,54ZM27,1.862A25.138,25.138,0,1,0,52.138,27,25.166,25.166,0,0,0,27,1.862Zm0,0"/>
      <path id="Trazado_901589" data-name="Trazado 901589" d="M69.414,90.828A21.414,21.414,0,1,1,90.828,69.414,21.437,21.437,0,0,1,69.414,90.828Zm0-40.966A19.552,19.552,0,1,0,88.966,69.414,19.574,19.574,0,0,0,69.414,49.862Zm0,0" transform="translate(-42.414 -42.414)"/>
      <path id="Trazado_901590" data-name="Trazado 901590" d="M27,299.931a27.031,27.031,0,0,1-27-27,.931.931,0,0,1,1.862,0,25.138,25.138,0,1,0,50.276,0,.931.931,0,0,1,1.862,0A27.031,27.031,0,0,1,27,299.931Zm0,0" transform="translate(0 -240.345)"/>
      <path id="Trazado_901591" data-name="Trazado 901591" d="M448.931,231.448a.93.93,0,0,1-.931-.931v-5.586a.931.931,0,0,1,1.862,0v5.586A.93.93,0,0,1,448.931,231.448Zm0,0" transform="translate(-395.862 -197.931)"/>
      <path id="Trazado_901592" data-name="Trazado 901592" d="M.931,231.448A.93.93,0,0,1,0,230.517v-5.586a.931.931,0,0,1,1.862,0v5.586A.93.93,0,0,1,.931,231.448Zm0,0" transform="translate(0 -197.931)"/>
      <path id="Trazado_901593" data-name="Trazado 901593" d="M393.1,379.431a.93.93,0,0,1-.931-.931v-5.584a.931.931,0,0,1,1.862,0V378.5A.931.931,0,0,1,393.1,379.431Zm0,0" transform="translate(-346.528 -328.693)"/>
      <path id="Trazado_901594" data-name="Trazado 901594" d="M224.931,455.448a.93.93,0,0,1-.931-.931v-5.586a.931.931,0,0,1,1.862,0v5.586A.93.93,0,0,1,224.931,455.448Zm0,0" transform="translate(-197.931 -395.862)"/>
      <path id="Trazado_901595" data-name="Trazado 901595" d="M321.068,433.815a.93.93,0,0,1-.931-.931V427.3a.931.931,0,0,1,1.862,0v5.586A.931.931,0,0,1,321.068,433.815Zm0,0" transform="translate(-282.879 -376.747)"/>
      <path id="Trazado_901596" data-name="Trazado 901596" d="M56.763,379.431a.93.93,0,0,1-.931-.931v-5.584a.931.931,0,0,1,1.862,0V378.5A.93.93,0,0,1,56.763,379.431Zm0,0" transform="translate(-49.334 -328.693)"/>
      <path id="Trazado_901597" data-name="Trazado 901597" d="M128.794,433.815a.93.93,0,0,1-.931-.931V427.3a.931.931,0,0,1,1.862,0v5.586A.93.93,0,0,1,128.794,433.815Zm0,0" transform="translate(-112.983 -376.747)"/>
      <path id="Trazado_901598" data-name="Trazado 901598" d="M225.264,25.862a.931.931,0,0,1-.01-1.862h.01a.931.931,0,0,1,0,1.862Zm0,0" transform="translate(-198.221 -21.207)"/>
      <path id="Trazado_901599" data-name="Trazado 901599" d="M225.264,425.862a.931.931,0,0,1-.01-1.862h.01a.931.931,0,0,1,0,1.862Zm0,0" transform="translate(-198.221 -374.655)"/>
      <path id="Trazado_901600" data-name="Trazado 901600" d="M173.495,32.686a.931.931,0,0,1-.01-1.862h.01a.931.931,0,1,1,0,1.862Zm0,0" transform="translate(-152.476 -27.237)"/>
      <path id="Trazado_901601" data-name="Trazado 901601" d="M277.033,419.046a.931.931,0,0,1-.01-1.862h.01a.931.931,0,1,1,0,1.862Zm0,0" transform="translate(-243.966 -368.632)"/>
      <path id="Trazado_901602" data-name="Trazado 901602" d="M125.264,52.663a.931.931,0,0,1-.01-1.862h.01a.931.931,0,1,1,0,1.862Zm0,0" transform="translate(-109.859 -44.889)"/>
      <path id="Trazado_901603" data-name="Trazado 901603" d="M325.264,399.069a.931.931,0,0,1-.01-1.862h.01a.931.931,0,0,1,0,1.862Zm0,0" transform="translate(-286.583 -350.98)"/>
      <path id="Trazado_901604" data-name="Trazado 901604" d="M83.838,84.436a.931.931,0,0,1-.01-1.862h.01a.931.931,0,1,1,0,1.862Zm0,0" transform="translate(-73.254 -72.964)"/>
      <path id="Trazado_901605" data-name="Trazado 901605" d="M366.689,367.3a.931.931,0,0,1-.01-1.862h.01a.931.931,0,0,1,0,1.862Zm0,0" transform="translate(-323.188 -322.905)"/>
      <path id="Trazado_901606" data-name="Trazado 901606" d="M52.064,125.862a.931.931,0,0,1-.01-1.862h.01a.931.931,0,1,1,0,1.862Zm0,0" transform="translate(-45.179 -109.569)"/>
      <path id="Trazado_901607" data-name="Trazado 901607" d="M398.463,325.87a.931.931,0,0,1-.01-1.862h.01a.931.931,0,0,1,0,1.862Zm0,0" transform="translate(-351.263 -286.3)"/>
      <path id="Trazado_901608" data-name="Trazado 901608" d="M32.072,174.1a.931.931,0,0,1-.01-1.862h.01a.931.931,0,0,1,0,1.862Zm0,0" transform="translate(-27.513 -152.193)"/>
      <path id="Trazado_901609" data-name="Trazado 901609" d="M418.447,277.639a.931.931,0,0,1-.01-1.862h.01a.931.931,0,0,1,0,1.862Zm0,0" transform="translate(-368.922 -243.683)"/>
      <path id="Trazado_901610" data-name="Trazado 901610" d="M25.264,225.87a.931.931,0,0,1-.01-1.862h.01a.931.931,0,0,1,0,1.862Zm0,0" transform="translate(-21.497 -197.938)"/>
      <path id="Trazado_901611" data-name="Trazado 901611" d="M425.264,225.87a.931.931,0,0,1-.01-1.862h.01a.931.931,0,0,1,0,1.862Zm0,0" transform="translate(-374.945 -197.938)"/>
      <path id="Trazado_901612" data-name="Trazado 901612" d="M32.072,277.639a.931.931,0,0,1-.01-1.862h.01a.931.931,0,1,1,0,1.862Zm0,0" transform="translate(-27.513 -243.683)"/>
      <path id="Trazado_901613" data-name="Trazado 901613" d="M418.447,174.1a.931.931,0,0,1-.01-1.862h.01a.931.931,0,0,1,0,1.862Zm0,0" transform="translate(-368.922 -152.193)"/>
      <path id="Trazado_901614" data-name="Trazado 901614" d="M52.064,325.87a.931.931,0,0,1-.01-1.862h.01a.931.931,0,0,1,0,1.862Zm0,0" transform="translate(-45.179 -286.3)"/>
      <path id="Trazado_901615" data-name="Trazado 901615" d="M398.463,125.87a.931.931,0,0,1-.01-1.862h.01a.931.931,0,0,1,0,1.862Zm0,0" transform="translate(-351.263 -109.576)"/>
      <path id="Trazado_901616" data-name="Trazado 901616" d="M83.838,367.3a.931.931,0,0,1-.01-1.862h.01a.931.931,0,0,1,0,1.862Zm0,0" transform="translate(-73.254 -322.905)"/>
      <path id="Trazado_901617" data-name="Trazado 901617" d="M366.689,84.448a.931.931,0,0,1-.01-1.862h.01a.931.931,0,0,1,0,1.862Zm0,0" transform="translate(-323.188 -72.975)"/>
      <path id="Trazado_901618" data-name="Trazado 901618" d="M125.264,399.069a.931.931,0,0,1-.01-1.862h.01a.931.931,0,1,1,0,1.862Zm0,0" transform="translate(-109.859 -350.98)"/>
      <path id="Trazado_901619" data-name="Trazado 901619" d="M325.264,52.671a.931.931,0,0,1-.01-1.862h.01a.931.931,0,0,1,0,1.862Zm0,0" transform="translate(-286.583 -44.896)"/>
      <path id="Trazado_901620" data-name="Trazado 901620" d="M173.495,419.046a.931.931,0,0,1-.01-1.862h.01a.931.931,0,1,1,0,1.862Zm0,0" transform="translate(-152.476 -368.632)"/>
      <path id="Trazado_901621" data-name="Trazado 901621" d="M277.033,32.686a.931.931,0,0,1-.01-1.862h.01a.931.931,0,1,1,0,1.862Zm0,0" transform="translate(-243.966 -27.237)"/>
      <path id="Trazado_901622" data-name="Trazado 901622" d="M159.026,155.237a.931.931,0,0,1-.467-1.737,8.378,8.378,0,1,0-8.381,0,.931.931,0,0,1-.933,1.611,10.242,10.242,0,1,1,10.247,0A.922.922,0,0,1,159.026,155.237Zm0,0" transform="translate(-127.355 -120.172)"/>
      <path id="Trazado_901623" data-name="Trazado 901623" d="M185.06,290.261a.93.93,0,0,1-.931-.931V286.22a.931.931,0,0,1,1.862,0v3.109A.931.931,0,0,1,185.06,290.261Zm0,0" transform="translate(-162.7 -252.087)"/>
      <path id="Trazado_901624" data-name="Trazado 901624" d="M265.06,290.261a.93.93,0,0,1-.931-.931V286.22a.931.931,0,0,1,1.862,0v3.109A.931.931,0,0,1,265.06,290.261Zm0,0" transform="translate(-233.39 -252.087)"/>
      <path id="Trazado_901625" data-name="Trazado 901625" d="M194.37,313.87h-9.31a.931.931,0,0,1,0-1.862h9.31a.931.931,0,0,1,0,1.862Zm0,0" transform="translate(-162.7 -275.697)"/>
      <path id="Trazado_901626" data-name="Trazado 901626" d="M208.931,306.794a.93.93,0,0,1-.931-.931v-.932a.931.931,0,0,1,1.862,0v.932A.93.93,0,0,1,208.931,306.794Zm0,0" transform="translate(-183.793 -268.621)"/>
      <path id="Trazado_901627" data-name="Trazado 901627" d="M241.06,306.794a.93.93,0,0,1-.931-.931v-.932a.931.931,0,0,1,1.862,0v.932A.931.931,0,0,1,241.06,306.794Zm0,0" transform="translate(-212.183 -268.621)"/>
      <path id="Trazado_901628" data-name="Trazado 901628" d="M178.922,205.594a2.793,2.793,0,1,1,2.793-2.793A2.8,2.8,0,0,1,178.922,205.594Zm0-3.724a.931.931,0,1,0,.931.931A.931.931,0,0,0,178.922,201.87Zm0,0" transform="translate(-155.631 -176.731)"/>
      <path id="Trazado_901629" data-name="Trazado 901629" d="M242.922,205.594a2.793,2.793,0,1,1,2.793-2.793A2.8,2.8,0,0,1,242.922,205.594Zm0-3.724a.931.931,0,1,0,.931.931A.931.931,0,0,0,242.922,201.87Zm0,0" transform="translate(-212.183 -176.731)"/>
      <path id="Trazado_901630" data-name="Trazado 901630" d="M224.931,84.647a.93.93,0,0,1-.931-.931V80.923a.931.931,0,1,1,1.862,0v2.793A.93.93,0,0,1,224.931,84.647Zm0,0" transform="translate(-197.931 -70.683)"/>
      <path id="Trazado_901631" data-name="Trazado 901631" d="M224.931,348.663a.93.93,0,0,1-.931-.931v-2.793a.931.931,0,0,1,1.862,0v2.793A.93.93,0,0,1,224.931,348.663Zm0,0" transform="translate(-197.931 -303.972)"/>
      <path id="Trazado_901632" data-name="Trazado 901632" d="M176.631,93.171a.93.93,0,0,1-.874-.612l-.956-2.624a.931.931,0,0,1,1.75-.636l.955,2.624a.931.931,0,0,1-.875,1.248Zm0,0" transform="translate(-154.408 -78.365)"/>
      <path id="Trazado_901633" data-name="Trazado 901633" d="M266.936,341.266a.931.931,0,0,1-.875-.613l-.955-2.624a.931.931,0,0,1,1.749-.636l.956,2.624a.931.931,0,0,1-.875,1.248Zm0,0" transform="translate(-234.204 -297.586)"/>
      <path id="Trazado_901634" data-name="Trazado 901634" d="M134.149,117.7a.927.927,0,0,1-.714-.332l-1.8-2.139a.93.93,0,1,1,1.425-1.2l1.8,2.14a.93.93,0,0,1-.711,1.528Zm0,0" transform="translate(-116.126 -100.463)"/>
      <path id="Trazado_901635" data-name="Trazado 901635" d="M303.861,319.935a.928.928,0,0,1-.714-.332l-1.8-2.139a.93.93,0,0,1,1.426-1.2l1.8,2.138a.931.931,0,0,1-.711,1.529Zm0,0" transform="translate(-266.088 -279.167)"/>
      <path id="Trazado_901636" data-name="Trazado 901636" d="M102.627,155.261a.925.925,0,0,1-.464-.125l-2.419-1.395a.931.931,0,0,1,.929-1.613l2.419,1.395a.931.931,0,0,1-.466,1.738Zm0,0" transform="translate(-87.723 -134.314)"/>
      <path id="Trazado_901637" data-name="Trazado 901637" d="M331.273,287.254a.926.926,0,0,1-.465-.125l-2.418-1.4a.931.931,0,1,1,.931-1.613l2.418,1.4a.931.931,0,0,1-.466,1.737Zm0,0" transform="translate(-289.76 -250.944)"/>
      <path id="Trazado_901638" data-name="Trazado 901638" d="M85.861,201.355a.93.93,0,0,1-.162-.014l-2.75-.483a.931.931,0,1,1,.321-1.835l2.75.483a.931.931,0,0,1-.159,1.849Zm0,0" transform="translate(-72.614 -175.849)"/>
      <path id="Trazado_901639" data-name="Trazado 901639" d="M345.861,247.184a.93.93,0,0,1-.162-.014l-2.75-.483a.931.931,0,1,1,.321-1.835l2.75.484a.931.931,0,0,1-.159,1.848Zm0,0" transform="translate(-302.355 -216.344)"/>
      <path id="Trazado_901640" data-name="Trazado 901640" d="M83.109,247.188a.931.931,0,0,1-.161-1.847l2.75-.487a.931.931,0,1,1,.325,1.833l-2.75.487A.951.951,0,0,1,83.109,247.188Zm0,0" transform="translate(-72.615 -216.345)"/>
      <path id="Trazado_901641" data-name="Trazado 901641" d="M343.109,201.338a.931.931,0,0,1-.161-1.847L345.7,199a.931.931,0,1,1,.325,1.833l-2.749.487A.95.95,0,0,1,343.109,201.338Zm0,0" transform="translate(-302.356 -175.831)"/>
      <path id="Trazado_901642" data-name="Trazado 901642" d="M100.222,287.266a.931.931,0,0,1-.467-1.736l2.419-1.4a.931.931,0,1,1,.933,1.611l-2.419,1.4A.924.924,0,0,1,100.222,287.266Zm0,0" transform="translate(-87.735 -250.953)"/>
      <path id="Trazado_901643" data-name="Trazado 901643" d="M328.853,155.241a.931.931,0,0,1-.466-1.738l2.418-1.4a.931.931,0,1,1,.931,1.612l-2.418,1.4A.926.926,0,0,1,328.853,155.241Zm0,0" transform="translate(-289.758 -134.294)"/>
      <path id="Trazado_901644" data-name="Trazado 901644" d="M132.378,319.938a.931.931,0,0,1-.713-1.528l1.794-2.142a.931.931,0,0,1,1.427,1.194l-1.794,2.143A.928.928,0,0,1,132.378,319.938Zm0,0" transform="translate(-116.15 -279.166)"/>
      <path id="Trazado_901645" data-name="Trazado 901645" d="M302.054,117.689a.93.93,0,0,1-.713-1.528l1.795-2.141a.931.931,0,0,1,1.427,1.2l-1.795,2.14A.931.931,0,0,1,302.054,117.689Zm0,0" transform="translate(-266.079 -100.456)"/>
      <path id="Trazado_901646" data-name="Trazado 901646" d="M175.693,341.264a.948.948,0,0,1-.318-.056.932.932,0,0,1-.559-1.192l.953-2.626a.931.931,0,1,1,1.751.634l-.952,2.625A.93.93,0,0,1,175.693,341.264Zm0,0" transform="translate(-154.423 -297.583)"/>
      <path id="Trazado_901647" data-name="Trazado 901647" d="M265.959,93.169a.944.944,0,0,1-.318-.056.931.931,0,0,1-.557-1.193l.954-2.625a.931.931,0,1,1,1.749.636l-.954,2.626A.929.929,0,0,1,265.959,93.169Zm0,0" transform="translate(-234.184 -78.361)"/>
    </g>
  </g>
</svg>
