<svg xmlns="http://www.w3.org/2000/svg" xmlns:xlink="http://www.w3.org/1999/xlink" width="108" height="108" viewBox="0 0 108 108">
  <defs>
    <filter id="Trazado_896985" x="0" y="0" width="108" height="108" filterUnits="userSpaceOnUse">
      <feOffset dy="3" input="SourceAlpha"/>
      <feGaussianBlur stdDeviation="3" result="blur"/>
      <feFlood flood-opacity="0.161"/>
      <feComposite operator="in" in2="blur"/>
      <feComposite in="SourceGraphic"/>
    </filter>
  </defs>
  <g id="Grupo_1109879" data-name="Grupo 1109879" transform="translate(-747.781 -3826.914)">
    <g id="Grupo_1098742" data-name="Grupo 1098742" transform="translate(-446.539 3444.172)">
      <g transform="matrix(1, 0, 0, 1, 1194.32, 382.74)" filter="url(#Trazado_896985)">
        <g id="Trazado_896985-2" data-name="Trazado 896985" transform="translate(9 6)" fill="#fbd9ab" opacity="0.859">
          <path d="M 44.99993896484375 88.5 C 39.12682723999023 88.5 33.4301872253418 87.35007476806641 28.06826400756836 85.08217620849609 C 22.88850212097168 82.89132690429688 18.23627662658691 79.75461578369141 14.2408390045166 75.75916290283203 C 10.24540138244629 71.76372528076172 7.108676433563232 67.11151123046875 4.917826652526855 61.9317512512207 C 2.649926424026489 56.56982421875 1.500001430511475 50.87317657470703 1.500001430511475 45.00006103515625 C 1.500001430511475 39.12682342529297 2.649926424026489 33.4301872253418 4.917826652526855 28.06826210021973 C 7.108676433563232 22.88850021362305 10.24540138244629 18.23628807067871 14.2408390045166 14.24083709716797 C 18.23628807067871 10.24540042877197 22.88850212097168 7.108675003051758 28.06826400756836 4.917825222015381 C 33.4301872253418 2.649924993515015 39.12682723999023 1.5 44.99993896484375 1.5 C 50.87305068969727 1.5 56.5697021484375 2.649924993515015 61.93162536621094 4.917825222015381 C 67.11138916015625 7.108675003051758 71.76360321044922 10.24540042877197 75.75904083251953 14.24083709716797 C 79.75448608398438 18.23627471923828 82.89120483398438 22.88850021362305 85.08205413818359 28.06826210021973 C 87.34995269775391 33.4301872253418 88.4998779296875 39.12682342529297 88.4998779296875 44.99993896484375 C 88.4998779296875 50.87317657470703 87.34995269775391 56.56982421875 85.08205413818359 61.9317512512207 C 82.89120483398438 67.11151123046875 79.75448608398438 71.76372528076172 75.75904083251953 75.75916290283203 C 71.76360321044922 79.75461578369141 67.11138916015625 82.89132690429688 61.93162536621094 85.08217620849609 C 56.5697021484375 87.35007476806641 50.87305068969727 88.5 44.99993896484375 88.5 Z" stroke="none"/>
          <path d="M 44.99993896484375 3 C 39.32865142822266 3 33.82860946655273 4.110054016113281 28.65258026123047 6.299331665039062 C 23.65162658691406 8.414558410644531 19.15966796875 11.44332885742188 15.30149841308594 15.30149841308594 C 11.44332122802734 19.15966796875 8.41455078125 23.65162658691406 6.299324035644531 28.65258407592773 C 4.110054016113281 33.82861328125 2.999992370605469 39.32865524291992 2.999992370605469 45.00005722045898 C 2.999992370605469 50.67134475708008 4.110054016113281 56.17138671875 6.299324035644531 61.347412109375 C 8.41455078125 66.34837341308594 11.44332122802734 70.84033203125 15.30149841308594 74.69850158691406 C 19.15966796875 78.55667114257812 23.65162658691406 81.58544158935547 28.65258026123047 83.70066833496094 C 33.82860946655273 85.88994598388672 39.32865142822266 87 44.99993896484375 87 C 50.67122650146484 87 56.17126846313477 85.88994598388672 61.34729766845703 83.70066833496094 C 66.34825134277344 81.58544158935547 70.8402099609375 78.55667114257812 74.69837951660156 74.69850158691406 C 78.55654907226562 70.84033203125 81.5853271484375 66.34837341308594 83.70055389404297 61.347412109375 C 85.88982391357422 56.17138671875 86.9998779296875 50.67134475708008 86.9998779296875 44.99994277954102 C 86.9998779296875 39.32865524291992 85.88982391357422 33.82861328125 83.70055389404297 28.65258407592773 C 81.5853271484375 23.65162658691406 78.55654907226562 19.15966796875 74.69837951660156 15.30149841308594 C 70.8402099609375 11.44332885742188 66.34825134277344 8.414558410644531 61.34729766845703 6.299331665039062 C 56.17126846313477 4.110054016113281 50.67122650146484 3 44.99993896484375 3 M 44.99993896484375 0 C 69.85272216796875 0 89.99988555908203 20.14715576171875 89.99988555908203 44.99994277954102 L 89.99988555908203 45.00005722045898 C 89.99988555908203 69.85284423828125 69.85272216796875 90 44.99993896484375 90 C 20.14715576171875 90 -7.62939453125e-06 69.85284423828125 -7.62939453125e-06 45.00005722045898 L -7.62939453125e-06 44.99994277954102 C -7.62939453125e-06 20.14715576171875 20.14715576171875 0 44.99993896484375 0 Z" stroke="none" fill="#fff"/>
        </g>
      </g>
      <g id="Rectángulo_400907" data-name="Rectángulo 400907" transform="translate(1203.32 388.742)" fill="none" stroke="#fff" stroke-width="3">
        <rect width="90" height="90" rx="45" stroke="none"/>
        <rect x="1.5" y="1.5" width="87" height="87" rx="43.5" fill="none"/>
      </g>
    </g>
    <g id="acero" transform="translate(774.781 3850.914)">
      <g id="Grupo_1109990" data-name="Grupo 1109990" transform="translate(1.83 1.83)">
        <path id="Trazado_901527" data-name="Trazado 901527" d="M18.6,35.209H5.321A3.321,3.321,0,0,1,2,31.888V5.321A3.321,3.321,0,0,1,5.321,2H31.888a3.321,3.321,0,0,1,3.321,3.321V18.6Z" transform="translate(-2 -2)" fill="#9c9c9f"/>
        <path id="Trazado_901528" data-name="Trazado 901528" d="M30.228,2h-8.3L2,21.925v8.3Z" transform="translate(-2 -2)" fill="#cbcbcb"/>
        <circle id="Elipse_11538" data-name="Elipse 11538" cx="1.5" cy="1.5" r="1.5" transform="translate(4.644 4.644)" fill="#66676d"/>
        <circle id="Elipse_11539" data-name="Elipse 11539" cx="1.5" cy="1.5" r="1.5" transform="translate(4.644 25.644)" fill="#66676d"/>
        <path id="Trazado_901529" data-name="Trazado 901529" d="M51.888,55.209H25.321A3.321,3.321,0,0,1,22,51.888V25.321A3.321,3.321,0,0,1,25.321,22H51.888a3.321,3.321,0,0,1,3.321,3.321V51.888A3.321,3.321,0,0,1,51.888,55.209Z" transform="translate(-5.395 -5.395)" fill="#898a8d"/>
        <path id="Trazado_901530" data-name="Trazado 901530" d="M2,25.246,25.246,2h5.812L2,31.058Z" transform="translate(-2 -2)" fill="#adadae"/>
        <path id="Trazado_901531" data-name="Trazado 901531" d="M50.228,22h-8.3L22,41.925v8.3Z" transform="translate(-5.395 -5.395)" fill="#adadae"/>
        <path id="Trazado_901532" data-name="Trazado 901532" d="M22,45.246,45.246,22h5.812L22,51.058Z" transform="translate(-5.395 -5.395)" fill="#97989a"/>
        <path id="Trazado_901533" data-name="Trazado 901533" d="M57.077,40.472V33L33,57.077h7.472Z" transform="translate(-7.263 -7.263)" fill="#9c9c9f"/>
        <g id="Grupo_1109989" data-name="Grupo 1109989" transform="translate(20.756 4.151)">
          <circle id="Elipse_11540" data-name="Elipse 11540" cx="1.5" cy="1.5" r="1.5" transform="translate(4.888 0.493)" fill="#66676d"/>
          <circle id="Elipse_11541" data-name="Elipse 11541" cx="1.5" cy="1.5" r="1.5" transform="translate(-0.112 16.493)" fill="#66676d"/>
          <circle id="Elipse_11542" data-name="Elipse 11542" cx="1.5" cy="1.5" r="1.5" transform="translate(-0.112 38.493)" fill="#66676d"/>
          <circle id="Elipse_11543" data-name="Elipse 11543" cx="1.5" cy="1.5" r="1.5" transform="translate(21.888 16.493)" fill="#66676d"/>
          <circle id="Elipse_11544" data-name="Elipse 11544" cx="1.5" cy="1.5" r="1.5" transform="translate(21.888 38.493)" fill="#66676d"/>
        </g>
        <path id="Trazado_901534" data-name="Trazado 901534" d="M57.756,41.151l-16.6,16.6H37L57.756,37Z" transform="translate(-7.942 -7.942)" fill="#85868c"/>
      </g>
      <path id="Trazado_901535" data-name="Trazado 901535" d="M8.491,6a2.491,2.491,0,1,0,2.491,2.491A2.494,2.494,0,0,0,8.491,6Zm0,3.321a.83.83,0,1,1,.83-.83A.831.831,0,0,1,8.491,9.321Z" transform="translate(-0.849 -0.849)"/>
      <path id="Trazado_901536" data-name="Trazado 901536" d="M8.491,32a2.491,2.491,0,1,0,2.491,2.491A2.494,2.494,0,0,0,8.491,32Zm0,3.321a.83.83,0,1,1,.83-.83A.831.831,0,0,1,8.491,35.321Z" transform="translate(-0.849 -5.263)"/>
      <path id="Trazado_901537" data-name="Trazado 901537" d="M34.491,10.981A2.491,2.491,0,1,0,32,8.491,2.494,2.494,0,0,0,34.491,10.981Zm0-3.321a.83.83,0,1,1-.83.83A.831.831,0,0,1,34.491,7.66Z" transform="translate(-5.263 -0.849)"/>
      <path id="Trazado_901538" data-name="Trazado 901538" d="M48.323,17.6H35.87V5.151A4.156,4.156,0,0,0,31.718,1H5.151A4.156,4.156,0,0,0,1,5.151V31.718A4.156,4.156,0,0,0,5.151,35.87H17.6V48.323a4.156,4.156,0,0,0,4.151,4.151H48.323a4.156,4.156,0,0,0,4.151-4.151V21.756A4.156,4.156,0,0,0,48.323,17.6ZM17.6,21.756V34.209H5.151A2.494,2.494,0,0,1,2.66,31.718V5.151A2.494,2.494,0,0,1,5.151,2.66H31.718a2.494,2.494,0,0,1,2.491,2.491V17.6H21.756A4.156,4.156,0,0,0,17.6,21.756ZM50.814,48.323a2.494,2.494,0,0,1-2.491,2.491H21.756a2.494,2.494,0,0,1-2.491-2.491V21.756a2.494,2.494,0,0,1,2.491-2.491H48.323a2.494,2.494,0,0,1,2.491,2.491Z"/>
      <path id="Trazado_901539" data-name="Trazado 901539" d="M28.491,26a2.491,2.491,0,1,0,2.491,2.491A2.494,2.494,0,0,0,28.491,26Zm0,3.321a.83.83,0,1,1,.83-.83A.831.831,0,0,1,28.491,29.321Z" transform="translate(-4.244 -4.244)"/>
      <path id="Trazado_901540" data-name="Trazado 901540" d="M28.491,52a2.491,2.491,0,1,0,2.491,2.491A2.494,2.494,0,0,0,28.491,52Zm0,3.321a.83.83,0,1,1,.83-.83A.831.831,0,0,1,28.491,55.321Z" transform="translate(-4.244 -8.658)"/>
      <path id="Trazado_901541" data-name="Trazado 901541" d="M54.491,26a2.491,2.491,0,1,0,2.491,2.491A2.494,2.494,0,0,0,54.491,26Zm0,3.321a.83.83,0,1,1,.83-.83A.831.831,0,0,1,54.491,29.321Z" transform="translate(-8.658 -4.244)"/>
      <path id="Trazado_901542" data-name="Trazado 901542" d="M54.491,52a2.491,2.491,0,1,0,2.491,2.491A2.494,2.494,0,0,0,54.491,52Zm0,3.321a.83.83,0,1,1,.83-.83A.831.831,0,0,1,54.491,55.321Z" transform="translate(-8.658 -8.658)"/>
    </g>
  </g>
</svg>
