<svg xmlns="http://www.w3.org/2000/svg" xmlns:xlink="http://www.w3.org/1999/xlink" width="108" height="108" viewBox="0 0 108 108">
  <defs>
    <filter id="Trazado_896985" x="0" y="0" width="108" height="108" filterUnits="userSpaceOnUse">
      <feOffset dy="3" input="SourceAlpha"/>
      <feGaussianBlur stdDeviation="3" result="blur"/>
      <feFlood flood-opacity="0.161"/>
      <feComposite operator="in" in2="blur"/>
      <feComposite in="SourceGraphic"/>
    </filter>
  </defs>
  <g id="Grupo_1109878" data-name="Grupo 1109878" transform="translate(-747.781 -3826.914)">
    <g id="Grupo_1098742" data-name="Grupo 1098742" transform="translate(-446.539 3444.172)">
      <g transform="matrix(1, 0, 0, 1, 1194.32, 382.74)" filter="url(#Trazado_896985)">
        <g id="Trazado_896985-2" data-name="Trazado 896985" transform="translate(9 6)" fill="#cdd2dc" opacity="0.859">
          <path d="M 44.99993896484375 88.5 C 39.12682723999023 88.5 33.4301872253418 87.35007476806641 28.06826400756836 85.08217620849609 C 22.88850212097168 82.89132690429688 18.23627662658691 79.75461578369141 14.2408390045166 75.75916290283203 C 10.24540138244629 71.76372528076172 7.108676433563232 67.11151123046875 4.917826652526855 61.9317512512207 C 2.649926424026489 56.56982421875 1.500001430511475 50.87317657470703 1.500001430511475 45.00006103515625 C 1.500001430511475 39.12682342529297 2.649926424026489 33.4301872253418 4.917826652526855 28.06826210021973 C 7.108676433563232 22.88850021362305 10.24540138244629 18.23628807067871 14.2408390045166 14.24083709716797 C 18.23628807067871 10.24540042877197 22.88850212097168 7.108675003051758 28.06826400756836 4.917825222015381 C 33.4301872253418 2.649924993515015 39.12682723999023 1.5 44.99993896484375 1.5 C 50.87305068969727 1.5 56.5697021484375 2.649924993515015 61.93162536621094 4.917825222015381 C 67.11138916015625 7.108675003051758 71.76360321044922 10.24540042877197 75.75904083251953 14.24083709716797 C 79.75448608398438 18.23627471923828 82.89120483398438 22.88850021362305 85.08205413818359 28.06826210021973 C 87.34995269775391 33.4301872253418 88.4998779296875 39.12682342529297 88.4998779296875 44.99993896484375 C 88.4998779296875 50.87317657470703 87.34995269775391 56.56982421875 85.08205413818359 61.9317512512207 C 82.89120483398438 67.11151123046875 79.75448608398438 71.76372528076172 75.75904083251953 75.75916290283203 C 71.76360321044922 79.75461578369141 67.11138916015625 82.89132690429688 61.93162536621094 85.08217620849609 C 56.5697021484375 87.35007476806641 50.87305068969727 88.5 44.99993896484375 88.5 Z" stroke="none"/>
          <path d="M 44.99993896484375 3 C 39.32865142822266 3 33.82860946655273 4.110054016113281 28.65258026123047 6.299331665039062 C 23.65162658691406 8.414558410644531 19.15966796875 11.44332885742188 15.30149841308594 15.30149841308594 C 11.44332122802734 19.15966796875 8.41455078125 23.65162658691406 6.299324035644531 28.65258407592773 C 4.110054016113281 33.82861328125 2.999992370605469 39.32865524291992 2.999992370605469 45.00005722045898 C 2.999992370605469 50.67134475708008 4.110054016113281 56.17138671875 6.299324035644531 61.347412109375 C 8.41455078125 66.34837341308594 11.44332122802734 70.84033203125 15.30149841308594 74.69850158691406 C 19.15966796875 78.55667114257812 23.65162658691406 81.58544158935547 28.65258026123047 83.70066833496094 C 33.82860946655273 85.88994598388672 39.32865142822266 87 44.99993896484375 87 C 50.67122650146484 87 56.17126846313477 85.88994598388672 61.34729766845703 83.70066833496094 C 66.34825134277344 81.58544158935547 70.8402099609375 78.55667114257812 74.69837951660156 74.69850158691406 C 78.55654907226562 70.84033203125 81.5853271484375 66.34837341308594 83.70055389404297 61.347412109375 C 85.88982391357422 56.17138671875 86.9998779296875 50.67134475708008 86.9998779296875 44.99994277954102 C 86.9998779296875 39.32865524291992 85.88982391357422 33.82861328125 83.70055389404297 28.65258407592773 C 81.5853271484375 23.65162658691406 78.55654907226562 19.15966796875 74.69837951660156 15.30149841308594 C 70.8402099609375 11.44332885742188 66.34825134277344 8.414558410644531 61.34729766845703 6.299331665039062 C 56.17126846313477 4.110054016113281 50.67122650146484 3 44.99993896484375 3 M 44.99993896484375 0 C 69.85272216796875 0 89.99988555908203 20.14715576171875 89.99988555908203 44.99994277954102 L 89.99988555908203 45.00005722045898 C 89.99988555908203 69.85284423828125 69.85272216796875 90 44.99993896484375 90 C 20.14715576171875 90 -7.62939453125e-06 69.85284423828125 -7.62939453125e-06 45.00005722045898 L -7.62939453125e-06 44.99994277954102 C -7.62939453125e-06 20.14715576171875 20.14715576171875 0 44.99993896484375 0 Z" stroke="none" fill="#fff"/>
        </g>
      </g>
      <g id="Rectángulo_400907" data-name="Rectángulo 400907" transform="translate(1203.32 388.742)" fill="none" stroke="#fff" stroke-width="3">
        <rect width="90" height="90" rx="45" stroke="none"/>
        <rect x="1.5" y="1.5" width="87" height="87" rx="43.5" fill="none"/>
      </g>
    </g>
    <g id="bronce" transform="translate(764.53 3840.663)">
      <g id="Grupo_1109987" data-name="Grupo 1109987" transform="translate(6.208 6.207)">
        <path id="Trazado_901518" data-name="Trazado 901518" d="M84.893,7,69.378,25.409V46.37l6.334,9.07,14.6-9.4,7.3-13.293v-12Z" transform="translate(-35.269 -7)" fill="#fb7817"/>
        <path id="Trazado_901519" data-name="Trazado 901519" d="M17.587,28.3,7,50.625l5.219,21.8,16.889,6.562,5.274-17.206,1.083-18.336Z" transform="translate(-7 -16.655)" fill="#fb7817"/>
        <path id="Trazado_901520" data-name="Trazado 901520" d="M104.963,49.489,92.982,43.947,85.613,54.912l12.052,7.87Z" transform="translate(-42.627 -23.744)" fill="#f96419"/>
        <path id="Trazado_901521" data-name="Trazado 901521" d="M12.219,88.831,20.2,78.511,16.72,64.495,7,67.026Z" transform="translate(-7 -33.056)" fill="#f96419"/>
        <g id="Grupo_1109986" data-name="Grupo 1109986" transform="translate(9.72 0)">
          <path id="Trazado_901522" data-name="Trazado 901522" d="M25.643,28.3l-.867,19.79L28.257,62.11l8.907,16.881,5.274-17.206,1.083-18.336Z" transform="translate(-24.776 -16.655)" fill="#fc9f02"/>
          <path id="Trazado_901523" data-name="Trazado 901523" d="M75.712,55.44l2.544-17.272L85.624,27.2,84.893,7,69.378,25.409V46.37Z" transform="translate(-44.989 -7)" fill="#fc9f02"/>
        </g>
      </g>
      <g id="Grupo_1109988" data-name="Grupo 1109988" transform="translate(5.251 5.25)">
        <circle id="Elipse_11535" data-name="Elipse 11535" cx="1.094" cy="1.094" r="1.094" transform="translate(20.877 29.937)"/>
        <circle id="Elipse_11536" data-name="Elipse 11536" cx="1.094" cy="1.094" r="1.094" transform="translate(18.454 39.995)"/>
        <circle id="Elipse_11537" data-name="Elipse 11537" cx="1.094" cy="1.094" r="1.094" transform="translate(41.46 21.16)"/>
        <path id="Trazado_901524" data-name="Trazado 901524" d="M79.719,25.894a.954.954,0,0,0,.732-.34l1.755-2.083a.957.957,0,1,0-1.463-1.234L78.988,24.32a.957.957,0,0,0,.731,1.574Z" transform="translate(-38.566 -12.795)"/>
        <path id="Trazado_901525" data-name="Trazado 901525" d="M97.515,19.307,84.8,5.558a.957.957,0,0,0-1.434.033l-4.453,5.284a.957.957,0,1,0,1.463,1.234l2.855-3.385.63,17.414L76.669,36.841a.962.962,0,0,0-.153.394L74.324,52.123l-4.781-6.847V24.966l2.644-3.138A.957.957,0,1,0,70.723,20.6L67.854,24a.954.954,0,0,0-.225.617V45.577a.959.959,0,0,0,.172.547L74.134,55.2a.957.957,0,0,0,1.3.257l14.6-9.4a.957.957,0,0,0,.32-.344l7.3-13.293a.955.955,0,0,0,.118-.46v-12a.957.957,0,0,0-.254-.65Zm-1.66,11.148L85.767,25.788,85.15,8.752,95.856,20.331ZM78.194,38.994l9.564,6.246L76.173,52.7Zm10.979,4.888L78.8,37.1l6.372-9.481,10.31,4.769Z" transform="translate(-33.52 -5.25)"/>
        <path id="Trazado_901526" data-name="Trazado 901526" d="M17.413,26.781a.957.957,0,0,0-1.483.32L5.343,49.421a.959.959,0,0,0-.065.633l2.1,8.787A.957.957,0,0,0,9.239,58.4L7.356,50.521l7.874-2.051L18.369,61.1l-6.474,8.373L10.4,63.246a.957.957,0,1,0-1.859.445L10.5,71.859a.957.957,0,0,0,.584.669L27.971,79.09a.956.956,0,0,0,1.261-.611l3.814-12.443a.957.957,0,1,0-1.83-.561L28.08,75.7,20.31,60.974,16.89,47.2l.775-17.7L33.69,43.077,32.634,60.935a.957.957,0,0,0,.9,1.012h.057a.956.956,0,0,0,.954-.9L35.629,42.71a.956.956,0,0,0-.337-.786Zm8.858,49.6-13.306-5.17,6.288-8.13ZM15,46.553,7.949,48.389,15.632,32.2Z" transform="translate(-5.251 -14.905)"/>
      </g>
    </g>
  </g>
</svg>
