<svg xmlns="http://www.w3.org/2000/svg" xmlns:xlink="http://www.w3.org/1999/xlink" width="108" height="108" viewBox="0 0 108 108">
  <defs>
    <filter id="Trazado_896985" x="0" y="0" width="108" height="108" filterUnits="userSpaceOnUse">
      <feOffset dy="3" input="SourceAlpha"/>
      <feGaussianBlur stdDeviation="3" result="blur"/>
      <feFlood flood-opacity="0.161"/>
      <feComposite operator="in" in2="blur"/>
      <feComposite in="SourceGraphic"/>
    </filter>
  </defs>
  <g id="Grupo_1109993" data-name="Grupo 1109993" transform="translate(8.983 5.663)">
    <g id="Grupo_1098742" data-name="Grupo 1098742" transform="translate(0.017 0.337)">
      <g transform="matrix(1, 0, 0, 1, -9, -6)" filter="url(#Trazado_896985)">
        <g id="Trazado_896985-2" data-name="Trazado 896985" transform="translate(9 6)" fill="#8390aa" opacity="0.859">
          <path d="M 44.99993896484375 88.5 C 39.12682723999023 88.5 33.4301872253418 87.35007476806641 28.06826400756836 85.08217620849609 C 22.88850212097168 82.89132690429688 18.23627662658691 79.75461578369141 14.2408390045166 75.75916290283203 C 10.24540138244629 71.76372528076172 7.108676433563232 67.11151123046875 4.917826652526855 61.9317512512207 C 2.649926424026489 56.56982421875 1.500001430511475 50.87317657470703 1.500001430511475 45.00006103515625 C 1.500001430511475 39.12682342529297 2.649926424026489 33.4301872253418 4.917826652526855 28.06826210021973 C 7.108676433563232 22.88850021362305 10.24540138244629 18.23628807067871 14.2408390045166 14.24083709716797 C 18.23628807067871 10.24540042877197 22.88850212097168 7.108675003051758 28.06826400756836 4.917825222015381 C 33.4301872253418 2.649924993515015 39.12682723999023 1.5 44.99993896484375 1.5 C 50.87305068969727 1.5 56.5697021484375 2.649924993515015 61.93162536621094 4.917825222015381 C 67.11138916015625 7.108675003051758 71.76360321044922 10.24540042877197 75.75904083251953 14.24083709716797 C 79.75448608398438 18.23627471923828 82.89120483398438 22.88850021362305 85.08205413818359 28.06826210021973 C 87.34995269775391 33.4301872253418 88.4998779296875 39.12682342529297 88.4998779296875 44.99993896484375 C 88.4998779296875 50.87317657470703 87.34995269775391 56.56982421875 85.08205413818359 61.9317512512207 C 82.89120483398438 67.11151123046875 79.75448608398438 71.76372528076172 75.75904083251953 75.75916290283203 C 71.76360321044922 79.75461578369141 67.11138916015625 82.89132690429688 61.93162536621094 85.08217620849609 C 56.5697021484375 87.35007476806641 50.87305068969727 88.5 44.99993896484375 88.5 Z" stroke="none"/>
          <path d="M 44.99993896484375 3 C 39.32865142822266 3 33.82860946655273 4.110054016113281 28.65258026123047 6.299331665039062 C 23.65162658691406 8.414558410644531 19.15966796875 11.44332885742188 15.30149841308594 15.30149841308594 C 11.44332122802734 19.15966796875 8.41455078125 23.65162658691406 6.299324035644531 28.65258407592773 C 4.110054016113281 33.82861328125 2.999992370605469 39.32865524291992 2.999992370605469 45.00005722045898 C 2.999992370605469 50.67134475708008 4.110054016113281 56.17138671875 6.299324035644531 61.347412109375 C 8.41455078125 66.34837341308594 11.44332122802734 70.84033203125 15.30149841308594 74.69850158691406 C 19.15966796875 78.55667114257812 23.65162658691406 81.58544158935547 28.65258026123047 83.70066833496094 C 33.82860946655273 85.88994598388672 39.32865142822266 87 44.99993896484375 87 C 50.67122650146484 87 56.17126846313477 85.88994598388672 61.34729766845703 83.70066833496094 C 66.34825134277344 81.58544158935547 70.8402099609375 78.55667114257812 74.69837951660156 74.69850158691406 C 78.55654907226562 70.84033203125 81.5853271484375 66.34837341308594 83.70055389404297 61.347412109375 C 85.88982391357422 56.17138671875 86.9998779296875 50.67134475708008 86.9998779296875 44.99994277954102 C 86.9998779296875 39.32865524291992 85.88982391357422 33.82861328125 83.70055389404297 28.65258407592773 C 81.5853271484375 23.65162658691406 78.55654907226562 19.15966796875 74.69837951660156 15.30149841308594 C 70.8402099609375 11.44332885742188 66.34825134277344 8.414558410644531 61.34729766845703 6.299331665039062 C 56.17126846313477 4.110054016113281 50.67122650146484 3 44.99993896484375 3 M 44.99993896484375 0 C 69.85272216796875 0 89.99988555908203 20.14715576171875 89.99988555908203 44.99994277954102 L 89.99988555908203 45.00005722045898 C 89.99988555908203 69.85284423828125 69.85272216796875 90 44.99993896484375 90 C 20.14715576171875 90 -7.62939453125e-06 69.85284423828125 -7.62939453125e-06 45.00005722045898 L -7.62939453125e-06 44.99994277954102 C -7.62939453125e-06 20.14715576171875 20.14715576171875 0 44.99993896484375 0 Z" stroke="none" fill="#fff"/>
        </g>
      </g>
      <g id="Rectángulo_400907" data-name="Rectángulo 400907" transform="translate(0)" fill="none" stroke="#fff" stroke-width="3">
        <rect width="90" height="90" rx="45" stroke="none"/>
        <rect x="1.5" y="1.5" width="87" height="87" rx="43.5" fill="none"/>
      </g>
    </g>
    <g id="removedor-de-rayones" transform="translate(10.885 -13.635)">
      <g id="Grupo_1109998" data-name="Grupo 1109998" transform="translate(25.331 35.098)">
        <path id="Trazado_901674" data-name="Trazado 901674" d="M230.186,92.241,205.21,75.175a7.808,7.808,0,0,0-4.4-1.375h-12V86.9l3.13,15.638a1.376,1.376,0,0,1-1.139,1.611l.707,2.331.537-.17a1.06,1.06,0,0,1,1.31.707l.616,2.017.38,1.231a1.052,1.052,0,0,1-.694,1.31l-4.859,1.493v6.968h34.249a10.675,10.675,0,0,1,7.23-6.719V92.568ZM194.419,93.76V79.484h6.391a2.141,2.141,0,0,1,1.31.419L222.394,93.76Z" transform="translate(-188.8 -73.8)" fill="#f7d787"/>
      </g>
      <g id="Grupo_1109999" data-name="Grupo 1109999" transform="translate(25.344 81.33)">
        <path id="Trazado_901675" data-name="Trazado 901675" d="M222.481,430.467a11.062,11.062,0,0,0,.406,2.96H188.9V426.8h34.249A10.626,10.626,0,0,0,222.481,430.467Z" transform="translate(-188.9 -426.8)" fill="#f0be5f"/>
      </g>
      <g id="Grupo_1110000" data-name="Grupo 1110000" transform="translate(30.949 40.782)">
        <path id="Trazado_901676" data-name="Trazado 901676" d="M259.675,131.476H231.7V117.2h6.391a2.141,2.141,0,0,1,1.31.419Z" transform="translate(-231.7 -117.2)" fill="#dfeaf6"/>
      </g>
      <g id="Grupo_1110001" data-name="Grupo 1110001" transform="translate(4.572 34.495)">
        <path id="Trazado_901677" data-name="Trazado 901677" d="M54.2,98.524,48.321,69.2,30.3,74.714l11.538,27.6a1.338,1.338,0,0,0,1.624.773l.223-.065,9.377-2.868A1.4,1.4,0,0,0,54.2,98.524Zm-5.383-.838-3,.917a1.7,1.7,0,0,1-2.056-.969l-7.9-18.925a1.694,1.694,0,0,1,1.061-2.279L43.8,74.321A1.7,1.7,0,0,1,45.964,75.6L50,95.721A1.714,1.714,0,0,1,48.819,97.686Z" transform="translate(-30.3 -69.2)" fill="#e8707e"/>
      </g>
      <g id="Grupo_1110002" data-name="Grupo 1110002" transform="translate(10.003 39.543)">
        <path id="Trazado_901678" data-name="Trazado 901678" d="M84.857,131.179l-3,.917a1.7,1.7,0,0,1-2.056-.969L71.9,112.2a1.694,1.694,0,0,1,1.061-2.279l6.876-2.109A1.7,1.7,0,0,1,82,109.1l4.034,20.117A1.714,1.714,0,0,1,84.857,131.179Z" transform="translate(-71.769 -107.741)" fill="#dfeaf6"/>
      </g>
      <g id="Grupo_1110003" data-name="Grupo 1110003" transform="translate(1.363 29.977)">
        <path id="Trazado_901679" data-name="Trazado 901679" d="M27.855,34.7l-.825,4.518L9.009,44.732,5.8,41.445Z" transform="translate(-5.8 -34.7)" fill="#dfeaf6"/>
      </g>
      <g id="Grupo_1110004" data-name="Grupo 1110004" transform="translate(17.957 65.43)">
        <path id="Trazado_901680" data-name="Trazado 901680" d="M142.6,307.731l-9.312,2.855-.079.026-.707-2.331,9.377-2.881Z" transform="translate(-132.5 -305.4)" fill="#56778f"/>
      </g>
      <g id="Grupo_1110005" data-name="Grupo 1110005" transform="translate(18.049 70.316)">
        <path id="Trazado_901681" data-name="Trazado 901681" d="M133.2,346.524l.38,1.231a1.05,1.05,0,0,0,1.323.694l10.464-3.2a1.06,1.06,0,0,0,.694-1.323l-.38-1.231Z" transform="translate(-133.2 -342.7)" fill="#56778f"/>
      </g>
      <g id="Grupo_1110006" data-name="Grupo 1110006" transform="translate(17.387 67.546)">
        <path id="Trazado_901682" data-name="Trazado 901682" d="M128.193,326.119l.616,2.017,12.468-3.811-.616-2.017a1.06,1.06,0,0,0-1.31-.707l-10.464,3.2A1.072,1.072,0,0,0,128.193,326.119Z" transform="translate(-128.146 -321.555)" fill="#e8707e"/>
      </g>
      <g id="Grupo_1110007" data-name="Grupo 1110007" transform="translate(0.695 29.265)">
        <path id="Trazado_901683" data-name="Trazado 901683" d="M67.438,53.316a.76.76,0,0,0-.275-.367L42.174,35.884a8.442,8.442,0,0,0-4.807-1.493h-12a.7.7,0,0,0-.707.707v5.92L23.353,34.5l.8-4.387a.724.724,0,0,0-.9-.812c.013,0-22.055,6.745-22.055,6.745a.72.72,0,0,0-.3,1.179l3.13,3.2L15.508,67.88a2.027,2.027,0,0,0,2.017,1.257l.314,1.048A1.765,1.765,0,0,0,16.8,72.332c.236.773.76,2.5,1,3.248A1.783,1.783,0,0,0,20,76.759l4.676-1.428V87.97a.7.7,0,0,0,.707.707h34a.71.71,0,0,0,.681-.9,10.155,10.155,0,0,1,6.981-12.481.7.7,0,0,0,.524-.681V53.866a.665.665,0,0,0-.039-.223ZM29.26,68.5c.013.013.406,1.336.419,1.349L18.56,73.249l-.406-1.336c-.131-.445.485-.5.773-.589L28.3,68.456s.21-.065.223-.065c.249-.1.6-.236.733.1ZM26.9,66.321l.3.969-8.015,2.449-.3-.969ZM22.554,30.985l-.537,2.96c-1.139.354-15.612,4.78-17.2,5.265l-2.1-2.148ZM16.8,67.329,5.568,40.468,22.1,35.412c1.4,7.007,4.309,21.505,5.723,28.564.092.419-.249.707-.655.786L22.476,66.2l-4.911,1.506a.656.656,0,0,1-.76-.38ZM19.581,75.4c-.458.131-.485-.5-.6-.786L30.1,71.206c.065.288.393.851-.052.982l-2.475.76ZM26.09,87.25v-5.2H58.65a11.268,11.268,0,0,0-.17,5.2ZM66.154,74.074a11.31,11.31,0,0,0-7.007,6.548H26.09V74.886c1.061-.327,3.287-1.008,4.361-1.336a1.759,1.759,0,0,0,1.166-2.2l-.38-1.231c-.026-.026-.6-2-.629-2.043a1.81,1.81,0,0,0-2.056-1.192l-.314-1.035a2.1,2.1,0,0,0,.969-2.161L26.09,48.116V35.805H37.38a7.092,7.092,0,0,1,3.995,1.244L66.154,53.984Z" transform="translate(-0.695 -29.265)" fill="#231f20"/>
      </g>
      <g id="Grupo_1110008" data-name="Grupo 1110008" transform="translate(30.281 40.062)">
        <path id="Trazado_901684" data-name="Trazado 901684" d="M233.7,111.7h-6.391a.7.7,0,0,0-.707.707v14.276a.7.7,0,0,0,.707.707h27.975a.72.72,0,0,0,.681-.5.728.728,0,0,0-.275-.8L235.427,112.25A2.924,2.924,0,0,0,233.7,111.7Zm-5.684,14.276V113.128H233.7a1.526,1.526,0,0,1,.917.288l18.375,12.56Z" transform="translate(-226.6 -111.7)" fill="#231f20"/>
      </g>
      <g id="Grupo_1110009" data-name="Grupo 1110009" transform="translate(9.322 38.851)">
        <path id="Trazado_901685" data-name="Trazado 901685" d="M76.89,128.293a28.461,28.461,0,0,0,3.706-1.022,2.392,2.392,0,0,0,1.65-2.777l-4.034-20.1a2.423,2.423,0,0,0-3.065-1.82l-6.876,2.109a2.423,2.423,0,0,0-1.519,3.222l7.911,18.925A2.426,2.426,0,0,0,76.89,128.293Zm-8.8-21.741a.961.961,0,0,1,.6-.524l6.876-2.109a.973.973,0,0,1,.786.092.987.987,0,0,1,.458.655l4.034,20.1a.991.991,0,0,1-.681,1.139l-3,.917a.98.98,0,0,1-1.192-.563l-7.9-18.925A.918.918,0,0,1,68.089,106.552Z" transform="translate(-66.565 -102.461)" fill="#231f20"/>
      </g>
    </g>
  </g>
</svg>
