<svg xmlns="http://www.w3.org/2000/svg" xmlns:xlink="http://www.w3.org/1999/xlink" width="108" height="108" viewBox="0 0 108 108">
  <defs>
    <filter id="Trazado_896985" x="0" y="0" width="108" height="108" filterUnits="userSpaceOnUse">
      <feOffset dy="3" input="SourceAlpha"/>
      <feGaussianBlur stdDeviation="3" result="blur"/>
      <feFlood flood-opacity="0.161"/>
      <feComposite operator="in" in2="blur"/>
      <feComposite in="SourceGraphic"/>
    </filter>
  </defs>
  <g id="Grupo_1109880" data-name="Grupo 1109880" transform="translate(-747.781 -3827)">
    <g id="Grupo_1098742" data-name="Grupo 1098742" transform="translate(-446.539 3444.258)">
      <g transform="matrix(1, 0, 0, 1, 1194.32, 382.74)" filter="url(#Trazado_896985)">
        <g id="Trazado_896985-2" data-name="Trazado 896985" transform="translate(9 6)" fill="#fbd9ab" opacity="0.859">
          <path d="M 44.99993896484375 88.5 C 39.12682723999023 88.5 33.4301872253418 87.35007476806641 28.06826400756836 85.08217620849609 C 22.88850212097168 82.89132690429688 18.23627662658691 79.75461578369141 14.2408390045166 75.75916290283203 C 10.24540138244629 71.76372528076172 7.108676433563232 67.11151123046875 4.917826652526855 61.9317512512207 C 2.649926424026489 56.56982421875 1.500001430511475 50.87317657470703 1.500001430511475 45.00006103515625 C 1.500001430511475 39.12682342529297 2.649926424026489 33.4301872253418 4.917826652526855 28.06826210021973 C 7.108676433563232 22.88850021362305 10.24540138244629 18.23628807067871 14.2408390045166 14.24083709716797 C 18.23628807067871 10.24540042877197 22.88850212097168 7.108675003051758 28.06826400756836 4.917825222015381 C 33.4301872253418 2.649924993515015 39.12682723999023 1.5 44.99993896484375 1.5 C 50.87305068969727 1.5 56.5697021484375 2.649924993515015 61.93162536621094 4.917825222015381 C 67.11138916015625 7.108675003051758 71.76360321044922 10.24540042877197 75.75904083251953 14.24083709716797 C 79.75448608398438 18.23627471923828 82.89120483398438 22.88850021362305 85.08205413818359 28.06826210021973 C 87.34995269775391 33.4301872253418 88.4998779296875 39.12682342529297 88.4998779296875 44.99993896484375 C 88.4998779296875 50.87317657470703 87.34995269775391 56.56982421875 85.08205413818359 61.9317512512207 C 82.89120483398438 67.11151123046875 79.75448608398438 71.76372528076172 75.75904083251953 75.75916290283203 C 71.76360321044922 79.75461578369141 67.11138916015625 82.89132690429688 61.93162536621094 85.08217620849609 C 56.5697021484375 87.35007476806641 50.87305068969727 88.5 44.99993896484375 88.5 Z" stroke="none"/>
          <path d="M 44.99993896484375 3 C 39.32865142822266 3 33.82860946655273 4.110054016113281 28.65258026123047 6.299331665039062 C 23.65162658691406 8.414558410644531 19.15966796875 11.44332885742188 15.30149841308594 15.30149841308594 C 11.44332122802734 19.15966796875 8.41455078125 23.65162658691406 6.299324035644531 28.65258407592773 C 4.110054016113281 33.82861328125 2.999992370605469 39.32865524291992 2.999992370605469 45.00005722045898 C 2.999992370605469 50.67134475708008 4.110054016113281 56.17138671875 6.299324035644531 61.347412109375 C 8.41455078125 66.34837341308594 11.44332122802734 70.84033203125 15.30149841308594 74.69850158691406 C 19.15966796875 78.55667114257812 23.65162658691406 81.58544158935547 28.65258026123047 83.70066833496094 C 33.82860946655273 85.88994598388672 39.32865142822266 87 44.99993896484375 87 C 50.67122650146484 87 56.17126846313477 85.88994598388672 61.34729766845703 83.70066833496094 C 66.34825134277344 81.58544158935547 70.8402099609375 78.55667114257812 74.69837951660156 74.69850158691406 C 78.55654907226562 70.84033203125 81.5853271484375 66.34837341308594 83.70055389404297 61.347412109375 C 85.88982391357422 56.17138671875 86.9998779296875 50.67134475708008 86.9998779296875 44.99994277954102 C 86.9998779296875 39.32865524291992 85.88982391357422 33.82861328125 83.70055389404297 28.65258407592773 C 81.5853271484375 23.65162658691406 78.55654907226562 19.15966796875 74.69837951660156 15.30149841308594 C 70.8402099609375 11.44332885742188 66.34825134277344 8.414558410644531 61.34729766845703 6.299331665039062 C 56.17126846313477 4.110054016113281 50.67122650146484 3 44.99993896484375 3 M 44.99993896484375 0 C 69.85272216796875 0 89.99988555908203 20.14715576171875 89.99988555908203 44.99994277954102 L 89.99988555908203 45.00005722045898 C 89.99988555908203 69.85284423828125 69.85272216796875 90 44.99993896484375 90 C 20.14715576171875 90 -7.62939453125e-06 69.85284423828125 -7.62939453125e-06 45.00005722045898 L -7.62939453125e-06 44.99994277954102 C -7.62939453125e-06 20.14715576171875 20.14715576171875 0 44.99993896484375 0 Z" stroke="none" fill="#fff"/>
        </g>
      </g>
      <g id="Rectángulo_400907" data-name="Rectángulo 400907" transform="translate(1203.32 388.742)" fill="none" stroke="#fff" stroke-width="3">
        <rect width="90" height="90" rx="45" stroke="none"/>
        <rect x="1.5" y="1.5" width="87" height="87" rx="43.5" fill="none"/>
      </g>
    </g>
    <g id="acero_1_" data-name="acero (1)" transform="translate(773.479 3848.611)">
      <g id="Grupo_1109991" data-name="Grupo 1109991" transform="translate(1.881 1.881)">
        <path id="Trazado_901543" data-name="Trazado 901543" d="M50.439,54.843H6.4a4.4,4.4,0,0,1-4.4-4.4V6.4A4.4,4.4,0,0,1,6.4,2H50.439a4.4,4.4,0,0,1,4.4,4.4V50.439A4.4,4.4,0,0,1,50.439,54.843Z" transform="translate(-2 -2)" fill="#c7c8cc"/>
        <path id="Trazado_901544" data-name="Trazado 901544" d="M4,46.026v8.155a4.37,4.37,0,0,0,2.642.9H50.678a4.4,4.4,0,0,0,4.4-4.4V6.642A4.365,4.365,0,0,0,54.181,4H46.025A42.026,42.026,0,0,0,4,46.026Z" transform="translate(-2.239 -2.239)" fill="#e5e7ef"/>
        <path id="Trazado_901545" data-name="Trazado 901545" d="M14,21.046A7.046,7.046,0,0,0,21.046,14,7.046,7.046,0,0,0,14,21.046Z" transform="translate(-3.431 -3.431)" fill="#898a8d"/>
        <path id="Trazado_901546" data-name="Trazado 901546" d="M6,6a7.046,7.046,0,0,0,7.046,7.046A7.046,7.046,0,0,0,6,6Z" transform="translate(-2.477 -2.477)" fill="#66676d"/>
        <path id="Trazado_901547" data-name="Trazado 901547" d="M14,39.046A7.046,7.046,0,0,0,21.046,32,7.046,7.046,0,0,0,14,39.046Z" transform="translate(-3.431 -5.578)" fill="#898a8d"/>
        <path id="Trazado_901548" data-name="Trazado 901548" d="M6,24a7.046,7.046,0,0,0,7.046,7.046A7.046,7.046,0,0,0,6,24Z" transform="translate(-2.477 -4.624)" fill="#66676d"/>
        <path id="Trazado_901549" data-name="Trazado 901549" d="M14,57.046A7.046,7.046,0,0,0,21.046,50,7.046,7.046,0,0,0,14,57.046Z" transform="translate(-3.431 -7.726)" fill="#898a8d"/>
        <path id="Trazado_901550" data-name="Trazado 901550" d="M6,42a7.046,7.046,0,0,0,7.046,7.046A7.046,7.046,0,0,0,6,42Z" transform="translate(-2.477 -6.771)" fill="#66676d"/>
        <path id="Trazado_901551" data-name="Trazado 901551" d="M32,21.046A7.046,7.046,0,0,0,39.046,14,7.046,7.046,0,0,0,32,21.046Z" transform="translate(-5.578 -3.431)" fill="#898a8d"/>
        <path id="Trazado_901552" data-name="Trazado 901552" d="M24,6a7.046,7.046,0,0,0,7.046,7.046A7.046,7.046,0,0,0,24,6Z" transform="translate(-4.624 -2.477)" fill="#66676d"/>
        <path id="Trazado_901553" data-name="Trazado 901553" d="M32,39.046A7.046,7.046,0,0,0,39.046,32,7.046,7.046,0,0,0,32,39.046Z" transform="translate(-5.578 -5.578)" fill="#898a8d"/>
        <path id="Trazado_901554" data-name="Trazado 901554" d="M24,24a7.046,7.046,0,0,0,7.046,7.046A7.046,7.046,0,0,0,24,24Z" transform="translate(-4.624 -4.624)" fill="#66676d"/>
        <path id="Trazado_901555" data-name="Trazado 901555" d="M32,57.046A7.046,7.046,0,0,0,39.046,50,7.046,7.046,0,0,0,32,57.046Z" transform="translate(-5.578 -7.726)" fill="#898a8d"/>
        <path id="Trazado_901556" data-name="Trazado 901556" d="M24,42a7.046,7.046,0,0,0,7.046,7.046A7.046,7.046,0,0,0,24,42Z" transform="translate(-4.624 -6.771)" fill="#66676d"/>
        <path id="Trazado_901557" data-name="Trazado 901557" d="M50,21.046A7.046,7.046,0,0,0,57.046,14,7.046,7.046,0,0,0,50,21.046Z" transform="translate(-7.726 -3.431)" fill="#898a8d"/>
        <path id="Trazado_901558" data-name="Trazado 901558" d="M42,6a7.046,7.046,0,0,0,7.046,7.046A7.046,7.046,0,0,0,42,6Z" transform="translate(-6.771 -2.477)" fill="#66676d"/>
        <path id="Trazado_901559" data-name="Trazado 901559" d="M50,39.046A7.046,7.046,0,0,0,57.046,32,7.046,7.046,0,0,0,50,39.046Z" transform="translate(-7.726 -5.578)" fill="#898a8d"/>
        <path id="Trazado_901560" data-name="Trazado 901560" d="M42,24a7.046,7.046,0,0,0,7.046,7.046A7.046,7.046,0,0,0,42,24Z" transform="translate(-6.771 -4.624)" fill="#66676d"/>
        <path id="Trazado_901561" data-name="Trazado 901561" d="M50,57.046A7.046,7.046,0,0,0,57.046,50,7.046,7.046,0,0,0,50,57.046Z" transform="translate(-7.726 -7.726)" fill="#898a8d"/>
        <path id="Trazado_901562" data-name="Trazado 901562" d="M42,42a7.046,7.046,0,0,0,7.046,7.046A7.046,7.046,0,0,0,42,42Z" transform="translate(-6.771 -6.771)" fill="#66676d"/>
      </g>
      <path id="Trazado_901563" data-name="Trazado 901563" d="M50.32,1H6.284A5.29,5.29,0,0,0,1,6.284V50.32A5.29,5.29,0,0,0,6.284,55.6H50.32A5.29,5.29,0,0,0,55.6,50.32V6.284A5.29,5.29,0,0,0,50.32,1Zm3.523,49.32a3.526,3.526,0,0,1-3.523,3.523H6.284A3.526,3.526,0,0,1,2.761,50.32V6.284A3.526,3.526,0,0,1,6.284,2.761H50.32a3.526,3.526,0,0,1,3.523,3.523Z"/>
      <path id="Trazado_901564" data-name="Trazado 901564" d="M13.881,21.807a7.936,7.936,0,0,0,7.926-7.926A.88.88,0,0,0,20.926,13,7.936,7.936,0,0,0,13,20.926.88.88,0,0,0,13.881,21.807Zm6.091-6.972a6.178,6.178,0,0,1-5.136,5.136,6.178,6.178,0,0,1,5.136-5.136Z" transform="translate(-1.431 -1.431)"/>
      <path id="Trazado_901565" data-name="Trazado 901565" d="M12.926,13.807a.88.88,0,0,0,.881-.881A7.936,7.936,0,0,0,5.881,5,.88.88,0,0,0,5,5.881,7.936,7.936,0,0,0,12.926,13.807Zm-.955-1.835A6.178,6.178,0,0,1,6.835,6.835,6.178,6.178,0,0,1,11.972,11.972Z" transform="translate(-0.477 -0.477)"/>
      <path id="Trazado_901566" data-name="Trazado 901566" d="M13,38.926a.88.88,0,0,0,.881.881,7.936,7.936,0,0,0,7.926-7.926A.88.88,0,0,0,20.926,31,7.936,7.936,0,0,0,13,38.926Zm1.835-.955a6.178,6.178,0,0,1,5.136-5.136,6.178,6.178,0,0,1-5.136,5.136Z" transform="translate(-1.431 -3.578)"/>
      <path id="Trazado_901567" data-name="Trazado 901567" d="M12.926,31.807a.88.88,0,0,0,.881-.881A7.936,7.936,0,0,0,5.881,23,.88.88,0,0,0,5,23.881,7.936,7.936,0,0,0,12.926,31.807Zm-.955-1.835a6.178,6.178,0,0,1-5.136-5.136A6.178,6.178,0,0,1,11.972,29.972Z" transform="translate(-0.477 -2.624)"/>
      <path id="Trazado_901568" data-name="Trazado 901568" d="M20.926,49A7.936,7.936,0,0,0,13,56.926a.88.88,0,0,0,.881.881,7.936,7.936,0,0,0,7.926-7.926A.88.88,0,0,0,20.926,49Zm-6.091,6.972a6.178,6.178,0,0,1,5.136-5.136,6.178,6.178,0,0,1-5.136,5.136Z" transform="translate(-1.431 -5.726)"/>
      <path id="Trazado_901569" data-name="Trazado 901569" d="M13.807,48.926A7.936,7.936,0,0,0,5.881,41,.88.88,0,0,0,5,41.881a7.936,7.936,0,0,0,7.926,7.926A.88.88,0,0,0,13.807,48.926ZM6.835,42.835a6.178,6.178,0,0,1,5.136,5.136A6.178,6.178,0,0,1,6.835,42.835Z" transform="translate(-0.477 -4.771)"/>
      <path id="Trazado_901570" data-name="Trazado 901570" d="M31.881,21.807a7.936,7.936,0,0,0,7.926-7.926A.88.88,0,0,0,38.926,13,7.936,7.936,0,0,0,31,20.926.88.88,0,0,0,31.881,21.807Zm6.091-6.972a6.178,6.178,0,0,1-5.136,5.136,6.178,6.178,0,0,1,5.136-5.136Z" transform="translate(-3.578 -1.431)"/>
      <path id="Trazado_901571" data-name="Trazado 901571" d="M30.926,13.807a.88.88,0,0,0,.881-.881A7.936,7.936,0,0,0,23.881,5,.88.88,0,0,0,23,5.881,7.936,7.936,0,0,0,30.926,13.807Zm-.955-1.835a6.178,6.178,0,0,1-5.136-5.136A6.178,6.178,0,0,1,29.972,11.972Z" transform="translate(-2.624 -0.477)"/>
      <path id="Trazado_901572" data-name="Trazado 901572" d="M31.881,39.807a7.936,7.936,0,0,0,7.926-7.926A.88.88,0,0,0,38.926,31,7.936,7.936,0,0,0,31,38.926.88.88,0,0,0,31.881,39.807Zm6.091-6.972a6.178,6.178,0,0,1-5.136,5.136A6.178,6.178,0,0,1,37.972,32.835Z" transform="translate(-3.578 -3.578)"/>
      <path id="Trazado_901573" data-name="Trazado 901573" d="M31.807,30.926A7.936,7.936,0,0,0,23.881,23a.88.88,0,0,0-.881.881,7.936,7.936,0,0,0,7.926,7.926A.88.88,0,0,0,31.807,30.926Zm-6.972-6.091a6.178,6.178,0,0,1,5.136,5.136A6.178,6.178,0,0,1,24.835,24.835Z" transform="translate(-2.624 -2.624)"/>
      <path id="Trazado_901574" data-name="Trazado 901574" d="M38.926,49A7.936,7.936,0,0,0,31,56.926a.88.88,0,0,0,.881.881,7.936,7.936,0,0,0,7.926-7.926A.88.88,0,0,0,38.926,49Zm-6.091,6.972a6.178,6.178,0,0,1,5.136-5.136A6.178,6.178,0,0,1,32.835,55.972Z" transform="translate(-3.578 -5.726)"/>
      <path id="Trazado_901575" data-name="Trazado 901575" d="M31.807,48.926A7.936,7.936,0,0,0,23.881,41a.88.88,0,0,0-.881.881,7.936,7.936,0,0,0,7.926,7.926A.88.88,0,0,0,31.807,48.926Zm-6.972-6.091a6.178,6.178,0,0,1,5.136,5.136A6.178,6.178,0,0,1,24.835,42.835Z" transform="translate(-2.624 -4.771)"/>
      <path id="Trazado_901576" data-name="Trazado 901576" d="M56.926,13A7.936,7.936,0,0,0,49,20.926a.88.88,0,0,0,.881.881,7.936,7.936,0,0,0,7.926-7.926A.88.88,0,0,0,56.926,13Zm-6.091,6.972a6.178,6.178,0,0,1,5.136-5.136A6.178,6.178,0,0,1,50.835,19.972Z" transform="translate(-5.726 -1.431)"/>
      <path id="Trazado_901577" data-name="Trazado 901577" d="M48.926,13.807a.88.88,0,0,0,.881-.881A7.936,7.936,0,0,0,41.881,5,.88.88,0,0,0,41,5.881,7.936,7.936,0,0,0,48.926,13.807Zm-.955-1.835a6.178,6.178,0,0,1-5.136-5.136A6.178,6.178,0,0,1,47.972,11.972Z" transform="translate(-4.771 -0.477)"/>
      <path id="Trazado_901578" data-name="Trazado 901578" d="M56.926,31A7.936,7.936,0,0,0,49,38.926a.88.88,0,0,0,.881.881,7.936,7.936,0,0,0,7.926-7.926A.88.88,0,0,0,56.926,31Zm-6.091,6.972a6.178,6.178,0,0,1,5.136-5.136A6.178,6.178,0,0,1,50.835,37.972Z" transform="translate(-5.726 -3.578)"/>
      <path id="Trazado_901579" data-name="Trazado 901579" d="M41,23.881a7.936,7.936,0,0,0,7.926,7.926.88.88,0,0,0,.881-.881A7.936,7.936,0,0,0,41.881,23,.88.88,0,0,0,41,23.881Zm6.972,6.091a6.178,6.178,0,0,1-5.136-5.136A6.178,6.178,0,0,1,47.972,29.972Z" transform="translate(-4.771 -2.624)"/>
      <path id="Trazado_901580" data-name="Trazado 901580" d="M56.926,49A7.936,7.936,0,0,0,49,56.926a.88.88,0,0,0,.881.881,7.936,7.936,0,0,0,7.926-7.926A.88.88,0,0,0,56.926,49Zm-6.091,6.972a6.178,6.178,0,0,1,5.136-5.136A6.178,6.178,0,0,1,50.835,55.972Z" transform="translate(-5.726 -5.726)"/>
      <path id="Trazado_901581" data-name="Trazado 901581" d="M49.807,48.926A7.936,7.936,0,0,0,41.881,41a.88.88,0,0,0-.881.881,7.936,7.936,0,0,0,7.926,7.926A.88.88,0,0,0,49.807,48.926Zm-6.972-6.091a6.178,6.178,0,0,1,5.136,5.136A6.178,6.178,0,0,1,42.835,42.835Z" transform="translate(-4.771 -4.771)"/>
    </g>
  </g>
</svg>
