<svg xmlns="http://www.w3.org/2000/svg" width="128" height="128" viewBox="0 0 128 128">
  <g id="Grupo_1109981" data-name="Grupo 1109981" transform="translate(-656.051 -6459)">
    <circle id="Elipse_11524" data-name="Elipse 11524" cx="64" cy="64" r="64" transform="translate(656.051 6459)" fill="#8390aa"/>
    <g id="reaccion-quimica" transform="translate(681.051 6483.987)">
      <g id="Grupo_1109979" data-name="Grupo 1109979" transform="translate(2.226 2.223)">
        <g id="Grupo_1109956" data-name="Grupo 1109956" transform="translate(0 44.138)">
          <path id="Trazado_901482" data-name="Trazado 901482" d="M25.3,40.452h1.226a4.9,4.9,0,0,0,0,9.809V62.521a4.9,4.9,0,0,0,4.9,4.9H8.13a6.127,6.127,0,0,1-.821-12.2,3.187,3.187,0,0,1,.159-.441,7.374,7.374,0,0,1,6.792-4.524,4.878,4.878,0,0,0-2.428-4.23c-.012-.221-.025-.441-.025-.674A7.362,7.362,0,0,1,19.165,38a6.526,6.526,0,0,1,1.312.123h.012A6.092,6.092,0,0,0,25.3,40.452Z" transform="translate(-2 -38)" fill="#e6e9ed"/>
        </g>
        <g id="Grupo_1109957" data-name="Grupo 1109957" transform="translate(17.165 31.878)">
          <path id="Trazado_901483" data-name="Trazado 901483" d="M35.617,34.13v3.678H22.13A1.23,1.23,0,0,0,20.9,39.035v2.452a1.23,1.23,0,0,0,1.226,1.226,6.13,6.13,0,1,1,2.182-11.868,6.592,6.592,0,0,1,1.1-1.3,6.132,6.132,0,0,1,10.2,4.585Z" transform="translate(-16 -28)" fill="#e6e9ed"/>
        </g>
        <g id="Grupo_1109958" data-name="Grupo 1109958" transform="translate(24.521 24.521)">
          <path id="Trazado_901484" data-name="Trazado 901484" d="M41.617,22a4.906,4.906,0,0,1,2.844,8.9,6.132,6.132,0,0,0-10.2,4.585A6.132,6.132,0,0,0,24.06,30.9,4.906,4.906,0,0,1,26.9,22v1.226H41.617Z" transform="translate(-22 -22)" fill="#e6e9ed"/>
        </g>
        <g id="Grupo_1109959" data-name="Grupo 1109959" transform="translate(36.782 31.878)">
          <path id="Trazado_901485" data-name="Trazado 901485" d="M45.487,37.809H32V34.13a6.132,6.132,0,0,1,10.2-4.585,6.592,6.592,0,0,1,1.1,1.3,6.151,6.151,0,0,1,8.313,5.738,6.138,6.138,0,0,1-6.13,6.13,1.23,1.23,0,0,0,1.226-1.226V39.035A1.23,1.23,0,0,0,45.487,37.809Z" transform="translate(-32 -28)" fill="#e6e9ed"/>
        </g>
        <g id="Grupo_1109960" data-name="Grupo 1109960" transform="translate(44.138 44.138)">
          <path id="Trazado_901486" data-name="Trazado 901486" d="M62.117,55.226a6.127,6.127,0,0,1-.821,12.2H38a4.9,4.9,0,0,0,4.9-4.9V50.261a4.9,4.9,0,1,0,0-9.809H44.13a6.092,6.092,0,0,0,4.806-2.33h.012A6.526,6.526,0,0,1,50.261,38a7.362,7.362,0,0,1,7.356,7.356c0,.233-.012.454-.025.674a4.878,4.878,0,0,0-2.428,4.23,7.374,7.374,0,0,1,6.792,4.524A3.188,3.188,0,0,1,62.117,55.226Z" transform="translate(-38 -38)" fill="#e6e9ed"/>
        </g>
        <g id="Grupo_1109961" data-name="Grupo 1109961" transform="translate(19.617 46.591)">
          <path id="Trazado_901487" data-name="Trazado 901487" d="M22.9,44.9v4.9A4.9,4.9,0,0,1,22.9,40Z" transform="translate(-18 -40)" fill="#69d6f4"/>
        </g>
        <g id="Grupo_1109962" data-name="Grupo 1109962" transform="translate(2.452 51.495)">
          <path id="Trazado_901488" data-name="Trazado 901488" d="M11.381,44.674a4.878,4.878,0,0,1,2.428,4.23,7.374,7.374,0,0,0-6.792,4.524,4.9,4.9,0,1,1,4.365-8.754Z" transform="translate(-4 -44)" fill="#69d6f4"/>
        </g>
        <g id="Grupo_1109963" data-name="Grupo 1109963" transform="translate(2.452 19.617)">
          <circle id="Elipse_11528" data-name="Elipse 11528" cx="7.356" cy="7.356" r="7.356" fill="#69d6f4"/>
        </g>
        <g id="Grupo_1109964" data-name="Grupo 1109964" transform="translate(53.947 24.521)">
          <circle id="Elipse_11529" data-name="Elipse 11529" cx="2.452" cy="2.452" r="2.452" transform="translate(0 0)" fill="#69d6f4"/>
        </g>
        <g id="Grupo_1109965" data-name="Grupo 1109965" transform="translate(63.756 33.104)">
          <circle id="Elipse_11530" data-name="Elipse 11530" cx="4.904" cy="4.904" r="4.904" fill="#69d6f4"/>
        </g>
        <g id="Grupo_1109966" data-name="Grupo 1109966" transform="translate(61.303 51.495)">
          <path id="Trazado_901489" data-name="Trazado 901489" d="M52,48.9a4.9,4.9,0,1,1,6.792,4.524A7.374,7.374,0,0,0,52,48.9Z" transform="translate(-52 -44)" fill="#69d6f4"/>
        </g>
        <g id="Grupo_1109967" data-name="Grupo 1109967" transform="translate(49.043 46.591)">
          <path id="Trazado_901490" data-name="Trazado 901490" d="M42,40a4.9,4.9,0,1,1,0,9.809Z" transform="translate(-42 -40)" fill="#69d6f4"/>
        </g>
        <g id="Grupo_1109968" data-name="Grupo 1109968" transform="translate(14.713 63.756)">
          <circle id="Elipse_11531" data-name="Elipse 11531" cx="2.452" cy="2.452" r="2.452" fill="#69d6f4"/>
        </g>
        <g id="Grupo_1109969" data-name="Grupo 1109969" transform="translate(53.947 63.756)">
          <circle id="Elipse_11532" data-name="Elipse 11532" cx="2.452" cy="2.452" r="2.452" fill="#69d6f4"/>
        </g>
        <g id="Grupo_1109970" data-name="Grupo 1109970" transform="translate(22.069 41.686)">
          <path id="Trazado_901491" data-name="Trazado 901491" d="M49.426,37.226v2.452A1.23,1.23,0,0,1,48.2,40.9H21.226A1.23,1.23,0,0,1,20,39.678V37.226A1.23,1.23,0,0,1,21.226,36H48.2A1.23,1.23,0,0,1,49.426,37.226Z" transform="translate(-20 -36)" fill="#aab2bd"/>
        </g>
        <g id="Grupo_1109971" data-name="Grupo 1109971" transform="translate(24.521 46.591)">
          <path id="Trazado_901492" data-name="Trazado 901492" d="M22,59.617V40H46.521V62.069a4.9,4.9,0,0,1-4.9,4.9H26.9a4.9,4.9,0,0,1-4.9-4.9Z" transform="translate(-22 -40)" fill="#ffeaa7"/>
        </g>
        <g id="Grupo_1109972" data-name="Grupo 1109972" transform="translate(36.782 63.756)">
          <circle id="Elipse_11533" data-name="Elipse 11533" cx="2.452" cy="2.452" r="2.452" fill="#4fc1e9"/>
        </g>
        <g id="Grupo_1109973" data-name="Grupo 1109973" transform="translate(39.234 51.495)">
          <circle id="Elipse_11534" data-name="Elipse 11534" cx="2.452" cy="2.452" r="2.452" fill="#4fc1e9"/>
        </g>
        <g id="Grupo_1109974" data-name="Grupo 1109974" transform="translate(0 4.904)">
          <path id="Trazado_901493" data-name="Trazado 901493" d="M24.069,6h4.9v9.809H6.9A4.9,4.9,0,0,1,6.9,6H24.069Z" transform="translate(-2 -6)" fill="#ffeaa7"/>
        </g>
        <g id="Grupo_1109975" data-name="Grupo 1109975" transform="translate(26.973 2.452)">
          <path id="Trazado_901494" data-name="Trazado 901494" d="M28.9,16.261v1.226a1.23,1.23,0,0,1-1.226,1.226H25.226A1.23,1.23,0,0,1,24,17.487V5.226A1.23,1.23,0,0,1,25.226,4h2.452A1.23,1.23,0,0,1,28.9,5.226Z" transform="translate(-24 -4)" fill="#fcd770"/>
        </g>
        <g id="Grupo_1109976" data-name="Grupo 1109976" transform="translate(41.686 4.904)">
          <path id="Trazado_901495" data-name="Trazado 901495" d="M40.9,15.809v1.226a1.23,1.23,0,0,1-1.226,1.226H37.226A1.23,1.23,0,0,1,36,17.035V7.226A1.23,1.23,0,0,1,37.226,6h2.452A1.23,1.23,0,0,1,40.9,7.226v8.582Z" transform="translate(-36 -6)" fill="#b4dd7f"/>
        </g>
        <g id="Grupo_1109977" data-name="Grupo 1109977" transform="translate(46.591)">
          <path id="Trazado_901496" data-name="Trazado 901496" d="M49.809,16.713H40V9.356h9.809L59.826,2.674a4.07,4.07,0,0,1,4.487,0l1.569,1.054a2.428,2.428,0,0,1,1.091,2.035v8.5c-2.857,0-2.857,2.452-5.713,2.452s-2.869-2.452-5.726-2.452S52.665,16.713,49.809,16.713Z" transform="translate(-40 -2)" fill="#e6e9ed"/>
        </g>
        <g id="Grupo_1109978" data-name="Grupo 1109978" transform="translate(56.399 12.261)">
          <path id="Trazado_901497" data-name="Trazado 901497" d="M65.165,12v6.045a2.428,2.428,0,0,1-1.091,2.035L62.5,21.134a4.07,4.07,0,0,1-4.487,0L48,14.452c2.857,0,2.857-2.452,5.726-2.452s2.857,2.452,5.726,2.452S62.308,12,65.165,12Z" transform="translate(-48 -12)" fill="#69d6f4"/>
        </g>
      </g>
      <g id="Grupo_1109980" data-name="Grupo 1109980" transform="translate(1 1.013)">
        <path id="Trazado_901498" data-name="Trazado 901498" d="M68.144,2.927,66.578,1.882a5.361,5.361,0,0,0-5.852,0L51.02,8.353H42.809A2.455,2.455,0,0,0,40.356,5.9H37.9a2.455,2.455,0,0,0-2.452,2.452v7.582A3.673,3.673,0,0,0,33,19.388V27.97h2.452V19.388a1.208,1.208,0,0,1,.119-.51A2.448,2.448,0,0,0,37.9,20.614h2.452a2.455,2.455,0,0,0,2.452-2.452H51.02l9.706,6.47a5.274,5.274,0,0,0,5.853,0l1.566-1.045a3.669,3.669,0,0,0,1.638-3.059V5.987a3.673,3.673,0,0,0-1.638-3.06ZM40.356,18.162H37.9V8.353h2.453Zm2.452-2.452v-4.9h2.452v2.452h2.452V10.806h2.452v2.452h2.452V10.235l9.469-6.312a2.869,2.869,0,0,1,3.133,0l1.566,1.045a1.222,1.222,0,0,1,.546,1.019v7.408A5.539,5.539,0,0,0,64.9,14.779a2.752,2.752,0,0,1-4.126,0,5.161,5.161,0,0,0-7.318,0,2.772,2.772,0,0,1-2.063.931Zm23.976,5.839-1.566,1.045a2.869,2.869,0,0,1-3.133,0l-7.9-5.27a10.139,10.139,0,0,0,.869-.682,2.75,2.75,0,0,1,4.126,0,5.158,5.158,0,0,0,7.316,0,5.444,5.444,0,0,1,.835-.627v4.514A1.222,1.222,0,0,1,66.784,21.548Z" transform="translate(6.234 -1.013)"/>
        <path id="Trazado_901499" data-name="Trazado 901499" d="M7.13,17.713H27.973a2.455,2.455,0,0,0,2.452,2.452h2.452a2.448,2.448,0,0,0,2.333-1.736,1.208,1.208,0,0,1,.119.51v8.582h2.452V18.939a3.673,3.673,0,0,0-2.452-3.453V5.452A2.455,2.455,0,0,0,32.878,3H30.426a2.455,2.455,0,0,0-2.452,2.452H7.13a6.13,6.13,0,0,0,0,12.261Zm23.3-12.261h2.452V17.713H30.426ZM7.13,7.9H8.356v4.9h2.452V7.9h2.452v2.452h2.452V7.9h2.452v4.9h2.452V7.9h2.452v2.452h2.452V7.9h2.452v7.356H7.13a3.678,3.678,0,0,1,0-7.356Z" transform="translate(-1 -0.564)"/>
        <path id="Trazado_901500" data-name="Trazado 901500" d="M34.678,53a3.678,3.678,0,1,0,3.678,3.678A3.683,3.683,0,0,0,34.678,53Zm0,4.9A1.226,1.226,0,1,1,35.9,56.678,1.228,1.228,0,0,1,34.678,57.9Z" transform="translate(5.782 10.739)"/>
        <path id="Trazado_901501" data-name="Trazado 901501" d="M36.678,43a3.678,3.678,0,1,0,3.678,3.678A3.683,3.683,0,0,0,36.678,43Zm0,4.9A1.226,1.226,0,1,1,37.9,46.678,1.228,1.228,0,0,1,36.678,47.9Z" transform="translate(6.234 8.479)"/>
        <path id="Trazado_901502" data-name="Trazado 901502" d="M3,25.582A8.582,8.582,0,1,0,11.582,17,8.592,8.592,0,0,0,3,25.582Zm14.713,0a6.13,6.13,0,1,1-6.13-6.13A6.137,6.137,0,0,1,17.713,25.582Z" transform="translate(-0.548 2.601)"/>
        <path id="Trazado_901503" data-name="Trazado 901503" d="M10,23.452a1.228,1.228,0,0,1,1.226,1.226h2.452A3.683,3.683,0,0,0,10,21Z" transform="translate(1.035 3.505)"/>
        <path id="Trazado_901504" data-name="Trazado 901504" d="M16.678,53a3.678,3.678,0,1,0,3.678,3.678A3.683,3.683,0,0,0,16.678,53Zm0,4.9A1.226,1.226,0,1,1,17.9,56.678,1.228,1.228,0,0,1,16.678,57.9Z" transform="translate(1.713 10.739)"/>
        <path id="Trazado_901505" data-name="Trazado 901505" d="M72.713,58.928a6.113,6.113,0,0,0-5.581-10.357,8.592,8.592,0,0,0-7.724-7.463,7.335,7.335,0,0,0-6.913-9.848,7.422,7.422,0,0,0-1.333.12,6.115,6.115,0,0,0-3.572-9.8V19H45.138v7.356h2.452V24.13A3.661,3.661,0,0,1,49.135,30a7.334,7.334,0,0,0-10.127,2.109A7.334,7.334,0,0,0,28.881,30a3.661,3.661,0,0,1,1.545-5.868v2.227h2.452V19H30.426v2.576a6.115,6.115,0,0,0-3.572,9.8,7.364,7.364,0,0,0-8.689,7.236,7.3,7.3,0,0,0,.444,2.491,8.59,8.59,0,0,0-7.724,7.463A6.116,6.116,0,0,0,5.3,58.928,7.338,7.338,0,0,0,8.356,72.947h61.3a7.338,7.338,0,0,0,3.053-14.019Zm-.6-4.372A3.668,3.668,0,0,1,70.8,57.372a8.588,8.588,0,0,0-5.858-3.916,3.668,3.668,0,0,1,7.17,1.1Zm-26.973-23.3a4.909,4.909,0,0,1,4.9,4.9h2.452a7.288,7.288,0,0,0-.416-2.414c.139-.012.275-.038.416-.038a4.889,4.889,0,0,1,2.452,9.127v-1.77a2.455,2.455,0,0,0-2.452-2.452H40.234V36.165A4.909,4.909,0,0,1,45.138,31.261ZM25.521,46.2v6.9a3.656,3.656,0,0,1,0-6.9Zm0-2.678V41.069H52.495v2.452H25.521ZM52.495,46.2a3.657,3.657,0,0,1,0,6.905ZM25.521,33.713c.141,0,.277.026.416.038a7.288,7.288,0,0,0-.416,2.414h2.452a4.9,4.9,0,1,1,9.809,0v2.452H25.521a2.455,2.455,0,0,0-2.452,2.452v1.77a4.889,4.889,0,0,1,2.452-9.127ZM9.582,50.878a3.653,3.653,0,0,1,3.478,2.581,8.587,8.587,0,0,0-5.845,3.915,3.679,3.679,0,0,1,2.366-6.5ZM3.452,65.591a4.915,4.915,0,0,1,2.482-4.254c-.013.191-.029.381-.029.576a8.674,8.674,0,0,0,.119,1.43l2.419-.407a6.037,6.037,0,0,1-.086-1.023A6.133,6.133,0,0,1,17.551,56.6l1.229-2.121A8.56,8.56,0,0,0,15.6,53.4a6.115,6.115,0,0,0-2.334-3.719c0-.011,0-.022,0-.033a5.968,5.968,0,0,1,6.851-6.067,7.4,7.4,0,0,0,2.336,1.707,6.123,6.123,0,0,0,3.074,10.366V66.817a6.067,6.067,0,0,0,1.258,3.678H8.356a4.909,4.909,0,0,1-4.9-4.9Zm28.2,4.9a3.683,3.683,0,0,1-3.678-3.678V65.591h4.9V63.138h-4.9V60.686H35.33V58.234H27.973V55.782h4.9V53.33h-4.9V50.878H35.33V48.426H27.973V45.973H50.043V66.817a3.683,3.683,0,0,1-3.678,3.678Zm38.008,0H51.237a6.067,6.067,0,0,0,1.258-3.678V55.658a6.123,6.123,0,0,0,3.074-10.366A7.361,7.361,0,0,0,57.9,43.585a5.968,5.968,0,0,1,6.851,6.067c0,.011,0,.022,0,.033A6.121,6.121,0,0,0,62.42,53.4a8.56,8.56,0,0,0-3.183,1.076L60.466,56.6a6.135,6.135,0,0,1,9.11,6.334l2.419.407a8.809,8.809,0,0,0,.118-1.43c0-.195-.016-.385-.029-.576a4.9,4.9,0,0,1-2.423,9.159Z" transform="translate(-1 3.053)"/>
        <path id="Trazado_901506" data-name="Trazado 901506" d="M48.678,53a3.678,3.678,0,1,0,3.678,3.678A3.683,3.683,0,0,0,48.678,53Zm0,4.9A1.226,1.226,0,1,1,49.9,56.678,1.228,1.228,0,0,1,48.678,57.9Z" transform="translate(8.947 10.739)"/>
        <path id="Trazado_901507" data-name="Trazado 901507" d="M59.13,28a6.13,6.13,0,1,0,6.13,6.13A6.137,6.137,0,0,0,59.13,28Zm0,9.809a3.678,3.678,0,1,1,3.678-3.678A3.683,3.683,0,0,1,59.13,37.809Z" transform="translate(10.756 5.088)"/>
        <path id="Trazado_901508" data-name="Trazado 901508" d="M52.356,24.678a3.678,3.678,0,1,0-3.678,3.678A3.683,3.683,0,0,0,52.356,24.678Zm-4.9,0A1.226,1.226,0,1,1,48.678,25.9,1.228,1.228,0,0,1,47.452,24.678Z" transform="translate(8.947 3.505)"/>
      </g>
    </g>
  </g>
</svg>
