<svg xmlns="http://www.w3.org/2000/svg" xmlns:xlink="http://www.w3.org/1999/xlink" width="108" height="108" viewBox="0 0 108 108">
  <defs>
    <filter id="Trazado_896985" x="0" y="0" width="108" height="108" filterUnits="userSpaceOnUse">
      <feOffset dy="3" input="SourceAlpha"/>
      <feGaussianBlur stdDeviation="3" result="blur"/>
      <feFlood flood-opacity="0.161"/>
      <feComposite operator="in" in2="blur"/>
      <feComposite in="SourceGraphic"/>
    </filter>
  </defs>
  <g id="Grupo_1109994" data-name="Grupo 1109994" transform="translate(8.983 5.663)">
    <g id="Grupo_1098742" data-name="Grupo 1098742" transform="translate(0.017 0.337)">
      <g transform="matrix(1, 0, 0, 1, -9, -6)" filter="url(#Trazado_896985)">
        <g id="Trazado_896985-2" data-name="Trazado 896985" transform="translate(9 6)" fill="#8390aa" opacity="0.859">
          <path d="M 44.99993896484375 88.5 C 39.12682723999023 88.5 33.4301872253418 87.35007476806641 28.06826400756836 85.08217620849609 C 22.88850212097168 82.89132690429688 18.23627662658691 79.75461578369141 14.2408390045166 75.75916290283203 C 10.24540138244629 71.76372528076172 7.108676433563232 67.11151123046875 4.917826652526855 61.9317512512207 C 2.649926424026489 56.56982421875 1.500001430511475 50.87317657470703 1.500001430511475 45.00006103515625 C 1.500001430511475 39.12682342529297 2.649926424026489 33.4301872253418 4.917826652526855 28.06826210021973 C 7.108676433563232 22.88850021362305 10.24540138244629 18.23628807067871 14.2408390045166 14.24083709716797 C 18.23628807067871 10.24540042877197 22.88850212097168 7.108675003051758 28.06826400756836 4.917825222015381 C 33.4301872253418 2.649924993515015 39.12682723999023 1.5 44.99993896484375 1.5 C 50.87305068969727 1.5 56.5697021484375 2.649924993515015 61.93162536621094 4.917825222015381 C 67.11138916015625 7.108675003051758 71.76360321044922 10.24540042877197 75.75904083251953 14.24083709716797 C 79.75448608398438 18.23627471923828 82.89120483398438 22.88850021362305 85.08205413818359 28.06826210021973 C 87.34995269775391 33.4301872253418 88.4998779296875 39.12682342529297 88.4998779296875 44.99993896484375 C 88.4998779296875 50.87317657470703 87.34995269775391 56.56982421875 85.08205413818359 61.9317512512207 C 82.89120483398438 67.11151123046875 79.75448608398438 71.76372528076172 75.75904083251953 75.75916290283203 C 71.76360321044922 79.75461578369141 67.11138916015625 82.89132690429688 61.93162536621094 85.08217620849609 C 56.5697021484375 87.35007476806641 50.87305068969727 88.5 44.99993896484375 88.5 Z" stroke="none"/>
          <path d="M 44.99993896484375 3 C 39.32865142822266 3 33.82860946655273 4.110054016113281 28.65258026123047 6.299331665039062 C 23.65162658691406 8.414558410644531 19.15966796875 11.44332885742188 15.30149841308594 15.30149841308594 C 11.44332122802734 19.15966796875 8.41455078125 23.65162658691406 6.299324035644531 28.65258407592773 C 4.110054016113281 33.82861328125 2.999992370605469 39.32865524291992 2.999992370605469 45.00005722045898 C 2.999992370605469 50.67134475708008 4.110054016113281 56.17138671875 6.299324035644531 61.347412109375 C 8.41455078125 66.34837341308594 11.44332122802734 70.84033203125 15.30149841308594 74.69850158691406 C 19.15966796875 78.55667114257812 23.65162658691406 81.58544158935547 28.65258026123047 83.70066833496094 C 33.82860946655273 85.88994598388672 39.32865142822266 87 44.99993896484375 87 C 50.67122650146484 87 56.17126846313477 85.88994598388672 61.34729766845703 83.70066833496094 C 66.34825134277344 81.58544158935547 70.8402099609375 78.55667114257812 74.69837951660156 74.69850158691406 C 78.55654907226562 70.84033203125 81.5853271484375 66.34837341308594 83.70055389404297 61.347412109375 C 85.88982391357422 56.17138671875 86.9998779296875 50.67134475708008 86.9998779296875 44.99994277954102 C 86.9998779296875 39.32865524291992 85.88982391357422 33.82861328125 83.70055389404297 28.65258407592773 C 81.5853271484375 23.65162658691406 78.55654907226562 19.15966796875 74.69837951660156 15.30149841308594 C 70.8402099609375 11.44332885742188 66.34825134277344 8.414558410644531 61.34729766845703 6.299331665039062 C 56.17126846313477 4.110054016113281 50.67122650146484 3 44.99993896484375 3 M 44.99993896484375 0 C 69.85272216796875 0 89.99988555908203 20.14715576171875 89.99988555908203 44.99994277954102 L 89.99988555908203 45.00005722045898 C 89.99988555908203 69.85284423828125 69.85272216796875 90 44.99993896484375 90 C 20.14715576171875 90 -7.62939453125e-06 69.85284423828125 -7.62939453125e-06 45.00005722045898 L -7.62939453125e-06 44.99994277954102 C -7.62939453125e-06 20.14715576171875 20.14715576171875 0 44.99993896484375 0 Z" stroke="none" fill="#fff"/>
        </g>
      </g>
      <g id="Rectángulo_400907" data-name="Rectángulo 400907" transform="translate(0)" fill="none" stroke="#fff" stroke-width="3">
        <rect width="90" height="90" rx="45" stroke="none"/>
        <rect x="1.5" y="1.5" width="87" height="87" rx="43.5" fill="none"/>
      </g>
    </g>
    <g id="color" transform="translate(17.016 7.35)">
      <g id="Shadow" transform="translate(0.44 11.427)">
        <g id="Grupo_1110012" data-name="Grupo 1110012" transform="translate(0 0)">
          <g id="Grupo_1110011" data-name="Grupo 1110011" transform="translate(18.384)">
            <path id="Trazado_901686" data-name="Trazado 901686" d="M219.751,29.115V20.1a5.108,5.108,0,1,0-10.216,0v9.02Z" transform="translate(-205.324 -14.987)" fill="#3a313a"/>
            <path id="Trazado_901687" data-name="Trazado 901687" d="M224.828,143.5v17.627c0,2.416-4.393,6.947-4.393,6.947s-4.393-4.531-4.393-6.947V143.5Z" transform="translate(-211.117 -129.373)" fill="#dedbee"/>
            <g id="Grupo_1110010" data-name="Grupo 1110010" transform="translate(0 12.885)">
              <path id="Trazado_901688" data-name="Trazado 901688" d="M188.627,134.683H172.474a1.243,1.243,0,0,1,0-2.485h16.153a1.243,1.243,0,0,1,0,2.485Z" transform="translate(-171.232 -132.198)" fill="#3a313a"/>
            </g>
          </g>
          <path id="Trazado_901689" data-name="Trazado 901689" d="M14.658,93.917a17.041,17.041,0,0,1,3.87-9.342l-7.536-7.536A27.635,27.635,0,0,0,4,93.917Z" transform="translate(-4 -70.217)" fill="#ffd15b"/>
          <path id="Trazado_901690" data-name="Trazado 901690" d="M18.528,268.8a17.041,17.041,0,0,1-3.87-9.342H4a27.634,27.634,0,0,0,6.992,16.878Z" transform="translate(-4 -232.58)" fill="#6fd7a3"/>
          <path id="Trazado_901691" data-name="Trazado 901691" d="M379.719,259.453a17.04,17.04,0,0,1-3.87,9.342l7.536,7.536a27.636,27.636,0,0,0,6.992-16.878Z" transform="translate(-334.97 -232.578)" fill="#9257ff"/>
          <path id="Trazado_901692" data-name="Trazado 901692" d="M375.849,84.575a17.041,17.041,0,0,1,3.87,9.342h10.658a27.634,27.634,0,0,0-6.992-16.878Z" transform="translate(-334.97 -70.217)" fill="#fd4755"/>
          <path id="Trazado_901693" data-name="Trazado 901693" d="M104.906,368.733a17.04,17.04,0,0,1-9.342-3.87L88.028,372.4a27.636,27.636,0,0,0,16.878,6.992Z" transform="translate(-78.791 -326.4)" fill="#01d0fb"/>
          <path id="Trazado_901694" data-name="Trazado 901694" d="M279.787,364.86a17.04,17.04,0,0,1-9.342,3.87v10.658a27.635,27.635,0,0,0,16.878-6.992Z" transform="translate(-241.154 -326.397)" fill="#09176b"/>
        </g>
      </g>
      <g id="Base" transform="translate(1.897 12.027)">
        <path id="Trazado_901695" data-name="Trazado 901695" d="M222.075,31.353V24.565a4.119,4.119,0,1,1,8.237,0v6.788Z" transform="translate(-199.558 -20.446)" fill="#685e68"/>
        <path id="Trazado_901696" data-name="Trazado 901696" d="M231.987,181.146c-1.708-1.922-3.4-4.328-3.4-5.488v-15.4h6.806v15.4C235.39,176.818,233.695,179.224,231.987,181.146Z" transform="translate(-205.352 -144.892)" fill="#f9f7f8"/>
        <path id="Trazado_901697" data-name="Trazado 901697" d="M184.025,138.163a.253.253,0,1,1,0-.506h16.153a.253.253,0,0,1,0,.506Z" transform="translate(-165.466 -124.772)" fill="#685e68"/>
        <path id="Trazado_901698" data-name="Trazado 901698" d="M17.254,101.167a26.937,26.937,0,0,1,5.98-14.434l6.159,6.158a18.02,18.02,0,0,0-3.428,8.275Z" transform="translate(-17.254 -79.446)" fill="#fee45a"/>
        <path id="Trazado_901699" data-name="Trazado 901699" d="M23.234,279.348a26.936,26.936,0,0,1-5.98-14.434h8.71a18.022,18.022,0,0,0,3.428,8.275Z" transform="translate(-17.254 -238.039)" fill="#9be69d"/>
        <path id="Trazado_901700" data-name="Trazado 901700" d="M391.413,273.187a18.02,18.02,0,0,0,3.428-8.275h8.71a26.937,26.937,0,0,1-5.98,14.434Z" transform="translate(-350.28 -238.037)" fill="#be9bff"/>
        <path id="Trazado_901701" data-name="Trazado 901701" d="M394.84,101.167a18.024,18.024,0,0,0-3.428-8.275l6.158-6.158a26.935,26.935,0,0,1,5.98,14.434Z" transform="translate(-350.28 -79.446)" fill="#fe646f"/>
        <path id="Trazado_901702" data-name="Trazado 901702" d="M119.238,385.48A26.936,26.936,0,0,1,104.8,379.5l6.158-6.158a18.021,18.021,0,0,0,8.275,3.428Z" transform="translate(-95.179 -334.547)" fill="#62dbfb"/>
        <path id="Trazado_901703" data-name="Trazado 901703" d="M282.985,376.769a18.022,18.022,0,0,0,8.275-3.428l6.158,6.158a26.936,26.936,0,0,1-14.434,5.98Z" transform="translate(-253.772 -334.546)" fill="#09176b"/>
      </g>
      <g id="Outline" transform="translate(0.001 10.987)">
        <path id="Trazado_901704" data-name="Trazado 901704" d="M168.915,27.237h3.244V43.182c0,2.565,4.332,7.063,4.517,7.253a.44.44,0,0,0,.631,0c.184-.19,4.517-4.688,4.517-7.253V27.237h3.244a1.682,1.682,0,0,0,0-3.365h-2.529V16.535a5.548,5.548,0,1,0-11.1,0v7.337h-2.528a1.682,1.682,0,0,0,0,3.365Zm0-2.485h16.153a.8.8,0,0,1,0,1.606H168.915a.8.8,0,0,1,0-1.606Zm8.076-12.885a4.674,4.674,0,0,1,4.668,4.668v7.337h-9.337V16.535A4.674,4.674,0,0,1,176.991,11.866Zm0,37.622c-1.341-1.448-3.953-4.618-3.953-6.307V27.237h7.906V43.182C180.944,44.871,178.332,48.041,176.991,49.489Z" transform="translate(-148.849 -10.987)"/>
        <path id="Trazado_901705" data-name="Trazado 901705" d="M.44,90.8H11.1a.44.44,0,0,0,.438-.4,16.564,16.564,0,0,1,3.77-9.1.44.44,0,0,0-.027-.592L7.743,73.167a.435.435,0,0,0-.323-.129.44.44,0,0,0-.316.147A28.246,28.246,0,0,0,0,90.331.44.44,0,0,0,.44,90.8Zm13.936-9.752A17.429,17.429,0,0,0,10.7,89.916H.91a27.376,27.376,0,0,1,6.544-15.8Z" transform="translate(-0.001 -66.216)"/>
        <path id="Trazado_901706" data-name="Trazado 901706" d="M7.42,273.213h.013a.44.44,0,0,0,.311-.129l7.536-7.536a.44.44,0,0,0,.027-.592,16.565,16.565,0,0,1-3.77-9.1.44.44,0,0,0-.438-.4H.44A.44.44,0,0,0,0,255.92a28.248,28.248,0,0,0,7.1,17.146.439.439,0,0,0,.316.147ZM10.7,256.334a17.428,17.428,0,0,0,3.675,8.872L7.453,272.13a27.376,27.376,0,0,1-6.544-15.8Z" transform="translate(-0.001 -228.58)"/>
        <path id="Trazado_901707" data-name="Trazado 901707" d="M380.153,273.064a28.247,28.247,0,0,0,7.1-17.146.44.44,0,0,0-.439-.464H376.158a.44.44,0,0,0-.438.4,16.563,16.563,0,0,1-3.77,9.1.44.44,0,0,0,.027.592l7.536,7.536a.44.44,0,0,0,.311.129h.013A.44.44,0,0,0,380.153,273.064ZM372.88,265.2a17.428,17.428,0,0,0,3.675-8.872h9.792a27.376,27.376,0,0,1-6.544,15.8Z" transform="translate(-330.97 -228.578)"/>
        <path id="Trazado_901708" data-name="Trazado 901708" d="M375.72,90.4a.44.44,0,0,0,.438.4h10.658a.44.44,0,0,0,.439-.464,28.245,28.245,0,0,0-7.1-17.146.44.44,0,0,0-.639-.018l-7.536,7.536a.44.44,0,0,0-.027.592A16.563,16.563,0,0,1,375.72,90.4ZM379.8,74.123a27.375,27.375,0,0,1,6.544,15.8h-9.792a17.429,17.429,0,0,0-3.675-8.872Z" transform="translate(-330.97 -66.219)"/>
        <path id="Trazado_901709" data-name="Trazado 901709" d="M84.028,368.851a.44.44,0,0,0,.147.316,28.247,28.247,0,0,0,17.146,7.1h.025a.44.44,0,0,0,.44-.44V365.172a.44.44,0,0,0-.4-.438,16.562,16.562,0,0,1-9.1-3.77.44.44,0,0,0-.592.027l-7.536,7.536A.439.439,0,0,0,84.028,368.851Zm16.878-3.282v9.792a27.377,27.377,0,0,1-15.8-6.544l6.923-6.923A17.428,17.428,0,0,0,100.906,365.568Z" transform="translate(-74.79 -322.4)"/>
        <path id="Trazado_901710" data-name="Trazado 901710" d="M266.444,365.171V375.83a.44.44,0,0,0,.44.44h.025a28.247,28.247,0,0,0,17.146-7.1.44.44,0,0,0,.018-.639l-7.536-7.536a.44.44,0,0,0-.592-.027,16.563,16.563,0,0,1-9.1,3.77A.44.44,0,0,0,266.444,365.171Zm.879.4a17.427,17.427,0,0,0,8.872-3.675l6.923,6.923a27.376,27.376,0,0,1-15.8,6.544Z" transform="translate(-237.153 -322.399)"/>
      </g>
    </g>
  </g>
</svg>
