<svg xmlns="http://www.w3.org/2000/svg" xmlns:xlink="http://www.w3.org/1999/xlink" width="108.914" height="108.914" viewBox="0 0 108.914 108.914">
  <defs>
    <filter id="Trazado_874925" x="0" y="0" width="108.914" height="108.914" filterUnits="userSpaceOnUse">
      <feOffset dy="3" input="SourceAlpha"/>
      <feGaussianBlur stdDeviation="3" result="blur"/>
      <feFlood flood-opacity="0.161"/>
      <feComposite operator="in" in2="blur"/>
      <feComposite in="SourceGraphic"/>
    </filter>
  </defs>
  <g id="Grupo_1109894" data-name="Grupo 1109894" transform="translate(-815.051 -2496)">
    <g transform="matrix(1, 0, 0, 1, 815.05, 2496)" filter="url(#Trazado_874925)">
      <g id="Trazado_874925-2" data-name="Trazado 874925" transform="translate(9 6)" fill="#fec8b0" opacity="0.859">
        <path d="M 45.45676803588867 89.41407012939453 C 39.52198028564453 89.41407012939453 33.76551818847656 88.25206756591797 28.34726715087891 85.96034240722656 C 23.11311721801758 83.74648284912109 18.41204261779785 80.57682800292969 14.37464332580566 76.5394287109375 C 10.33724308013916 72.50202941894531 7.167593002319336 67.80095672607422 4.953730583190918 62.56679534912109 C 2.662005424499512 57.14855575561523 1.500005483627319 51.39208221435547 1.500005483627319 45.45729446411133 C 1.500005483627319 39.52198028564453 2.662005424499512 33.76551818847656 4.953730583190918 28.34726905822754 C 7.167593002319336 23.11310577392578 10.33724308013916 18.41203117370605 14.37464332580566 14.37464332580566 C 18.41204261779785 10.33724403381348 23.11311721801758 7.167593955993652 28.34726715087891 4.953731060028076 C 33.76551818847656 2.662006139755249 39.52198028564453 1.500006198883057 45.45676803588867 1.500006198883057 C 51.39155578613281 1.500006198883057 57.14802932739258 2.662006139755249 62.56626892089844 4.953731060028076 C 67.80043029785156 7.167593955993652 72.50150299072266 10.33724403381348 76.53890228271484 14.37464332580566 C 80.57630920410156 18.41203117370605 83.74595642089844 23.11310577392578 85.95981597900391 28.34726905822754 C 88.25154113769531 33.76551818847656 89.41354370117188 39.52198028564453 89.41354370117188 45.45676803588867 C 89.41354370117188 51.39208221435547 88.25154113769531 57.14855575561523 85.95981597900391 62.56679534912109 C 83.74595642089844 67.80095672607422 80.57630920410156 72.50202941894531 76.53890228271484 76.5394287109375 C 72.50150299072266 80.57682800292969 67.80043029785156 83.74648284912109 62.56626892089844 85.96034240722656 C 57.14802932739258 88.25206756591797 51.39155578613281 89.41407012939453 45.45676803588867 89.41407012939453 Z" stroke="none"/>
        <path d="M 45.45676803588867 3 C 39.72381210327148 3 34.1639404296875 4.12213134765625 28.93159484863281 6.335227966308594 C 23.87622833251953 8.473472595214844 19.33542633056641 11.53517150878906 15.43529510498047 15.435302734375 C 11.53517150878906 19.33543395996094 8.473464965820312 23.87622833251953 6.335227966308594 28.93160247802734 C 4.122123718261719 34.16394424438477 3 39.72381591796875 3 45.4572868347168 C 3 51.19024658203125 4.122123718261719 56.75011825561523 6.335227966308594 61.98246002197266 C 8.473464965820312 67.03782653808594 11.53517150878906 71.57862854003906 15.43529510498047 75.478759765625 C 19.33542633056641 79.37889099121094 23.87622833251953 82.44058990478516 28.93159484863281 84.57883453369141 C 34.1639404296875 86.79193115234375 39.72381210327148 87.9140625 45.45676803588867 87.9140625 C 51.18972396850586 87.9140625 56.74959564208984 86.79193115234375 61.98194122314453 84.57883453369141 C 67.03730773925781 82.44058990478516 71.57810974121094 79.37889099121094 75.47824096679688 75.478759765625 C 79.37837219238281 71.57862854003906 82.44007110595703 67.03782653808594 84.57830810546875 61.98246002197266 C 86.79141235351562 56.75011825561523 87.91353607177734 51.19024658203125 87.91353607177734 45.4567756652832 C 87.91353607177734 39.72381591796875 86.79141235351562 34.16394424438477 84.57830810546875 28.93160247802734 C 82.44007110595703 23.87622833251953 79.37837219238281 19.33543395996094 75.47824096679688 15.435302734375 C 71.57810974121094 11.53517150878906 67.03730773925781 8.473472595214844 61.98194122314453 6.335227966308594 C 56.74959564208984 4.12213134765625 51.18972396850586 3 45.45676803588867 3 M 45.45676803588867 0 C 70.56185150146484 0 90.91353607177734 20.35169219970703 90.91353607177734 45.4567756652832 L 90.91353607177734 45.4572868347168 C 90.91353607177734 70.5623779296875 70.56185150146484 90.9140625 45.45676803588867 90.9140625 C 20.3516845703125 90.9140625 0 70.5623779296875 0 45.4572868347168 L 0 45.4567756652832 C 0 20.35169219970703 20.3516845703125 0 45.45676803588867 0 Z" stroke="none" fill="#fff"/>
      </g>
    </g>
    <g id="iman" transform="translate(835.416 2513.504)">
      <path id="Trazado_901288" data-name="Trazado 901288" d="M134.228,171.3l-3.885-3.885,1.388-3.607,3.607-1.387,3.885,3.885-1.387,3.607Z" transform="translate(-109.076 -137.952)" fill="#fc6"/>
      <path id="Trazado_901289" data-name="Trazado 901289" d="M0,0H3.138V6.281H0Z" transform="translate(16.267 37.79) rotate(-45)" fill="#c6c3d8"/>
      <path id="Trazado_901290" data-name="Trazado 901290" d="M23.426,299.055a3.922,3.922,0,0,0,0,5.55l-4.437,4.437a10.2,10.2,0,0,1,0-14.433l3.884-3.884,4.437,4.445Z" transform="translate(-6.6 -252.935)" fill="#6fabe6"/>
      <path id="Trazado_901291" data-name="Trazado 901291" d="M63.118,391.462l-3.884,3.884a10.232,10.232,0,0,1-14.433,0l4.437-4.437a3.923,3.923,0,0,0,5.55,0c.868-.87,3.043-3.041,3.884-3.884C59.76,388.113,62.042,390.393,63.118,391.462Z" transform="translate(-32.413 -339.24)" fill="#f26674"/>
      <path id="Trazado_901292" data-name="Trazado 901292" d="M185.114,370.087l-2.218,2.219c-1.072-1.065-3.364-3.355-4.445-4.437l2.219-2.219C181.756,366.738,184.037,369.018,185.114,370.087Z" transform="translate(-152.19 -320.084)" fill="#c6c3d8"/>
      <path id="Trazado_901293" data-name="Trazado 901293" d="M309.043,18.984l-4.437,4.437a3.923,3.923,0,0,0-5.55,0l-3.884,3.884c-1.05-1.046-3.422-3.412-4.445-4.437l3.884-3.884a10.2,10.2,0,0,1,11.755-1.923l.008.008A9.864,9.864,0,0,1,309.043,18.984Z" transform="translate(-252.812 -6.719)" fill="#f26674"/>
      <path id="Trazado_901294" data-name="Trazado 901294" d="M276.015,86.662,273.8,88.881c-1.05-1.046-3.422-3.412-4.445-4.437l2.219-2.219,1.689,1.681v.008Z" transform="translate(-233.656 -66.076)" fill="#c6c3d8"/>
      <path id="Trazado_901295" data-name="Trazado 901295" d="M395.347,59.233l-3.884,3.884-4.437-4.445,3.885-3.884a3.922,3.922,0,0,0,0-5.55l4.437-4.437A10.2,10.2,0,0,1,395.347,59.233Z" transform="translate(-339.116 -32.536)" fill="#6fabe6"/>
      <path id="Trazado_901296" data-name="Trazado 901296" d="M0,0H3.138V6.281H0Z" transform="translate(45.683 28.359) rotate(-45)" fill="#c6c3d8"/>
      <path id="Trazado_901297" data-name="Trazado 901297" d="M233.77,217.572c-.362.93-2.376,6.162-2.779,7.208l-4.39-1.689c.416-1.083,2.4-6.251,2.771-7.216Z" transform="translate(-195.342 -185.854)" fill="#f29b75"/>
      <path id="Trazado_901298" data-name="Trazado 901298" d="M252.86,217.572l-.56,1.448-4.4-1.689.56-1.456Z" transform="translate(-214.432 -185.854)" fill="#f29066"/>
      <path id="Trazado_901299" data-name="Trazado 901299" d="M247.655,185.085l-1.129,2.935c-1.836-.7-5.489-2.118-7.325-2.818l1.129-2.927Z" transform="translate(-206.635 -155.742)" fill="#df8761"/>
      <path id="Trazado_901300" data-name="Trazado 901300" d="M163.723,195.8a1.177,1.177,0,0,1-1.665-1.665A1.177,1.177,0,0,1,163.723,195.8Z" transform="translate(-137.184 -166.058)" fill="#ffde76"/>
      <path id="Trazado_901301" data-name="Trazado 901301" d="M302.227,286.183c-3.753,3.567-9.117-1.8-5.549-5.55C300.429,277.066,305.793,282.432,302.227,286.183Z" transform="translate(-257.095 -242.841)" fill="#7c7d7d"/>
      <path id="Trazado_901302" data-name="Trazado 901302" d="M321,304.959a1.57,1.57,0,0,1-2.22-2.22A1.57,1.57,0,0,1,321,304.959Z" transform="translate(-277.533 -263.281)" fill="#919191"/>
      <g id="Grupo_1109922" data-name="Grupo 1109922" transform="translate(19.381 19.25)">
        <path id="Trazado_901303" data-name="Trazado 901303" d="M209.192,319.625a.783.783,0,0,1-.55-1.329l2.775-2.775a.779.779,0,0,1,1.1,1.1l-2.775,2.775A.776.776,0,0,1,209.192,319.625Z" transform="translate(-198.425 -294.199)" fill="#edebf2"/>
        <path id="Trazado_901304" data-name="Trazado 901304" d="M230.58,336.22a.783.783,0,0,1-.55-1.329l3.33-3.33a.779.779,0,0,1,1.1,1.1l-3.33,3.33A.776.776,0,0,1,230.58,336.22Z" transform="translate(-217.593 -308.573)" fill="#edebf2"/>
        <path id="Trazado_901305" data-name="Trazado 901305" d="M251.967,367.191a.783.783,0,0,1-.55-1.329l2.22-2.22a.778.778,0,0,1,1.1,1.1l-2.22,2.22a.776.776,0,0,1-.551.228Z" transform="translate(-236.76 -337.325)" fill="#edebf2"/>
        <path id="Trazado_901306" data-name="Trazado 901306" d="M155.719,275.734a.783.783,0,0,1-.55-1.329l1.665-1.665a.779.779,0,0,1,1.1,1.1l-1.665,1.665A.776.776,0,0,1,155.719,275.734Z" transform="translate(-150.502 -255.858)" fill="#edebf2"/>
        <path id="Trazado_901307" data-name="Trazado 901307" d="M134.333,259.142a.783.783,0,0,1-.55-1.329l1.11-1.11a.778.778,0,0,1,1.1,1.1C135.549,258.181,134.809,259.211,134.333,259.142Z" transform="translate(-131.336 -241.486)" fill="#edebf2"/>
        <path id="Trazado_901308" data-name="Trazado 901308" d="M112.946,242.546a.783.783,0,0,1-.55-1.329l.555-.555a.778.778,0,0,1,1.1,1.1C113.775,242.007,113.366,242.594,112.946,242.546Z" transform="translate(-112.169 -227.109)" fill="#edebf2"/>
        <path id="Trazado_901309" data-name="Trazado 901309" d="M332.167,211.014a.784.784,0,0,1-.55-1.329l1.111-1.11a.779.779,0,0,1,1.1,1.1C333.384,210.053,332.643,211.083,332.167,211.014Z" transform="translate(-308.636 -198.353)" fill="#edebf2"/>
        <path id="Trazado_901310" data-name="Trazado 901310" d="M342.86,233.517a.784.784,0,0,1-.55-1.329l2.221-2.219a.779.779,0,0,1,1.1,1.1l-2.221,2.219A.777.777,0,0,1,342.86,233.517Z" transform="translate(-318.219 -217.526)" fill="#edebf2"/>
        <path id="Trazado_901311" data-name="Trazado 901311" d="M369.6,254.351a.783.783,0,0,1-.55-1.329l1.665-1.665a.778.778,0,0,1,1.1,1.1l-1.665,1.665A.776.776,0,0,1,369.6,254.351Z" transform="translate(-342.185 -236.695)" fill="#edebf2"/>
        <path id="Trazado_901312" data-name="Trazado 901312" d="M203.846,118.107a.783.783,0,0,1-.55-1.329l4.44-4.44a.778.778,0,0,1,1.1,1.1l-4.44,4.44A.776.776,0,0,1,203.846,118.107Z" transform="translate(-193.634 -112.105)" fill="#edebf2"/>
        <path id="Trazado_901313" data-name="Trazado 901313" d="M251.967,136.717a.783.783,0,0,1-.55-1.329l1.665-1.665a.779.779,0,0,1,1.1,1.1l-1.665,1.665a.776.776,0,0,1-.551.228Z" transform="translate(-236.76 -131.27)" fill="#edebf2"/>
        <path id="Trazado_901314" data-name="Trazado 901314" d="M278.7,157.546a.783.783,0,0,1-.55-1.329l1.11-1.11a.779.779,0,0,1,1.1,1.1c-.444.376-1.184,1.407-1.66,1.338Z" transform="translate(-260.719 -150.435)" fill="#edebf2"/>
      </g>
      <path id="Trazado_901315" data-name="Trazado 901315" d="M306.373,17.069c-8.22,0-13.958,7.489-13.958,7.489l-1.689-1.689,3.884-3.884a10.2,10.2,0,0,1,11.755-1.923Z" transform="translate(-252.812 -6.719)" fill="#f25767"/>
      <path id="Trazado_901316" data-name="Trazado 901316" d="M85.97,413.509l-3.884,3.884A10.224,10.224,0,0,1,70.3,419.308l.023-.023c8.3,0,13.755-7.66,13.755-7.66Z" transform="translate(-55.265 -361.287)" fill="#f25767"/>
      <path id="Trazado_901317" data-name="Trazado 901317" d="M207.161,392.134l-2.219,2.219-1.892-1.884,2.218-2.219Z" transform="translate(-174.237 -342.13)" fill="#bab5d8"/>
      <path id="Trazado_901318" data-name="Trazado 901318" d="M273.259,83.906v.008l-2.219,2.219-1.689-1.689,2.219-2.219Z" transform="translate(-233.656 -66.076)" fill="#bab5d8"/>
      <path id="Trazado_901319" data-name="Trazado 901319" d="M19.6,287.025a10.909,10.909,0,0,0,7.765-3.216l6.105-6.105a.778.778,0,0,0,0-1.1l-4.44-4.44a.778.778,0,0,0-1.1,0l-2.219,2.218,0,0-3.883,3.883a3.146,3.146,0,0,1-4.449-4.449l6.1-6.1a.778.778,0,0,0,0-1.1l-4.44-4.44a.8.8,0,0,0-1.1,0l-6.105,6.1C4.948,275.077,9.928,287.107,19.6,287.025Zm12.219-9.872L30.7,278.272l-3.339-3.339,1.119-1.119Zm-8.894,2.216,3.335-3.334,3.339,3.339-3.335,3.335a9.459,9.459,0,0,1-12.751.523l3.367-3.368A4.7,4.7,0,0,0,22.928,279.369Zm-4.435-15.544,3.339,3.339-1.119,1.119-3.339-3.339Zm-5.554,5.555,3.335-3.335,3.339,3.339-3.335,3.335a4.7,4.7,0,0,0-.5,6.044l-3.367,3.367a9.434,9.434,0,0,1,.523-12.75Z" transform="translate(0 -227.151)"/>
      <path id="Trazado_901320" data-name="Trazado 901320" d="M275.976,8.5c-5.645.01-8.011,3.571-11.65,7.1l-2.22,2.22a.78.78,0,0,0,0,1.1l4.44,4.44a.778.778,0,0,0,1.1,0l6.1-6.1A3.146,3.146,0,0,1,278.2,21.7l-3.884,3.884S272.1,27.8,272.1,27.808a.778.778,0,0,0,0,1.1l4.44,4.44a.783.783,0,0,0,1.1,0l6.105-6.1c6.888-6.8,1.91-18.828-7.765-18.747ZM267.1,21.707l-3.34-3.339,1.119-1.119,3.34,3.339Zm5.554-5.554-3.334,3.334-3.339-3.339,3.335-3.335a9.459,9.459,0,0,1,12.751-.524L278.7,15.658A4.7,4.7,0,0,0,272.651,16.153ZM277.086,31.7l-3.339-3.339,1.119-1.119,3.339,3.339Zm5.555-5.555-3.334,3.334-3.339-3.339L279.3,22.8a4.7,4.7,0,0,0,.494-6.045l3.367-3.366a9.434,9.434,0,0,1-.522,12.751Z" transform="translate(-226.959 0)"/>
      <path id="Trazado_901321" data-name="Trazado 901321" d="M229.909,177.6l-7.325-2.817a.778.778,0,0,0-1.007.447l-1.127,2.931a.783.783,0,0,0,.448,1.006l.738.284-2.5,6.488a.779.779,0,0,0,.447,1.006l4.395,1.69a.777.777,0,0,0,1.007-.447l2.5-6.488.739.284a.783.783,0,0,0,1.006-.447l1.127-2.93A.778.778,0,0,0,229.909,177.6Zm-6.094,9.3-2.942-1.131,2.216-5.762,2.943,1.131Zm4.24-6.652-5.134-1.974h0l-.737-.283.569-1.478,5.872,2.258Z" transform="translate(-188.61 -148.981)"/>
      <path id="Trazado_901322" data-name="Trazado 901322" d="M154.742,186.829a1.956,1.956,0,0,0,2.766,2.766A1.956,1.956,0,0,0,154.742,186.829Zm1.665,1.665c-.36.371-.936-.2-.564-.564s.935.2.564.564Z" transform="translate(-130.417 -159.299)"/>
      <path id="Trazado_901323" data-name="Trazado 901323" d="M131.845,163.476l1.388-3.607a.778.778,0,0,0-.176-.83l-3.885-3.885a.781.781,0,0,0-.83-.176l-3.607,1.388a.779.779,0,0,0-.447.447L122.9,160.42a.779.779,0,0,0,.176.83l3.885,3.885a.778.778,0,0,0,.83.176l3.607-1.387A.778.778,0,0,0,131.845,163.476Zm-4.141.2-3.169-3.17,1.081-2.812,2.812-1.082,3.169,3.17-1.081,2.813Z" transform="translate(-102.359 -131.232)"/>
      <path id="Trazado_901324" data-name="Trazado 901324" d="M289.395,280c4.535,4.256,10.906-2.118,6.651-6.651C291.512,269.1,285.14,275.471,289.395,280Zm1.1-5.55a3.146,3.146,0,0,1,4.449,4.449A3.146,3.146,0,0,1,290.5,274.454Z" transform="translate(-250.363 -236.112)"/>
      <path id="Trazado_901325" data-name="Trazado 901325" d="M313.307,299.6a2.348,2.348,0,1,0-1.66-4.008A2.362,2.362,0,0,0,313.307,299.6Zm-.559-2.907a.791.791,0,0,1,1.119,1.118A.791.791,0,0,1,312.747,296.7Z" transform="translate(-270.95 -256.688)"/>
      <path id="Trazado_901326" data-name="Trazado 901326" d="M209.194,319.664a.776.776,0,0,0,.55-.228l2.775-2.775a.778.778,0,1,0-1.1-1.1l-2.774,2.775A.784.784,0,0,0,209.194,319.664Z" transform="translate(-179.047 -274.988)"/>
      <path id="Trazado_901327" data-name="Trazado 901327" d="M230.58,336.211a.777.777,0,0,0,.55-.228l3.33-3.33a.779.779,0,0,0-1.1-1.1l-3.33,3.33A.784.784,0,0,0,230.58,336.211Z" transform="translate(-198.213 -289.315)"/>
      <path id="Trazado_901328" data-name="Trazado 901328" d="M251.966,367.2a.776.776,0,0,0,.55-.228l2.22-2.22a.778.778,0,0,0-1.1-1.1l-2.22,2.22a.784.784,0,0,0,.551,1.329Z" transform="translate(-217.379 -318.083)"/>
      <path id="Trazado_901329" data-name="Trazado 901329" d="M155.718,275.745a.776.776,0,0,0,.55-.228l1.665-1.665a.778.778,0,0,0-1.1-1.1l-1.665,1.665A.784.784,0,0,0,155.718,275.745Z" transform="translate(-131.121 -236.619)"/>
      <path id="Trazado_901330" data-name="Trazado 901330" d="M135.945,256.749a.778.778,0,0,0-1.1,0l-1.11,1.11a.778.778,0,0,0,1.1,1.1l1.11-1.11A.778.778,0,0,0,135.945,256.749Z" transform="translate(-111.907 -222.281)"/>
      <path id="Trazado_901331" data-name="Trazado 901331" d="M112.953,240.659l-.555.555a.783.783,0,0,0,.55,1.329c.419.049.832-.54,1.105-.783A.778.778,0,0,0,112.953,240.659Z" transform="translate(-92.79 -207.856)"/>
      <path id="Trazado_901332" data-name="Trazado 901332" d="M332.679,208.576l-1.111,1.11a.779.779,0,0,0,1.1,1.1l1.111-1.11A.779.779,0,0,0,332.679,208.576Z" transform="translate(-289.208 -179.104)"/>
      <path id="Trazado_901333" data-name="Trazado 901333" d="M344.537,229.961l-2.22,2.22a.778.778,0,1,0,1.1,1.1l2.22-2.22A.778.778,0,0,0,344.537,229.961Z" transform="translate(-298.846 -198.269)"/>
      <path id="Trazado_901334" data-name="Trazado 901334" d="M370.716,251.352l-1.665,1.664a.778.778,0,1,0,1.1,1.1l1.665-1.664A.778.778,0,0,0,370.716,251.352Z" transform="translate(-322.804 -217.44)"/>
      <path id="Trazado_901335" data-name="Trazado 901335" d="M207.737,112.326l-4.44,4.44a.778.778,0,1,0,1.1,1.1l4.44-4.44A.778.778,0,0,0,207.737,112.326Z" transform="translate(-174.255 -92.843)"/>
      <path id="Trazado_901336" data-name="Trazado 901336" d="M253.081,133.717l-1.665,1.665a.778.778,0,1,0,1.1,1.1l1.665-1.664A.778.778,0,0,0,253.081,133.717Z" transform="translate(-217.379 -112.015)"/>
      <path id="Trazado_901337" data-name="Trazado 901337" d="M279.214,155.1l-1.11,1.11a.778.778,0,0,0,1.1,1.1l1.11-1.11A.778.778,0,0,0,279.214,155.1Z" transform="translate(-241.292 -131.182)"/>
    </g>
  </g>
</svg>
