<svg xmlns="http://www.w3.org/2000/svg" width="204" height="82" viewBox="0 0 204 82">
  <g id="Grupo_1109943" data-name="Grupo 1109943" transform="translate(-234.051 -4411)">
    <rect id="Rectángulo_402374" data-name="Rectángulo 402374" width="204" height="82" rx="5" transform="translate(234.051 4411)" fill="#8390aa"/>
    <g id="Layer_x0020_1" transform="translate(299.038 4414)">
      <path id="Trazado_901370" data-name="Trazado 901370" d="M72.74,75.663H1.787A1.773,1.773,0,0,1,.013,73.89v-8.9h0V56.1h0V11.611A1.773,1.773,0,0,1,1.787,9.838h8.9a1.773,1.773,0,0,1,1.773,1.773v7.124H19.58a1.773,1.773,0,0,1,1.773,1.773v8.9h0v7.123H53.394V20.509a1.773,1.773,0,0,1,1.773-1.773H62.18V11.611a1.773,1.773,0,0,1,1.773-1.773H72.74a1.773,1.773,0,0,1,1.773,1.773v8.9h0v8.9h0v8.9h0V64.993h0v8.9a1.773,1.773,0,0,1-1.773,1.773ZM43.924,34.345H31.455a1.773,1.773,0,0,1-1.687-1.225L25.916,21.262a1.774,1.774,0,0,1,.644-1.983l9.805-7.123c.9-1.418,4.714-6.987,9.667-8.605a5.318,5.318,0,1,1,.1,3.785,18.847,18.847,0,0,0-6.018,5.617l8.709,6.327a1.773,1.773,0,0,1,.645,1.983L45.611,33.12a1.773,1.773,0,0,1-1.687,1.225ZM32.744,30.8h9.891l3.057-9.408-8-5.813-8,5.813L32.744,30.8Zm18.3-27.253a1.771,1.771,0,1,0,1.77,1.771A1.773,1.773,0,0,0,51.048,3.547ZM25.723,16.606a1.774,1.774,0,0,1-1.034-3.216L32.05,8.119A1.774,1.774,0,1,1,34.115,11l-7.361,5.271a1.767,1.767,0,0,1-1.031.332Zm9.2,13.019a1.775,1.775,0,0,1-1.7-1.288l-1.552-5.453a1.774,1.774,0,0,1,3.411-.972l1.552,5.453a1.775,1.775,0,0,1-1.706,2.26Zm4.725.476A1.775,1.775,0,0,1,38,27.67l2.358-5.914a1.773,1.773,0,1,1,3.294,1.313L41.3,28.983A1.773,1.773,0,0,1,39.649,30.1ZM65.728,18.736h5.24v-5.35h-5.24Zm5.24,3.547h-5.24v5.35h5.24Zm-14.027,5.35H62.18v-5.35H56.941v5.35Zm0,8.9H62.18v-5.35H56.941Zm-8.9,3.547v5.35h5.35v-5.35Zm0,8.9v5.35h5.35v-5.35Zm5.35,8.9h-5.35v5.35h5.35Zm0,14.247v-5.35h-5.35v5.35ZM44.5,45.426v-5.35h-5.35v5.35Zm0,12.444h-5.35v5.35H44.5Zm0-3.547v-5.35h-5.35v5.35H44.5Zm-5.35,17.794H44.5v-5.35h-5.35ZM35.6,45.426v-5.35h-5.35v5.35Zm0,12.444h-5.35v5.35H35.6Zm0-3.547v-5.35h-5.35v5.35H35.6Zm-5.35,17.794H35.6v-5.35h-5.35ZM26.7,45.426v-5.35h-5.35v5.35Zm0,12.444h-5.35v5.35H26.7Zm0-3.547v-5.35h-5.35v5.35H26.7Zm-5.35,17.794H26.7v-5.35h-5.35ZM8.91,22.282H3.56v5.35H8.91Zm0-3.547v-5.35H3.56v5.35Zm8.9,8.9v-5.35h-5.35v5.35h5.35Zm-8.9,8.9v-5.35H3.56v5.35Zm8.9,0v-5.35h-5.35v5.35Zm-8.9,8.9v-5.35H3.56v5.35Zm8.9,0v-5.35h-5.35v5.35Zm0,12.444h-5.35v5.35h5.35Zm-8.9-3.547v-5.35H3.56v5.35Zm8.9,0v-5.35h-5.35v5.35Zm-8.9,8.9V57.87H3.56v5.35Zm0,8.9v-5.35H3.56v5.35Zm3.547,0h5.35v-5.35h-5.35ZM56.941,45.426H62.18v-5.35H56.941Zm0,8.9H62.18v-5.35H56.941ZM62.18,57.87H56.941v5.35H62.18Zm0,14.247v-5.35H56.941v5.35Zm3.547-35.588h5.24v-5.35h-5.24Zm0,8.9h5.24v-5.35h-5.24Zm0,8.9h5.24v-5.35h-5.24Zm5.24,3.547h-5.24v5.35h5.24Zm-5.24,14.247h5.24v-5.35h-5.24Z" transform="translate(0)" fill-rule="evenodd"/>
      <path id="Trazado_901371" data-name="Trazado 901371" d="M2.9,3.621a1.771,1.771,0,1,0-1.771-1.77A1.772,1.772,0,0,0,2.9,3.621Z" transform="translate(48.153 3.467)" fill="#e5e5e6" fill-rule="evenodd"/>
      <path id="Trazado_901372" data-name="Trazado 901372" d="M16.687,6.165l-8-5.813-8,5.813,3.057,9.408H13.63l3.057-9.408Zm-10.614.52,1.552,5.453a1.773,1.773,0,1,1-3.411.972L2.662,7.657a1.774,1.774,0,0,1,3.411-.972ZM9,12.443l2.358-5.914a1.773,1.773,0,1,1,3.294,1.313l-2.358,5.914A1.773,1.773,0,1,1,9,12.443Z" transform="translate(29.005 15.227)" fill="#9b9b9c" fill-rule="evenodd"/>
      <path id="Trazado_901373" data-name="Trazado 901373" d="M1.5.3v5.35h5.24V.3Z" transform="translate(64.232 13.083)" fill="#f4f4f5" fill-rule="evenodd"/>
      <path id="Trazado_901374" data-name="Trazado 901374" d="M6.735.5H1.5v5.35h5.24Z" transform="translate(64.232 21.78)" fill="#f4f4f5" fill-rule="evenodd"/>
      <path id="Trazado_901375" data-name="Trazado 901375" d="M6.536,5.852V.5H1.3v5.35Z" transform="translate(55.644 21.78)" fill="#fbfbfc" fill-rule="evenodd"/>
      <path id="Trazado_901376" data-name="Trazado 901376" d="M6.536.7H1.3v5.35H6.536Z" transform="translate(55.644 30.476)" fill="#fbfbfc" fill-rule="evenodd"/>
      <path id="Trazado_901377" data-name="Trazado 901377" d="M1.5.7v5.35h5.24V.7Z" transform="translate(64.232 30.476)" fill="#f4f4f5" fill-rule="evenodd"/>
      <path id="Trazado_901378" data-name="Trazado 901378" d="M6.735.9H1.5v5.35h5.24Z" transform="translate(64.232 39.172)" fill="#f4f4f5" fill-rule="evenodd"/>
      <path id="Trazado_901379" data-name="Trazado 901379" d="M6.536,6.254V.9H1.3v5.35Z" transform="translate(55.644 39.172)" fill="#fbfbfc" fill-rule="evenodd"/>
      <path id="Trazado_901380" data-name="Trazado 901380" d="M6.735,1.1H1.5v5.35h5.24Z" transform="translate(64.232 47.868)" fill="#f4f4f5" fill-rule="evenodd"/>
      <path id="Trazado_901381" data-name="Trazado 901381" d="M6.536,6.455V1.1H1.3V6.455Z" transform="translate(55.644 47.868)" fill="#fbfbfc" fill-rule="evenodd"/>
      <path id="Trazado_901382" data-name="Trazado 901382" d="M6.536,1.305H1.3v5.35H6.536Z" transform="translate(55.644 56.565)" fill="#fbfbfc" fill-rule="evenodd"/>
      <path id="Trazado_901383" data-name="Trazado 901383" d="M1.5,1.305v5.35h5.24V1.305Z" transform="translate(64.232 56.565)" fill="#f4f4f5" fill-rule="evenodd"/>
      <path id="Trazado_901384" data-name="Trazado 901384" d="M6.536,1.506H1.3V6.856H6.536Z" transform="translate(55.644 65.261)" fill="#eaeaea" fill-rule="evenodd"/>
      <path id="Trazado_901385" data-name="Trazado 901385" d="M1.5,1.506V6.856h5.24V1.506Z" transform="translate(64.232 65.261)" fill="#eaeaea" fill-rule="evenodd"/>
      <path id="Trazado_901386" data-name="Trazado 901386" d="M6.447,6.856V1.506H1.1V6.856Z" transform="translate(46.947 65.261)" fill="#eaeaea" fill-rule="evenodd"/>
      <g id="Grupo_1109942" data-name="Grupo 1109942" transform="translate(21.353 40.076)">
        <path id="Trazado_901387" data-name="Trazado 901387" d="M1.1,6.655h5.35V1.305H1.1Z" transform="translate(25.594 16.489)" fill="#d4d4d4" fill-rule="evenodd"/>
        <path id="Trazado_901388" data-name="Trazado 901388" d="M1.1,6.455h5.35V1.1H1.1Z" transform="translate(25.594 7.792)" fill="#d4d4d4" fill-rule="evenodd"/>
        <path id="Trazado_901389" data-name="Trazado 901389" d="M1.1,6.254h5.35V.9H1.1Z" transform="translate(25.594 -0.904)" fill="#d4d4d4" fill-rule="evenodd"/>
        <path id="Trazado_901390" data-name="Trazado 901390" d="M6.246,6.254V.9H.9v5.35Z" transform="translate(16.898 -0.904)" fill="#d4d4d4" fill-rule="evenodd"/>
        <path id="Trazado_901391" data-name="Trazado 901391" d="M6.045,6.254V.9H.7v5.35Z" transform="translate(8.202 -0.904)" fill="#d4d4d4" fill-rule="evenodd"/>
        <path id="Trazado_901392" data-name="Trazado 901392" d="M5.845,6.254V.9H.495v5.35Z" transform="translate(-0.495 -0.904)" fill="#d4d4d4" fill-rule="evenodd"/>
        <path id="Trazado_901393" data-name="Trazado 901393" d="M5.845,1.1H.495V6.455h5.35Z" transform="translate(-0.495 7.792)" fill="#d4d4d4" fill-rule="evenodd"/>
        <path id="Trazado_901394" data-name="Trazado 901394" d="M.7,1.1V6.455h5.35V1.1Z" transform="translate(8.202 7.792)" fill="#d4d4d4" fill-rule="evenodd"/>
        <path id="Trazado_901395" data-name="Trazado 901395" d="M.9,1.1V6.455h5.35V1.1Z" transform="translate(16.898 7.792)" fill="#d4d4d4" fill-rule="evenodd"/>
        <path id="Trazado_901396" data-name="Trazado 901396" d="M6.246,1.305H.9v5.35h5.35Z" transform="translate(16.898 16.489)" fill="#d4d4d4" fill-rule="evenodd"/>
        <path id="Trazado_901397" data-name="Trazado 901397" d="M6.045,6.655V1.305H.7v5.35Z" transform="translate(8.202 16.489)" fill="#d4d4d4" fill-rule="evenodd"/>
        <path id="Trazado_901398" data-name="Trazado 901398" d="M5.845,6.655V1.305H.495v5.35Z" transform="translate(-0.495 16.489)" fill="#d4d4d4" fill-rule="evenodd"/>
      </g>
      <path id="Trazado_901399" data-name="Trazado 901399" d="M5.845,1.506H.495V6.856h5.35Z" transform="translate(20.859 65.261)" fill="#d4d4d5" fill-rule="evenodd"/>
      <path id="Trazado_901400" data-name="Trazado 901400" d="M.7,1.506V6.856h5.35V1.506Z" transform="translate(29.555 65.261)" fill="#bababb" fill-rule="evenodd"/>
      <path id="Trazado_901401" data-name="Trazado 901401" d="M.9,1.506V6.856h5.35V1.506Z" transform="translate(38.251 65.261)" fill="#d4d4d4" fill-rule="evenodd"/>
      <path id="Trazado_901402" data-name="Trazado 901402" d="M5.644,6.856V1.506H.294V6.856Z" transform="translate(12.163 65.261)" fill="#e5e5e6" fill-rule="evenodd"/>
      <path id="Trazado_901403" data-name="Trazado 901403" d="M.294,6.655h5.35V1.305H.294Z" transform="translate(12.163 56.565)" fill="#e5e5e6" fill-rule="evenodd"/>
      <path id="Trazado_901404" data-name="Trazado 901404" d="M.294,6.455h5.35V1.1H.294Z" transform="translate(12.163 47.868)" fill="#e5e5e6" fill-rule="evenodd"/>
      <path id="Trazado_901405" data-name="Trazado 901405" d="M.294,6.254h5.35V.9H.294Z" transform="translate(12.163 39.172)" fill="#e5e5e6" fill-rule="evenodd"/>
      <path id="Trazado_901406" data-name="Trazado 901406" d="M.294,6.053h5.35V.7H.294Z" transform="translate(12.163 30.476)" fill="#e5e5e6" fill-rule="evenodd"/>
      <path id="Trazado_901407" data-name="Trazado 901407" d="M5.443,6.053V.7H.093v5.35Z" transform="translate(3.467 30.476)" fill="#9b9b9c" fill-rule="evenodd"/>
      <path id="Trazado_901408" data-name="Trazado 901408" d="M5.443.9H.093v5.35h5.35Z" transform="translate(3.467 39.172)" fill="#9b9b9c" fill-rule="evenodd"/>
      <path id="Trazado_901409" data-name="Trazado 901409" d="M5.443,1.1H.093v5.35h5.35Z" transform="translate(3.467 47.868)" fill="#9b9b9c" fill-rule="evenodd"/>
      <path id="Trazado_901410" data-name="Trazado 901410" d="M5.443,1.305H.093v5.35h5.35Z" transform="translate(3.467 56.565)" fill="#9b9b9c" fill-rule="evenodd"/>
      <path id="Trazado_901411" data-name="Trazado 901411" d="M5.443,1.506H.093V6.856h5.35Z" transform="translate(3.467 65.261)" fill="#9b9b9c" fill-rule="evenodd"/>
      <path id="Trazado_901412" data-name="Trazado 901412" d="M.093,5.653h5.35V.3H.093Z" transform="translate(3.467 13.083)" fill="#eaeaea" fill-rule="evenodd"/>
      <path id="Trazado_901413" data-name="Trazado 901413" d="M5.443.5H.093v5.35h5.35Z" transform="translate(3.467 21.78)" fill="#9b9b9c" fill-rule="evenodd"/>
      <path id="Trazado_901414" data-name="Trazado 901414" d="M.294.5v5.35h5.35V.5Z" transform="translate(12.163 21.78)" fill="#e5e5e6" fill-rule="evenodd"/>
    </g>
  </g>
</svg>
